{
.appVersion = "895";
DisplayStrings = (
"l/quoteright \U00E9cole moderne",
/bracketleft_one_eight_F_bracketright.liga,
hol/ydotbelow
);
customParameters = (
{
name = fsType;
value = (
);
},
{
name = licenseURL;
value = "http://scripts.sil.org/OFL";
},
{
name = license;
value = "This Font Software is licensed under the SIL Open Font License, Version 1.1. This license is available with a FAQ at: http://scripts.sil.org/OFL";
},
{
name = trademark;
value = "18Franklin is based on Libre Franklin, which is a trademark of Impallari Type.";
},
{
name = description;
value = "Libre Franklin is a reinterpretation and expansion of the 1912 Morris Fuller Benton’s classic.";
},
{
name = vendorID;
value = IMPA;
},
{
name = note;
value = "Based on Libre Franklin\012\012";
},
{
name = vsuffix;
value = "-v.018";
}
);
date = "2016-11-06 19:59:26 +0000";
designer = "Pablo Impallari, Rodrigo Fuenzalida (Modified by Dan O. Williams)";
familyName = "18Franklin-17";
featurePrefixes = (
{
automatic = 1;
code = "languagesystem DFLT dflt;\012languagesystem latn dflt;\012languagesystem latn CAT;\012languagesystem latn ROM;\012languagesystem latn MOL;\012languagesystem latn KAZ;\012languagesystem latn TAT;\012languagesystem latn TRK;\012languagesystem latn CRT;\012languagesystem latn AZE;\012";
name = Languagesystems;
}
);
features = (
{
automatic = 1;
code = "feature ccmp;\012feature locl;\012feature subs;\012feature sinf;\012feature sups;\012feature numr;\012feature dnom;\012feature frac;\012feature ordn;\012";
name = aalt;
},
{
automatic = 1;

glyphs = (
{
glyphname = A;
lastChange = "2016-11-06 13:02:13 +0000";
layers = (
{
anchors = (
{
name = bottom;
position = "{363, 0}";
},
{
name = ogonek;
position = "{710, 9}";
},
{
name = top;
position = "{462, 742}";
}
);
background = {
anchors = (
{
name = bottom;
position = "{363, 0}";
},
{
name = ogonek;
position = "{710, 9}";
},
{
name = top;
position = "{462, 742}";
}
);
paths = (
{
closed = 1;
nodes = (
"162 0 LINE SMOOTH",
"176 0 OFFCURVE",
"180 2 OFFCURVE",
"184 10 CURVE SMOOTH",
"244 131 LINE SMOOTH",
"249 140 OFFCURVE",
"253 144 OFFCURVE",
"263 144 CURVE SMOOTH",
"473 144 LINE SMOOTH",
"482 144 OFFCURVE",
"485 142 OFFCURVE",
"486 135 CURVE SMOOTH",
"509 22 LINE SMOOTH",
"512 9 OFFCURVE",
"518 0 OFFCURVE",
"528 0 CURVE SMOOTH",
"724 0 LINE SMOOTH",
"739 0 OFFCURVE",
"742 15 OFFCURVE",
"739 29 CURVE SMOOTH",
"594 710 LINE SMOOTH",
"591 726 OFFCURVE",
"586 742 OFFCURVE",
"569 742 CURVE SMOOTH",
"372 742 LINE SMOOTH",
"354 742 OFFCURVE",
"342 740 OFFCURVE",
"334 724 CURVE SMOOTH",
"-5 42 LINE SMOOTH",
"-20 12 OFFCURVE",
"-19 0 OFFCURVE",
"-4 0 CURVE SMOOTH"
);
},
{
closed = 1;
nodes = (
"320 314 OFFCURVE",
"317 317 OFFCURVE",
"323 330 CURVE SMOOTH",
"406 502 LINE SMOOTH",
"412 514 OFFCURVE",
"420 514 OFFCURVE",
"422 501 CURVE SMOOTH",
"458 334 LINE SMOOTH",
"461 321 OFFCURVE",
"457 314 OFFCURVE",
"446 314 CURVE SMOOTH",
"332 314 LINE SMOOTH"
);
}
);
};
layerId = "258ED206-D907-4350-8EBA-CBDDA1C16BF7";
paths = (
{
closed = 1;
nodes = (
"179 0 LINE",
"250 144 LINE",
"484 144 LINE",
"514 0 LINE",
"745 0 LINE",
"587 742 LINE",
"343 742 LINE",
"-26 0 LINE"
);
},
{
closed = 1;
nodes = (
"417 525 LINE",
"462 314 LINE",
"315 314 LINE"
);
}
);
width = 799;
},
{
anchors = (
{
name = bottom;
position = "{313, 0}";
},
{
name = ogonek;
position = "{603, 11}";
},
{
name = top;
position = "{417, 742}";
}
);
background = {
anchors = (
{
name = bottom;
position = "{313, 0}";
},
{
name = ogonek;
position = "{603, 11}";
},
{
name = top;
position = "{417, 742}";
}
);
paths = (
{
closed = 1;
nodes = (
"49 0 LINE SMOOTH",
"55 0 OFFCURVE",
"58 1 OFFCURVE",
"60 6 CURVE SMOOTH",
"175 230 LINE SMOOTH",
"177 235 OFFCURVE",
"180 238 OFFCURVE",
"186 238 CURVE SMOOTH",
"508 238 LINE SMOOTH",
"514 238 OFFCURVE",
"515 237 OFFCURVE",
"516 232 CURVE SMOOTH",
"567 9 LINE SMOOTH",
"567 3 OFFCURVE",
"572 0 OFFCURVE",
"579 0 CURVE SMOOTH",
"603 0 LINE SMOOTH",
"610 0 OFFCURVE",
"612 3 OFFCURVE",
"611 9 CURVE SMOOTH",
"449 731 LINE SMOOTH",
"449 738 OFFCURVE",
"443 742 OFFCURVE",
"433 742 CURVE SMOOTH",
"400 742 LINE SMOOTH",
"391 742 OFFCURVE",
"388 740 OFFCURVE",
"384 732 CURVE SMOOTH",
"16 10 LINE SMOOTH",
"14 4 OFFCURVE",
"18 0 OFFCURVE",
"24 0 CURVE SMOOTH"
);
},
{
closed = 1;
nodes = (
"199 278 OFFCURVE",
"199 281 OFFCURVE",
"203 290 CURVE SMOOTH",
"402 676 LINE SMOOTH",
"408 690 OFFCURVE",
"413 692 OFFCURVE",
"416 679 CURVE SMOOTH",
"505 289 LINE SMOOTH",
"506 283 OFFCURVE",
"505 278 OFFCURVE",
"497 278 CURVE SMOOTH",
"204 278 LINE SMOOTH"
);
}
);
};
layerId = "91AB5BCA-6A50-42DA-B2F7-8181BF189245";
paths = (
{
closed = 1;
nodes = (
"57 0 LINE",
"179 238 LINE",
"515 238 LINE",
"569 0 LINE",
"613 0 LINE",
"447 742 LINE",
"389 742 LINE",
"11 0 LINE"
);
},
{
closed = 1;
nodes = (
"412 696 LINE",
"508 278 LINE",
"197 278 LINE"
);
}
);
width = 700;
}
);
leftKerningGroup = A;
rightKerningGroup = A;
unicode = 0041;
},
{
glyphname = Aringacute;
lastChange = "2016-11-06 13:02:13 +0000";
layers = (
{
background = {
paths = (
{
closed = 1;
nodes = (
"553 850 OFFCURVE",
"507 899 OFFCURVE",
"442 899 CURVE SMOOTH",
"386 899 OFFCURVE",
"335 863 OFFCURVE",
"327 809 CURVE SMOOTH",
"318 741 OFFCURVE",
"364 693 OFFCURVE",
"429 693 CURVE SMOOTH",
"486 693 OFFCURVE",
"536 728 OFFCURVE",
"544 785 CURVE SMOOTH"
);
},
{
closed = 1;
nodes = (
"480 775 OFFCURVE",
"451 746 OFFCURVE",
"420 746 CURVE SMOOTH",
"398 746 OFFCURVE",
"381 763 OFFCURVE",
"384 784 CURVE SMOOTH",
"388 816 OFFCURVE",
"419 842 OFFCURVE",
"449 842 CURVE SMOOTH",
"472 842 OFFCURVE",
"487 828 OFFCURVE",
"484 806 CURVE SMOOTH"
);
},
{
closed = 1;
nodes = (
"305 742 OFFCURVE",
"301 740 OFFCURVE",
"294 724 CURVE SMOOTH",
"-37 42 LINE SMOOTH",
"-47 20 OFFCURVE",
"-37 0 OFFCURVE",
"-22 0 CURVE SMOOTH",
"130 0 LINE SMOOTH",
"144 0 OFFCURVE",
"148 2 OFFCURVE",
"152 10 CURVE SMOOTH",
"208 127 LINE SMOOTH",
"210 134 OFFCURVE",
"219 144 OFFCURVE",
"227 144 CURVE SMOOTH",
"428 144 LINE SMOOTH",
"438 144 OFFCURVE",
"438 144 OFFCURVE",
"440 137 CURVE SMOOTH",
"460 22 LINE SMOOTH",
"461 9 OFFCURVE",
"471 0 OFFCURVE",
"481 0 CURVE SMOOTH",
"677 0 LINE SMOOTH",
"692 0 OFFCURVE",
"693 15 OFFCURVE",
"690 29 CURVE SMOOTH",
"553 710 LINE SMOOTH",
"551 726 OFFCURVE",
"537 742 OFFCURVE",
"520 742 CURVE SMOOTH",
"322 742 LINE SMOOTH"
);
},
{
closed = 1;
nodes = (
"414 326 OFFCURVE",
"405 314 OFFCURVE",
"394 314 CURVE SMOOTH",
"291 314 LINE SMOOTH",
"279 314 OFFCURVE",
"281 317 OFFCURVE",
"288 330 CURVE SMOOTH",
"369 499 LINE SMOOTH",
"371 506 OFFCURVE",
"379 517 OFFCURVE",
"381 510 CURVE SMOOTH",
"412 339 LINE SMOOTH"
);
},
{
closed = 1;
nodes = (
"445 964 OFFCURVE",
"435 963 OFFCURVE",
"426 938 CURVE SMOOTH",
"403 875 LINE",
"491 875 LINE",
"525 930 LINE SMOOTH",
"531 944 OFFCURVE",
"525 964 OFFCURVE",
"509 964 CURVE SMOOTH",
"464 964 LINE SMOOTH"
);
}
);
};
layerId = "258ED206-D907-4350-8EBA-CBDDA1C16BF7";
paths = (
{
closed = 1;
nodes = (
"553 850 OFFCURVE",
"507 899 OFFCURVE",
"442 899 CURVE SMOOTH",
"386 899 OFFCURVE",
"335 863 OFFCURVE",
"327 809 CURVE SMOOTH",
"318 741 OFFCURVE",
"364 693 OFFCURVE",
"429 693 CURVE SMOOTH",
"486 693 OFFCURVE",
"536 728 OFFCURVE",
"544 785 CURVE SMOOTH"
);
},
{
closed = 1;
nodes = (
"480 775 OFFCURVE",
"451 746 OFFCURVE",
"420 746 CURVE SMOOTH",
"398 746 OFFCURVE",
"381 763 OFFCURVE",
"384 784 CURVE SMOOTH",
"388 816 OFFCURVE",
"419 842 OFFCURVE",
"449 842 CURVE SMOOTH",
"472 842 OFFCURVE",
"487 828 OFFCURVE",
"484 806 CURVE SMOOTH"
);
},
{
closed = 1;
nodes = (
"-57 0 LINE",
"147 0 LINE",
"216 144 LINE",
"439 144 LINE",
"464 0 LINE",
"696 0 LINE",
"547 742 LINE",
"303 742 LINE"
);
},
{
closed = 1;
nodes = (
"280 314 LINE",
"379 520 LINE",
"417 314 LINE"
);
},
{
closed = 1;
nodes = (
"403 875 LINE",
"491 875 LINE",
"546 964 LINE",
"435 964 LINE"
);
}
);
width = 710;
},
{
background = {
paths = (
{
closed = 1;
nodes = (
"501 856 OFFCURVE",
"462 900 OFFCURVE",
"405 900 CURVE SMOOTH",
"351 900 OFFCURVE",
"301 858 OFFCURVE",
"294 806 CURVE SMOOTH",
"286 747 OFFCURVE",
"324 702 OFFCURVE",
"381 702 CURVE SMOOTH",
"436 702 OFFCURVE",
"485 744 OFFCURVE",
"493 800 CURVE SMOOTH"
);
},
{
closed = 1;
nodes = (
"446 771 OFFCURVE",
"416 742 OFFCURVE",
"382 742 CURVE SMOOTH",
"352 742 OFFCURVE",
"329 769 OFFCURVE",
"333 799 CURVE SMOOTH",
"338 835 OFFCURVE",
"371 860 OFFCURVE",
"403 860 CURVE SMOOTH",
"435 860 OFFCURVE",
"455 837 OFFCURVE",
"451 803 CURVE SMOOTH"
);
},
{
closed = 1;
nodes = (
"360 742 OFFCURVE",
"357 740 OFFCURVE",
"353 732 CURVE SMOOTH",
"3 10 LINE",
"1 5 OFFCURVE",
"5 0 OFFCURVE",
"11 0 CURVE SMOOTH",
"33 0 LINE SMOOTH",
"39 0 OFFCURVE",
"41 1 OFFCURVE",
"44 6 CURVE",
"153 230 LINE SMOOTH",
"155 235 OFFCURVE",
"158 238 OFFCURVE",
"164 238 CURVE SMOOTH",
"460 238 LINE SMOOTH",
"466 238 OFFCURVE",
"467 237 OFFCURVE",
"468 232 CURVE SMOOTH",
"514 9 LINE SMOOTH",
"514 3 OFFCURVE",
"518 0 OFFCURVE",
"525 0 CURVE SMOOTH",
"552 0 LINE SMOOTH",
"559 0 OFFCURVE",
"561 3 OFFCURVE",
"560 9 CURVE SMOOTH",
"417 731 LINE",
"417 738 OFFCURVE",
"411 742 OFFCURVE",
"401 742 CURVE SMOOTH",
"369 742 LINE SMOOTH"
);
},
{
closed = 1;
nodes = (
"460 283 OFFCURVE",
"457 278 OFFCURVE",
"449 278 CURVE SMOOTH",
"180 278 LINE SMOOTH",
"174 278 OFFCURVE",
"174 278 OFFCURVE",
"178 285 CURVE SMOOTH",
"367 676 LINE SMOOTH",
"373 690 OFFCURVE",
"379 692 OFFCURVE",
"381 679 CURVE SMOOTH",
"459 289 LINE SMOOTH"
);
},
{
closed = 1;
nodes = (
"425 964 OFFCURVE",
"421 961 OFFCURVE",
"418 952 CURVE SMOOTH",
"389 875 LINE",
"427 875 LINE",
"469 947 LINE SMOOTH",
"473 957 OFFCURVE",
"470 964 OFFCURVE",
"459 964 CURVE SMOOTH",
"436 964 LINE SMOOTH"
);
}
);
};
layerId = "91AB5BCA-6A50-42DA-B2F7-8181BF189245";
paths = (
{
closed = 1;
nodes = (
"501 856 OFFCURVE",
"462 900 OFFCURVE",
"405 900 CURVE SMOOTH",
"351 900 OFFCURVE",
"301 858 OFFCURVE",
"294 806 CURVE SMOOTH",
"286 747 OFFCURVE",
"324 702 OFFCURVE",
"381 702 CURVE SMOOTH",
"436 702 OFFCURVE",
"485 744 OFFCURVE",
"493 800 CURVE SMOOTH"
);
},
{
closed = 1;
nodes = (
"446 771 OFFCURVE",
"416 742 OFFCURVE",
"382 742 CURVE SMOOTH",
"352 742 OFFCURVE",
"329 769 OFFCURVE",
"333 799 CURVE SMOOTH",
"338 835 OFFCURVE",
"371 860 OFFCURVE",
"403 860 CURVE SMOOTH",
"435 860 OFFCURVE",
"455 837 OFFCURVE",
"451 803 CURVE SMOOTH"
);
},
{
closed = 1;
nodes = (
"-2 0 LINE",
"41 0 LINE",
"157 238 LINE",
"467 238 LINE",
"516 0 LINE",
"562 0 LINE",
"415 742 LINE",
"358 742 LINE"
);
},
{
closed = 1;
nodes = (
"175 278 LINE",
"377 697 LINE",
"461 278 LINE"
);
},
{
closed = 1;
nodes = (
"389 875 LINE",
"427 875 LINE",
"479 964 LINE",
"423 964 LINE"
);
}
);
width = 637;
}
);
leftKerningGroup = A;
rightKerningGroup = A;
unicode = 01FA;
},
{
glyphname = AE;
lastChange = "2016-11-06 13:02:13 +0000";
layers = (
{
anchors = (
{
name = top;
position = "{784, 742}";
}
);
background = {
anchors = (
{
name = top;
position = "{784, 742}";
}
);
paths = (
{
closed = 1;
nodes = (
"725 164 LINE SMOOTH",
"716 164 OFFCURVE",
"716 161 OFFCURVE",
"718 172 CURVE SMOOTH",
"732 272 LINE SMOOTH",
"733 280 OFFCURVE",
"745 292 OFFCURVE",
"755 292 CURVE SMOOTH",
"940 292 LINE SMOOTH",
"953 292 OFFCURVE",
"954 294 OFFCURVE",
"955 303 CURVE SMOOTH",
"973 427 LINE SMOOTH",
"975 440 OFFCURVE",
"965 453 OFFCURVE",
"951 453 CURVE SMOOTH",
"771 453 LINE SMOOTH",
"761 453 OFFCURVE",
"758 454 OFFCURVE",
"760 468 CURVE SMOOTH",
"771 553 LINE SMOOTH",
"773 566 OFFCURVE",
"787 578 OFFCURVE",
"802 578 CURVE SMOOTH",
"1102 578 LINE SMOOTH",
"1120 578 OFFCURVE",
"1125 583 OFFCURVE",
"1127 599 CURVE SMOOTH",
"1144 715 LINE SMOOTH",
"1146 728 OFFCURVE",
"1138 742 OFFCURVE",
"1126 742 CURVE SMOOTH",
"477 742 LINE SMOOTH",
"460 742 OFFCURVE",
"454 740 OFFCURVE",
"444 724 CURVE SMOOTH",
"-7 42 LINE SMOOTH",
"-21 20 OFFCURVE",
"-12 0 OFFCURVE",
"3 0 CURVE SMOOTH",
"155 0 LINE SMOOTH",
"169 0 OFFCURVE",
"175 2 OFFCURVE",
"180 10 CURVE SMOOTH",
"256 128 LINE",
"259 135 OFFCURVE",
"269 144 OFFCURVE",
"277 144 CURVE SMOOTH",
"478 144 LINE SMOOTH",
"488 144 OFFCURVE",
"487 145 OFFCURVE",
"486 136 CURVE SMOOTH",
"471 31 LINE SMOOTH",
"469 14 OFFCURVE",
"478 0 OFFCURVE",
"498 0 CURVE SMOOTH",
"1033 0 LINE SMOOTH",
"1050 0 OFFCURVE",
"1053 4 OFFCURVE",
"1055 16 CURVE SMOOTH",
"1072 139 LINE SMOOTH",
"1074 153 OFFCURVE",
"1064 164 OFFCURVE",
"1050 164 CURVE SMOOTH"
);
},
{
closed = 1;
nodes = (
"371 314 LINE SMOOTH",
"359 314 OFFCURVE",
"363 317 OFFCURVE",
"373 330 CURVE",
"505 532 LINE SMOOTH",
"524 562 OFFCURVE",
"547 571 OFFCURVE",
"543 541 CURVE SMOOTH",
"515 340 LINE SMOOTH",
"513 327 OFFCURVE",
"500 314 OFFCURVE",
"488 314 CURVE SMOOTH"
);
}
);
};
layerId = "258ED206-D907-4350-8EBA-CBDDA1C16BF7";
paths = (
{
closed = 1;
nodes = (
"717 164 LINE",
"735 292 LINE",
"953 292 LINE",
"977 453 LINE",
"758 453 LINE",
"774 578 LINE",
"1124 578 LINE",
"1148 742 LINE",
"456 742 LINE",
"-35 0 LINE",
"174 0 LINE",
"266 144 LINE",
"487 144 LINE",
"467 0 LINE",
"1053 0 LINE",
"1075 164 LINE"
);
},
{
closed = 1;
nodes = (
"363 314 LINE",
"552 604 LINE",
"511 314 LINE"
);
}
);
width = 1123;
},
{
anchors = (
{
name = top;
position = "{749, 742}";
}
);
background = {
anchors = (
{
name = top;
position = "{749, 742}";
}
);
paths = (
{
closed = 1;
nodes = (
"518 40 LINE SMOOTH",
"511 40 OFFCURVE",
"510 40 OFFCURVE",
"512 48 CURVE SMOOTH",
"553 345 LINE SMOOTH",
"554 353 OFFCURVE",
"558 355 OFFCURVE",
"565 355 CURVE SMOOTH",
"833 355 LINE SMOOTH",
"839 355 OFFCURVE",
"840 355 OFFCURVE",
"840 361 CURVE SMOOTH",
"844 387 LINE SMOOTH",
"845 392 OFFCURVE",
"842 395 OFFCURVE",
"837 395 CURVE SMOOTH",
"568 395 LINE SMOOTH",
"561 395 OFFCURVE",
"560 395 OFFCURVE",
"561 401 CURVE SMOOTH",
"602 692 LINE SMOOTH",
"603 700 OFFCURVE",
"606 702 OFFCURVE",
"613 702 CURVE SMOOTH",
"951 702 LINE SMOOTH",
"957 702 OFFCURVE",
"958 702 OFFCURVE",
"959 708 CURVE SMOOTH",
"963 734 LINE SMOOTH",
"964 739 OFFCURVE",
"961 742 OFFCURVE",
"956 742 CURVE SMOOTH",
"551 742 LINE SMOOTH",
"542 742 OFFCURVE",
"538 740 OFFCURVE",
"533 732 CURVE",
"17 10 LINE SMOOTH",
"13 5 OFFCURVE",
"17 0 OFFCURVE",
"23 0 CURVE SMOOTH",
"48 0 LINE SMOOTH",
"54 0 OFFCURVE",
"57 1 OFFCURVE",
"61 6 CURVE SMOOTH",
"221 230 LINE SMOOTH",
"225 235 OFFCURVE",
"228 238 OFFCURVE",
"234 238 CURVE SMOOTH",
"488 238 LINE SMOOTH",
"491 238 OFFCURVE",
"492 237 OFFCURVE",
"492 234 CURVE SMOOTH",
"460 11 LINE SMOOTH",
"459 3 OFFCURVE",
"462 0 OFFCURVE",
"469 0 CURVE SMOOTH",
"869 0 LINE SMOOTH",
"874 0 OFFCURVE",
"875 1 OFFCURVE",
"876 6 CURVE SMOOTH",
"879 32 LINE SMOOTH",
"880 38 OFFCURVE",
"877 40 OFFCURVE",
"871 40 CURVE SMOOTH"
);
},
{
closed = 1;
nodes = (
"257 278 LINE SMOOTH",
"251 278 OFFCURVE",
"252 278 OFFCURVE",
"257 285 CURVE SMOOTH",
"540 676 LINE SMOOTH",
"550 690 OFFCURVE",
"555 692 OFFCURVE",
"554 679 CURVE",
"499 288 LINE SMOOTH",
"499 283 OFFCURVE",
"495 278 OFFCURVE",
"489 278 CURVE SMOOTH"
);
}
);
};
layerId = "91AB5BCA-6A50-42DA-B2F7-8181BF189245";
paths = (
{
closed = 1;
nodes = (
"511 40 LINE",
"554 355 LINE",
"839 355 LINE",
"845 395 LINE",
"560 395 LINE",
"603 702 LINE",
"958 702 LINE",
"964 742 LINE",
"540 742 LINE",
"10 0 LINE",
"57 0 LINE",
"227 238 LINE",
"493 238 LINE",
"458 0 LINE",
"875 0 LINE",
"880 40 LINE"
);
},
{
closed = 1;
nodes = (
"252 278 LINE",
"557 699 LINE",
"498 278 LINE"
);
}
);
width = 964;
}
);
leftKerningGroup = AE;
leftMetricsKey = A;
rightKerningGroup = E;
rightMetricsKey = E;
unicode = 00C6;
},
{
glyphname = B;
lastChange = "2016-11-06 13:02:13 +0000";
layers = (
{
background = {
paths = (
{
closed = 1;
nodes = (
"361 0 LINE SMOOTH",
"529 0 OFFCURVE",
"702 38 OFFCURVE",
"702 223 CURVE SMOOTH",
"702 294 OFFCURVE",
"665 341 OFFCURVE",
"574 372 CURVE SMOOTH",
"567 374 OFFCURVE",
"567 380 OFFCURVE",
"577 383 CURVE SMOOTH",
"666 413 OFFCURVE",
"732 466 OFFCURVE",
"732 565 CURVE SMOOTH",
"732 680 OFFCURVE",
"629 742 OFFCURVE",
"438 742 CURVE SMOOTH",
"140 742 LINE SMOOTH",
"125 742 OFFCURVE",
"118 737 OFFCURVE",
"116 722 CURVE SMOOTH",
"19 28 LINE SMOOTH",
"16 7 OFFCURVE",
"18 0 OFFCURVE",
"32 0 CURVE SMOOTH"
);
},
{
closed = 1;
nodes = (
"266 150 OFFCURVE",
"263 152 OFFCURVE",
"265 166 CURVE SMOOTH",
"281 278 LINE SMOOTH",
"283 293 OFFCURVE",
"287 298 OFFCURVE",
"301 298 CURVE SMOOTH",
"400 298 LINE SMOOTH",
"446 298 OFFCURVE",
"471 278 OFFCURVE",
"471 247 CURVE SMOOTH",
"471 191 OFFCURVE",
"417 150 OFFCURVE",
"366 150 CURVE SMOOTH",
"276 150 LINE SMOOTH"
);
},
{
closed = 1;
nodes = (
"308 452 OFFCURVE",
"306 454 OFFCURVE",
"308 468 CURVE SMOOTH",
"321 571 LINE SMOOTH",
"323 586 OFFCURVE",
"329 592 OFFCURVE",
"347 592 CURVE SMOOTH",
"434 592 LINE SMOOTH",
"477 592 OFFCURVE",
"506 574 OFFCURVE",
"506 541 CURVE SMOOTH",
"506 490 OFFCURVE",
"458 452 OFFCURVE",
"413 452 CURVE SMOOTH",
"318 452 LINE SMOOTH"
);
}
);
};
layerId = "258ED206-D907-4350-8EBA-CBDDA1C16BF7";
paths = (
{
closed = 1;
nodes = (
"361 0 LINE SMOOTH",
"529 0 OFFCURVE",
"702 38 OFFCURVE",
"702 223 CURVE SMOOTH",
"702 294 OFFCURVE",
"665 341 OFFCURVE",
"574 372 CURVE SMOOTH",
"567 374 OFFCURVE",
"567 380 OFFCURVE",
"577 383 CURVE SMOOTH",
"666 413 OFFCURVE",
"732 466 OFFCURVE",
"732 565 CURVE SMOOTH",
"732 680 OFFCURVE",
"629 742 OFFCURVE",
"438 742 CURVE SMOOTH",
"119 742 LINE",
"15 0 LINE"
);
},
{
closed = 1;
nodes = (
"284 298 LINE",
"400 298 LINE SMOOTH",
"446 298 OFFCURVE",
"471 278 OFFCURVE",
"471 247 CURVE SMOOTH",
"471 191 OFFCURVE",
"417 150 OFFCURVE",
"366 150 CURVE SMOOTH",
"263 150 LINE"
);
},
{
closed = 1;
nodes = (
"324 592 LINE",
"434 592 LINE SMOOTH",
"477 592 OFFCURVE",
"506 574 OFFCURVE",
"506 541 CURVE SMOOTH",
"506 490 OFFCURVE",
"458 452 OFFCURVE",
"413 452 CURVE SMOOTH",
"306 452 LINE"
);
}
);
width = 739;
},
{
background = {
paths = (
{
closed = 1;
nodes = (
"302 0 LINE SMOOTH",
"458 0 OFFCURVE",
"601 59 OFFCURVE",
"601 227 CURVE SMOOTH",
"601 309 OFFCURVE",
"552 358 OFFCURVE",
"477 372 CURVE SMOOTH",
"470 374 OFFCURVE",
"470 379 OFFCURVE",
"478 381 CURVE SMOOTH",
"576 411 OFFCURVE",
"633 479 OFFCURVE",
"633 579 CURVE SMOOTH",
"633 685 OFFCURVE",
"546 742 OFFCURVE",
"394 742 CURVE SMOOTH",
"191 742 LINE SMOOTH",
"184 742 OFFCURVE",
"181 739 OFFCURVE",
"180 731 CURVE SMOOTH",
"78 9 LINE SMOOTH",
"77 4 OFFCURVE",
"81 0 OFFCURVE",
"86 0 CURVE SMOOTH"
);
},
{
closed = 1;
nodes = (
"133 40 OFFCURVE",
"129 42 OFFCURVE",
"130 49 CURVE SMOOTH",
"171 345 LINE SMOOTH",
"172 352 OFFCURVE",
"177 355 OFFCURVE",
"185 355 CURVE SMOOTH",
"354 355 LINE SMOOTH",
"469 355 OFFCURVE",
"553 319 OFFCURVE",
"553 221 CURVE SMOOTH",
"553 67 OFFCURVE",
"418 40 OFFCURVE",
"293 40 CURVE SMOOTH",
"138 40 LINE SMOOTH"
);
},
{
closed = 1;
nodes = (
"182 395 OFFCURVE",
"179 398 OFFCURVE",
"180 405 CURVE SMOOTH",
"220 693 LINE SMOOTH",
"221 699 OFFCURVE",
"225 702 OFFCURVE",
"231 702 CURVE SMOOTH",
"386 702 LINE SMOOTH",
"510 702 OFFCURVE",
"585 662 OFFCURVE",
"585 573 CURVE SMOOTH",
"585 452 OFFCURVE",
"485 395 OFFCURVE",
"357 395 CURVE SMOOTH",
"187 395 LINE SMOOTH"
);
}
);
};
layerId = "91AB5BCA-6A50-42DA-B2F7-8181BF189245";
paths = (
{
closed = 1;
nodes = (
"302 0 LINE SMOOTH",
"458 0 OFFCURVE",
"601 59 OFFCURVE",
"601 227 CURVE SMOOTH",
"601 309 OFFCURVE",
"552 358 OFFCURVE",
"477 372 CURVE SMOOTH",
"470 374 OFFCURVE",
"470 379 OFFCURVE",
"478 381 CURVE SMOOTH",
"576 411 OFFCURVE",
"633 479 OFFCURVE",
"633 579 CURVE SMOOTH",
"633 685 OFFCURVE",
"546 742 OFFCURVE",
"394 742 CURVE SMOOTH",
"182 742 LINE",
"77 0 LINE"
);
},
{
closed = 1;
nodes = (
"172 355 LINE",
"354 355 LINE SMOOTH",
"469 355 OFFCURVE",
"553 319 OFFCURVE",
"553 221 CURVE SMOOTH",
"553 67 OFFCURVE",
"418 40 OFFCURVE",
"293 40 CURVE SMOOTH",
"129 40 LINE"
);
},
{
closed = 1;
nodes = (
"221 702 LINE",
"386 702 LINE SMOOTH",
"510 702 OFFCURVE",
"585 662 OFFCURVE",
"585 573 CURVE SMOOTH",
"585 452 OFFCURVE",
"485 395 OFFCURVE",
"357 395 CURVE SMOOTH",
"179 395 LINE"
);
}
);
width = 684;
}
);
rightKerningGroup = B;
unicode = 0042;
},
{
glyphname = C;
lastChange = "2016-11-06 13:02:13 +0000";
layers = (
{
anchors = (
{
name = bottom;
position = "{346, 0}";
},
{
name = top;
position = "{452, 742}";
}
);
background = {
anchors = (
{
name = bottom;
position = "{346, 0}";
},
{
name = top;
position = "{452, 742}";
}
);
paths = (
{
closed = 1;
nodes = (
"184 752 OFFCURVE",
"43 550 OFFCURVE",
"43 317 CURVE SMOOTH",
"43 125 OFFCURVE",
"157 -10 OFFCURVE",
"352 -10 CURVE SMOOTH",
"579 -10 OFFCURVE",
"687 162 OFFCURVE",
"703 210 CURVE SMOOTH",
"712 236 OFFCURVE",
"712 247 OFFCURVE",
"704 249 CURVE SMOOTH",
"569 281 LINE SMOOTH",
"553 285 OFFCURVE",
"544 283 OFFCURVE",
"538 270 CURVE SMOOTH",
"497 187 OFFCURVE",
"437 154 OFFCURVE",
"366 154 CURVE SMOOTH",
"306 154 OFFCURVE",
"275 185 OFFCURVE",
"275 276 CURVE SMOOTH",
"275 391 OFFCURVE",
"306 598 OFFCURVE",
"446 598 CURVE SMOOTH",
"508 598 OFFCURVE",
"525 559 OFFCURVE",
"529 506 CURVE SMOOTH",
"530 487 OFFCURVE",
"535 475 OFFCURVE",
"547 476 CURVE SMOOTH",
"716 486 LINE SMOOTH",
"731 487 OFFCURVE",
"735 495 OFFCURVE",
"734 511 CURVE SMOOTH",
"728 650 OFFCURVE",
"618 752 OFFCURVE",
"445 752 CURVE SMOOTH"
);
}
);
};
layerId = "258ED206-D907-4350-8EBA-CBDDA1C16BF7";
paths = (
{
closed = 1;
nodes = (
"184 752 OFFCURVE",
"43 550 OFFCURVE",
"43 317 CURVE SMOOTH",
"43 125 OFFCURVE",
"157 -10 OFFCURVE",
"352 -10 CURVE SMOOTH",
"587 -10 OFFCURVE",
"699 190 OFFCURVE",
"715 246 CURVE",
"546 286 LINE",
"503 192 OFFCURVE",
"440 154 OFFCURVE",
"366 154 CURVE SMOOTH",
"306 154 OFFCURVE",
"275 185 OFFCURVE",
"275 276 CURVE SMOOTH",
"275 391 OFFCURVE",
"306 598 OFFCURVE",
"446 598 CURVE SMOOTH",
"510 598 OFFCURVE",
"527 546 OFFCURVE",
"531 475 CURVE",
"735 487 LINE",
"729 640 OFFCURVE",
"619 752 OFFCURVE",
"445 752 CURVE SMOOTH"
);
}
);
width = 737;
},
{
anchors = (
{
name = bottom;
position = "{344, 0}";
},
{
name = top;
position = "{442, 742}";
}
);
background = {
anchors = (
{
name = bottom;
position = "{344, 0}";
},
{
name = top;
position = "{442, 742}";
}
);
guideLines = (
{
angle = 90;
position = "{636, 369}";
}
);
paths = (
{
closed = 1;
nodes = (
"184 753 OFFCURVE",
"86 491 OFFCURVE",
"86 276 CURVE SMOOTH",
"86 93 OFFCURVE",
"177 -10 OFFCURVE",
"344 -10 CURVE SMOOTH",
"464 -10 OFFCURVE",
"573 59 OFFCURVE",
"625 169 CURVE SMOOTH",
"627 174 OFFCURVE",
"625 177 OFFCURVE",
"622 178 CURVE SMOOTH",
"592 189 LINE SMOOTH",
"587 191 OFFCURVE",
"584 190 OFFCURVE",
"583 188 CURVE SMOOTH",
"529 81 OFFCURVE",
"453 32 OFFCURVE",
"348 32 CURVE SMOOTH",
"202 32 OFFCURVE",
"133 118 OFFCURVE",
"133 275 CURVE SMOOTH",
"133 472 OFFCURVE",
"216 710 OFFCURVE",
"440 710 CURVE SMOOTH",
"540 710 OFFCURVE",
"612 647 OFFCURVE",
"622 554 CURVE SMOOTH",
"623 547 OFFCURVE",
"625 544 OFFCURVE",
"629 544 CURVE SMOOTH",
"663 547 LINE SMOOTH",
"668 547 OFFCURVE",
"670 550 OFFCURVE",
"670 554 CURVE SMOOTH",
"672 658 OFFCURVE",
"567 752 OFFCURVE",
"444 752 CURVE SMOOTH"
);
}
);
};
guideLines = (
{
angle = 90;
position = "{636, 369}";
}
);
layerId = "91AB5BCA-6A50-42DA-B2F7-8181BF189245";
paths = (
{
closed = 1;
nodes = (
"184 753 OFFCURVE",
"86 491 OFFCURVE",
"86 276 CURVE SMOOTH",
"86 93 OFFCURVE",
"177 -10 OFFCURVE",
"344 -10 CURVE SMOOTH",
"465 -10 OFFCURVE",
"576 62 OFFCURVE",
"628 176 CURVE",
"585 192 LINE",
"530 82 OFFCURVE",
"454 32 OFFCURVE",
"348 32 CURVE SMOOTH",
"202 32 OFFCURVE",
"133 118 OFFCURVE",
"133 275 CURVE SMOOTH",
"133 472 OFFCURVE",
"216 710 OFFCURVE",
"440 710 CURVE SMOOTH",
"541 710 OFFCURVE",
"613 643 OFFCURVE",
"623 543 CURVE",
"670 548 LINE",
"672 655 OFFCURVE",
"567 752 OFFCURVE",
"444 752 CURVE SMOOTH"
);
}
);
width = 695;
}
);
leftKerningGroup = O;
rightKerningGroup = C;
unicode = 0043;
},
{
glyphname = D;
lastChange = "2016-11-06 13:02:13 +0000";
layers = (
{
anchors = (
{
name = center;
position = "{405, 371}";
},
{
name = top;
position = "{457, 742}";
}
);
background = {
anchors = (
{
name = center;
position = "{405, 371}";
},
{
name = top;
position = "{457, 742}";
}
);
paths = (
{
closed = 1;
nodes = (
"311 0 LINE SMOOTH",
"580 0 OFFCURVE",
"759 172 OFFCURVE",
"759 429 CURVE SMOOTH",
"759 609 OFFCURVE",
"632 742 OFFCURVE",
"391 742 CURVE SMOOTH",
"141 742 LINE SMOOTH",
"122 742 OFFCURVE",
"118 739 OFFCURVE",
"116 723 CURVE SMOOTH",
"20 36 LINE SMOOTH",
"17 14 OFFCURVE",
"28 0 OFFCURVE",
"48 0 CURVE SMOOTH"
);
},
{
closed = 1;
nodes = (
"270 157 OFFCURVE",
"266 164 OFFCURVE",
"268 176 CURVE SMOOTH",
"321 565 LINE SMOOTH",
"323 578 OFFCURVE",
"329 585 OFFCURVE",
"342 585 CURVE SMOOTH",
"401 585 LINE SMOOTH",
"476 585 OFFCURVE",
"523 536 OFFCURVE",
"523 442 CURVE SMOOTH",
"523 286 OFFCURVE",
"466 157 OFFCURVE",
"338 157 CURVE SMOOTH",
"281 157 LINE SMOOTH"
);
}
);
};
layerId = "258ED206-D907-4350-8EBA-CBDDA1C16BF7";
paths = (
{
closed = 1;
nodes = (
"311 0 LINE SMOOTH",
"580 0 OFFCURVE",
"759 172 OFFCURVE",
"759 429 CURVE SMOOTH",
"759 609 OFFCURVE",
"632 742 OFFCURVE",
"391 742 CURVE SMOOTH",
"119 742 LINE",
"15 0 LINE"
);
},
{
closed = 1;
nodes = (
"324 585 LINE",
"401 585 LINE SMOOTH",
"476 585 OFFCURVE",
"523 536 OFFCURVE",
"523 442 CURVE SMOOTH",
"523 286 OFFCURVE",
"466 157 OFFCURVE",
"338 157 CURVE SMOOTH",
"265 157 LINE"
);
}
);
width = 771;
},
{
anchors = (
{
name = center;
position = "{357, 371}";
},
{
name = top;
position = "{403, 742}";
}
);
background = {
anchors = (
{
name = center;
position = "{357, 371}";
},
{
name = top;
position = "{403, 742}";
}
);
paths = (
{
closed = 1;
nodes = (
"196 0 LINE SMOOTH",
"506 0 OFFCURVE",
"648 165 OFFCURVE",
"648 465 CURVE SMOOTH",
"648 652 OFFCURVE",
"544 742 OFFCURVE",
"304 742 CURVE SMOOTH",
"191 742 LINE SMOOTH",
"186 742 OFFCURVE",
"181 740 OFFCURVE",
"180 735 CURVE SMOOTH",
"78 11 LINE SMOOTH",
"77 4 OFFCURVE",
"81 0 OFFCURVE",
"87 0 CURVE SMOOTH"
);
},
{
closed = 1;
nodes = (
"133 40 OFFCURVE",
"129 42 OFFCURVE",
"131 53 CURVE SMOOTH",
"219 690 LINE SMOOTH",
"220 698 OFFCURVE",
"223 701 OFFCURVE",
"230 701 CURVE SMOOTH",
"293 701 LINE SMOOTH",
"500 701 OFFCURVE",
"600 644 OFFCURVE",
"600 465 CURVE SMOOTH",
"600 186 OFFCURVE",
"485 40 OFFCURVE",
"194 40 CURVE SMOOTH",
"141 40 LINE SMOOTH"
);
}
);
};
layerId = "91AB5BCA-6A50-42DA-B2F7-8181BF189245";
paths = (
{
closed = 1;
nodes = (
"196 0 LINE SMOOTH",
"506 0 OFFCURVE",
"648 165 OFFCURVE",
"648 465 CURVE SMOOTH",
"648 652 OFFCURVE",
"544 742 OFFCURVE",
"304 742 CURVE SMOOTH",
"181 742 LINE",
"76 0 LINE"
);
},
{
closed = 1;
nodes = (
"221 701 LINE",
"293 701 LINE SMOOTH",
"500 701 OFFCURVE",
"600 644 OFFCURVE",
"600 465 CURVE SMOOTH",
"600 186 OFFCURVE",
"485 40 OFFCURVE",
"194 40 CURVE SMOOTH",
"129 40 LINE"
);
}
);
width = 703;
}
);
rightKerningGroup = O;
unicode = 0044;
},
{
glyphname = Eth;
lastChange = "2016-11-06 13:02:13 +0000";
layers = (
{
background = {
components = (
{
name = D;
transform = "{1, 0, 0, 1, -17, 0}";
}
);
paths = (
{
closed = 1;
nodes = (
"434 420 OFFCURVE",
"425 434 OFFCURVE",
"414 434 CURVE SMOOTH",
"43 434 LINE SMOOTH",
"31 434 OFFCURVE",
"27 432 OFFCURVE",
"25 417 CURVE SMOOTH",
"12 324 LINE SMOOTH",
"10 307 OFFCURVE",
"18 293 OFFCURVE",
"38 293 CURVE SMOOTH",
"387 293 LINE SMOOTH",
"410 293 OFFCURVE",
"416 295 OFFCURVE",
"419 315 CURVE SMOOTH",
"432 408 LINE SMOOTH"
);
}
);
};
components = (
{
name = D;
transform = "{1, 0, 0, 1, -17, 0}";
}
);
layerId = "258ED206-D907-4350-8EBA-CBDDA1C16BF7";
paths = (
{
closed = 1;
nodes = (
"27 434 LINE",
"8 293 LINE",
"416 293 LINE",
"436 434 LINE"
);
}
);
width = 754;
},
{
background = {
components = (
{
name = D;
transform = "{1, 0, 0, 1, -37, 0}";
}
);
paths = (
{
closed = 1;
nodes = (
"340 391 OFFCURVE",
"337 395 OFFCURVE",
"332 395 CURVE SMOOTH",
"39 395 LINE SMOOTH",
"34 395 OFFCURVE",
"33 393 OFFCURVE",
"32 387 CURVE SMOOTH",
"29 364 LINE SMOOTH",
"28 357 OFFCURVE",
"30 353 OFFCURVE",
"38 353 CURVE SMOOTH",
"322 353 LINE SMOOTH",
"331 353 OFFCURVE",
"335 355 OFFCURVE",
"336 363 CURVE SMOOTH",
"339 386 LINE SMOOTH"
);
}
);
};
components = (
{
name = D;
transform = "{1, 0, 0, 1, -37, 0}";
}
);
layerId = "91AB5BCA-6A50-42DA-B2F7-8181BF189245";
paths = (
{
closed = 1;
nodes = (
"33 395 LINE",
"28 353 LINE",
"335 353 LINE",
"340 395 LINE"
);
}
);
width = 666;
}
);
rightKerningGroup = O;
rightMetricsKey = D;
unicode = 00D0;
},
{
glyphname = E;
lastChange = "2016-11-06 13:02:13 +0000";
layers = (
{
anchors = (
{
name = bottom;
position = "{299, 0}";
},
{
name = ogonek;
position = "{574, 10}";
},
{
name = top;
position = "{403, 742}";
}
);
background = {
anchors = (
{
name = bottom;
position = "{299, 0}";
},
{
name = ogonek;
position = "{574, 10}";
},
{
name = top;
position = "{403, 742}";
}
);
paths = (
{
closed = 1;
nodes = (
"19 31 LINE SMOOTH",
"16 10 OFFCURVE",
"22 0 OFFCURVE",
"43 0 CURVE SMOOTH",
"581 0 LINE SMOOTH",
"598 0 OFFCURVE",
"601 4 OFFCURVE",
"603 16 CURVE SMOOTH",
"620 145 LINE SMOOTH",
"622 159 OFFCURVE",
"620 164 OFFCURVE",
"606 164 CURVE SMOOTH",
"273 164 LINE SMOOTH",
"266 164 OFFCURVE",
"265 168 OFFCURVE",
"266 177 CURVE SMOOTH",
"280 276 LINE SMOOTH",
"282 288 OFFCURVE",
"285 292 OFFCURVE",
"295 292 CURVE SMOOTH",
"488 292 LINE SMOOTH",
"500 292 OFFCURVE",
"503 295 OFFCURVE",
"504 305 CURVE SMOOTH",
"522 436 LINE SMOOTH",
"524 448 OFFCURVE",
"522 453 OFFCURVE",
"508 453 CURVE SMOOTH",
"319 453 LINE SMOOTH",
"309 453 OFFCURVE",
"306 454 OFFCURVE",
"308 468 CURVE SMOOTH",
"321 560 LINE SMOOTH",
"323 575 OFFCURVE",
"328 578 OFFCURVE",
"340 578 CURVE SMOOTH",
"650 578 LINE SMOOTH",
"668 578 OFFCURVE",
"673 583 OFFCURVE",
"675 599 CURVE SMOOTH",
"692 715 LINE SMOOTH",
"695 733 OFFCURVE",
"690 742 OFFCURVE",
"678 742 CURVE SMOOTH",
"134 742 LINE SMOOTH",
"122 742 OFFCURVE",
"119 740 OFFCURVE",
"117 725 CURVE SMOOTH"
);
}
);
};
layerId = "258ED206-D907-4350-8EBA-CBDDA1C16BF7";
paths = (
{
closed = 1;
nodes = (
"15 0 LINE",
"601 0 LINE",
"622 164 LINE",
"264 164 LINE",
"282 292 LINE",
"502 292 LINE",
"524 453 LINE",
"306 453 LINE",
"324 578 LINE",
"672 578 LINE",
"696 742 LINE",
"119 742 LINE"
);
}
);
width = 671;
},
{
anchors = (
{
name = bottom;
position = "{327, 0}";
},
{
name = ogonek;
position = "{513, 10}";
},
{
name = top;
position = "{412, 742}";
}
);
background = {
anchors = (
{
name = bottom;
position = "{327, 0}";
},
{
name = ogonek;
position = "{513, 10}";
},
{
name = top;
position = "{412, 742}";
}
);
paths = (
{
closed = 1;
nodes = (
"78 11 LINE SMOOTH",
"77 3 OFFCURVE",
"80 0 OFFCURVE",
"87 0 CURVE SMOOTH",
"517 0 LINE SMOOTH",
"522 0 OFFCURVE",
"523 1 OFFCURVE",
"524 6 CURVE SMOOTH",
"527 32 LINE SMOOTH",
"528 38 OFFCURVE",
"525 40 OFFCURVE",
"519 40 CURVE SMOOTH",
"136 40 LINE SMOOTH",
"130 40 OFFCURVE",
"129 42 OFFCURVE",
"130 48 CURVE SMOOTH",
"171 345 LINE SMOOTH",
"172 353 OFFCURVE",
"174 355 OFFCURVE",
"181 355 CURVE SMOOTH",
"469 355 LINE SMOOTH",
"475 355 OFFCURVE",
"477 356 OFFCURVE",
"478 362 CURVE SMOOTH",
"482 387 LINE SMOOTH",
"483 392 OFFCURVE",
"482 395 OFFCURVE",
"477 395 CURVE SMOOTH",
"185 395 LINE SMOOTH",
"179 395 OFFCURVE",
"178 397 OFFCURVE",
"179 401 CURVE SMOOTH",
"220 694 LINE SMOOTH",
"221 700 OFFCURVE",
"223 702 OFFCURVE",
"230 702 CURVE SMOOTH",
"598 702 LINE SMOOTH",
"604 702 OFFCURVE",
"607 704 OFFCURVE",
"608 710 CURVE SMOOTH",
"611 734 LINE SMOOTH",
"612 739 OFFCURVE",
"611 742 OFFCURVE",
"606 742 CURVE SMOOTH",
"189 742 LINE SMOOTH",
"182 742 OFFCURVE",
"181 741 OFFCURVE",
"180 733 CURVE SMOOTH"
);
}
);
};
layerId = "91AB5BCA-6A50-42DA-B2F7-8181BF189245";
paths = (
{
closed = 1;
nodes = (
"76 0 LINE",
"523 0 LINE",
"528 40 LINE",
"129 40 LINE",
"172 355 LINE",
"477 355 LINE",
"483 395 LINE",
"178 395 LINE",
"221 702 LINE",
"607 702 LINE",
"612 742 LINE",
"181 742 LINE"
);
}
);
width = 612;
}
);
rightKerningGroup = E;
unicode = 0045;
},
{
glyphname = F;
lastChange = "2016-11-06 13:02:13 +0000";
layers = (
{
background = {
paths = (
{
closed = 1;
nodes = (
"19 31 LINE SMOOTH",
"15 4 OFFCURVE",
"17 0 OFFCURVE",
"38 0 CURVE SMOOTH",
"219 0 LINE SMOOTH",
"239 0 OFFCURVE",
"242 3 OFFCURVE",
"245 23 CURVE SMOOTH",
"279 265 LINE SMOOTH",
"282 284 OFFCURVE",
"285 286 OFFCURVE",
"295 286 CURVE SMOOTH",
"485 286 LINE SMOOTH",
"499 286 OFFCURVE",
"503 288 OFFCURVE",
"505 300 CURVE SMOOTH",
"524 432 LINE SMOOTH",
"525 443 OFFCURVE",
"523 445 OFFCURVE",
"512 445 CURVE SMOOTH",
"317 445 LINE SMOOTH",
"306 445 OFFCURVE",
"304 447 OFFCURVE",
"306 459 CURVE SMOOTH",
"320 556 LINE SMOOTH",
"322 574 OFFCURVE",
"325 578 OFFCURVE",
"335 578 CURVE SMOOTH",
"644 578 LINE SMOOTH",
"662 578 OFFCURVE",
"666 583 OFFCURVE",
"668 599 CURVE SMOOTH",
"686 723 LINE SMOOTH",
"688 737 OFFCURVE",
"686 742 OFFCURVE",
"675 742 CURVE SMOOTH",
"134 742 LINE SMOOTH",
"123 742 OFFCURVE",
"119 740 OFFCURVE",
"117 725 CURVE SMOOTH"
);
}
);
};
layerId = "258ED206-D907-4350-8EBA-CBDDA1C16BF7";
paths = (
{
closed = 1;
nodes = (
"15 0 LINE",
"242 0 LINE",
"282 286 LINE",
"503 286 LINE",
"526 445 LINE",
"304 445 LINE",
"323 578 LINE",
"665 578 LINE",
"689 742 LINE",
"119 742 LINE"
);
}
);
width = 650;
},
{
background = {
paths = (
{
closed = 1;
nodes = (
"78 11 LINE SMOOTH",
"77 3 OFFCURVE",
"77 0 OFFCURVE",
"84 0 CURVE SMOOTH",
"114 0 LINE SMOOTH",
"119 0 OFFCURVE",
"123 1 OFFCURVE",
"124 6 CURVE SMOOTH",
"169 332 LINE SMOOTH",
"171 340 OFFCURVE",
"172 342 OFFCURVE",
"179 342 CURVE SMOOTH",
"479 342 LINE SMOOTH",
"485 342 OFFCURVE",
"488 345 OFFCURVE",
"488 351 CURVE SMOOTH",
"490 375 LINE SMOOTH",
"490 380 OFFCURVE",
"488 382 OFFCURVE",
"483 382 CURVE SMOOTH",
"185 382 LINE SMOOTH",
"178 382 OFFCURVE",
"177 385 OFFCURVE",
"178 391 CURVE SMOOTH",
"220 692 LINE SMOOTH",
"221 700 OFFCURVE",
"224 702 OFFCURVE",
"231 702 CURVE SMOOTH",
"589 702 LINE SMOOTH",
"595 702 OFFCURVE",
"597 704 OFFCURVE",
"598 710 CURVE SMOOTH",
"601 734 LINE SMOOTH",
"602 739 OFFCURVE",
"599 742 OFFCURVE",
"594 742 CURVE SMOOTH",
"190 742 LINE SMOOTH",
"183 742 OFFCURVE",
"181 741 OFFCURVE",
"180 732 CURVE SMOOTH"
);
}
);
};
layerId = "91AB5BCA-6A50-42DA-B2F7-8181BF189245";
paths = (
{
closed = 1;
nodes = (
"76 0 LINE",
"123 0 LINE",
"170 342 LINE",
"487 342 LINE",
"491 382 LINE",
"177 382 LINE",
"221 702 LINE",
"597 702 LINE",
"602 742 LINE",
"181 742 LINE"
);
}
);
width = 583;
}
);
rightKerningGroup = F;
unicode = 0046;
},
{
glyphname = G;
lastChange = "2016-11-06 13:02:13 +0000";
layers = (
{
anchors = (
{
name = bottom;
position = "{345, 0}";
},
{
name = top;
position = "{449, 742}";
}
);
background = {
anchors = (
{
name = bottom;
position = "{345, 0}";
},
{
name = top;
position = "{449, 742}";
}
);
paths = (
{
closed = 1;
nodes = (
"463 -10 OFFCURVE",
"521 38 OFFCURVE",
"556 73 CURVE SMOOTH",
"566 83 OFFCURVE",
"575 85 OFFCURVE",
"580 76 CURVE SMOOTH",
"610 17 LINE SMOOTH",
"616 4 OFFCURVE",
"623 0 OFFCURVE",
"635 0 CURVE SMOOTH",
"670 0 LINE SMOOTH",
"680 0 OFFCURVE",
"687 5 OFFCURVE",
"688 14 CURVE SMOOTH",
"736 354 LINE SMOOTH",
"738 371 OFFCURVE",
"735 375 OFFCURVE",
"715 375 CURVE SMOOTH",
"409 377 LINE SMOOTH",
"401 377 OFFCURVE",
"398 373 OFFCURVE",
"397 364 CURVE SMOOTH",
"385 258 LINE SMOOTH",
"384 246 OFFCURVE",
"386 242 OFFCURVE",
"395 242 CURVE SMOOTH",
"491 242 LINE SMOOTH",
"505 242 OFFCURVE",
"507 237 OFFCURVE",
"501 228 CURVE SMOOTH",
"496 220 LINE SMOOTH",
"469 176 OFFCURVE",
"431 146 OFFCURVE",
"371 146 CURVE SMOOTH",
"313 146 OFFCURVE",
"275 172 OFFCURVE",
"275 274 CURVE SMOOTH",
"275 413 OFFCURVE",
"316 597 OFFCURVE",
"443 597 CURVE SMOOTH",
"511 597 OFFCURVE",
"533 553 OFFCURVE",
"543 503 CURVE SMOOTH",
"548 477 OFFCURVE",
"551 471 OFFCURVE",
"558 472 CURVE SMOOTH",
"735 497 LINE SMOOTH",
"743 498 OFFCURVE",
"744 506 OFFCURVE",
"744 522 CURVE SMOOTH",
"738 635 OFFCURVE",
"637 752 OFFCURVE",
"453 752 CURVE SMOOTH",
"210 752 OFFCURVE",
"41 556 OFFCURVE",
"41 308 CURVE SMOOTH",
"41 118 OFFCURVE",
"157 -10 OFFCURVE",
"349 -10 CURVE SMOOTH"
);
}
);
};
layerId = "258ED206-D907-4350-8EBA-CBDDA1C16BF7";
paths = (
{
closed = 1;
nodes = (
"472 -10 OFFCURVE",
"535 48 OFFCURVE",
"573 90 CURVE",
"619 0 LINE",
"686 0 LINE",
"739 375 LINE",
"398 377 LINE",
"383 242 LINE",
"510 242 LINE",
"496 220 LINE SMOOTH",
"469 176 OFFCURVE",
"431 146 OFFCURVE",
"371 146 CURVE SMOOTH",
"313 146 OFFCURVE",
"275 172 OFFCURVE",
"275 274 CURVE SMOOTH",
"275 413 OFFCURVE",
"316 597 OFFCURVE",
"443 597 CURVE SMOOTH",
"515 597 OFFCURVE",
"539 538 OFFCURVE",
"549 471 CURVE",
"745 498 LINE",
"739 623 OFFCURVE",
"638 752 OFFCURVE",
"453 752 CURVE SMOOTH",
"210 752 OFFCURVE",
"41 556 OFFCURVE",
"41 308 CURVE SMOOTH",
"41 118 OFFCURVE",
"157 -10 OFFCURVE",
"349 -10 CURVE SMOOTH"
);
}
);
width = 761;
},
{
anchors = (
{
name = bottom;
position = "{342, 0}";
},
{
name = top;
position = "{441, 742}";
}
);
background = {
anchors = (
{
name = bottom;
position = "{342, 0}";
},
{
name = top;
position = "{441, 742}";
}
);
paths = (
{
closed = 1;
nodes = (
"446 -10 OFFCURVE",
"531 45 OFFCURVE",
"575 116 CURVE SMOOTH",
"580 123 OFFCURVE",
"584 123 OFFCURVE",
"583 116 CURVE SMOOTH",
"568 10 LINE SMOOTH",
"567 2 OFFCURVE",
"570 0 OFFCURVE",
"579 0 CURVE SMOOTH",
"596 0 LINE SMOOTH",
"604 0 OFFCURVE",
"607 2 OFFCURVE",
"608 10 CURVE SMOOTH",
"659 370 LINE SMOOTH",
"660 374 OFFCURVE",
"657 377 OFFCURVE",
"653 377 CURVE SMOOTH",
"417 377 LINE SMOOTH",
"414 377 OFFCURVE",
"413 376 OFFCURVE",
"412 372 CURVE SMOOTH",
"409 349 LINE SMOOTH",
"408 343 OFFCURVE",
"411 342 OFFCURVE",
"416 342 CURVE SMOOTH",
"605 342 LINE SMOOTH",
"613 342 OFFCURVE",
"615 341 OFFCURVE",
"614 334 CURVE SMOOTH",
"603 256 LINE SMOOTH",
"590 162 OFFCURVE",
"498 32 OFFCURVE",
"339 32 CURVE SMOOTH",
"203 32 OFFCURVE",
"134 117 OFFCURVE",
"134 275 CURVE SMOOTH",
"134 499 OFFCURVE",
"232 710 OFFCURVE",
"439 710 CURVE SMOOTH",
"544 710 OFFCURVE",
"618 640 OFFCURVE",
"621 553 CURVE SMOOTH",
"621 545 OFFCURVE",
"622 542 OFFCURVE",
"627 543 CURVE SMOOTH",
"664 549 LINE SMOOTH",
"668 550 OFFCURVE",
"669 551 OFFCURVE",
"669 557 CURVE SMOOTH",
"671 662 OFFCURVE",
"564 752 OFFCURVE",
"440 752 CURVE SMOOTH",
"208 752 OFFCURVE",
"86 524 OFFCURVE",
"86 276 CURVE SMOOTH",
"86 94 OFFCURVE",
"176 -10 OFFCURVE",
"336 -10 CURVE SMOOTH"
);
}
);
};
layerId = "91AB5BCA-6A50-42DA-B2F7-8181BF189245";
paths = (
{
closed = 1;
nodes = (
"451 -10 OFFCURVE",
"539 52 OFFCURVE",
"585 133 CURVE",
"567 0 LINE",
"607 0 LINE",
"660 377 LINE",
"413 377 LINE",
"408 342 LINE",
"615 342 LINE",
"603 256 LINE SMOOTH",
"590 162 OFFCURVE",
"498 32 OFFCURVE",
"339 32 CURVE SMOOTH",
"203 32 OFFCURVE",
"134 117 OFFCURVE",
"134 275 CURVE SMOOTH",
"134 499 OFFCURVE",
"232 710 OFFCURVE",
"439 710 CURVE SMOOTH",
"544 710 OFFCURVE",
"618 635 OFFCURVE",
"621 542 CURVE",
"669 550 LINE",
"671 659 OFFCURVE",
"564 752 OFFCURVE",
"440 752 CURVE SMOOTH",
"208 752 OFFCURVE",
"86 524 OFFCURVE",
"86 276 CURVE SMOOTH",
"86 94 OFFCURVE",
"176 -10 OFFCURVE",
"336 -10 CURVE SMOOTH"
);
}
);
width = 730;
}
);
leftKerningGroup = O;
rightKerningGroup = G;
unicode = 0047;
},
{
glyphname = H;
lastChange = "2016-11-06 13:02:13 +0000";
layers = (
{
anchors = (
{
name = bottom;
position = "{341, 0}";
},
{
name = top;
position = "{447, 742}";
}
);
background = {
anchors = (
{
name = bottom;
position = "{341, 0}";
},
{
name = top;
position = "{447, 742}";
}
);
paths = (
{
closed = 1;
nodes = (
"481 297 OFFCURVE",
"487 296 OFFCURVE",
"486 288 CURVE SMOOTH",
"450 28 LINE SMOOTH",
"447 7 OFFCURVE",
"452 0 OFFCURVE",
"475 0 CURVE SMOOTH",
"650 0 LINE SMOOTH",
"671 0 OFFCURVE",
"673 2 OFFCURVE",
"675 19 CURVE SMOOTH",
"773 713 LINE SMOOTH",
"776 737 OFFCURVE",
"773 742 OFFCURVE",
"763 742 CURVE SMOOTH",
"566 742 LINE SMOOTH",
"555 742 OFFCURVE",
"550 740 OFFCURVE",
"548 727 CURVE SMOOTH",
"515 495 LINE SMOOTH",
"513 482 OFFCURVE",
"509 469 OFFCURVE",
"498 469 CURVE SMOOTH",
"322 469 LINE SMOOTH",
"311 469 OFFCURVE",
"308 473 OFFCURVE",
"310 486 CURVE SMOOTH",
"343 725 LINE SMOOTH",
"345 738 OFFCURVE",
"344 742 OFFCURVE",
"333 742 CURVE SMOOTH",
"134 742 LINE SMOOTH",
"123 742 OFFCURVE",
"119 740 OFFCURVE",
"117 725 CURVE SMOOTH",
"18 22 LINE SMOOTH",
"16 5 OFFCURVE",
"17 0 OFFCURVE",
"38 0 CURVE SMOOTH",
"213 0 LINE SMOOTH",
"236 0 OFFCURVE",
"242 2 OFFCURVE",
"245 23 CURVE SMOOTH",
"281 276 LINE SMOOTH",
"283 293 OFFCURVE",
"289 297 OFFCURVE",
"299 297 CURVE SMOOTH",
"471 297 LINE SMOOTH"
);
}
);
};
layerId = "258ED206-D907-4350-8EBA-CBDDA1C16BF7";
paths = (
{
closed = 1;
nodes = (
"446 0 LINE",
"672 0 LINE",
"777 742 LINE",
"550 742 LINE",
"511 469 LINE",
"308 469 LINE",
"345 742 LINE",
"119 742 LINE",
"15 0 LINE",
"242 0 LINE",
"284 297 LINE",
"487 297 LINE"
);
}
);
width = 762;
},
{
anchors = (
{
name = bottom;
position = "{326, 0}";
},
{
name = top;
position = "{430, 742}";
}
);
background = {
anchors = (
{
name = bottom;
position = "{326, 0}";
},
{
name = top;
position = "{430, 742}";
}
);
paths = (
{
closed = 1;
nodes = (
"578 366 OFFCURVE",
"579 365 OFFCURVE",
"578 360 CURVE SMOOTH",
"529 10 LINE SMOOTH",
"528 3 OFFCURVE",
"532 0 OFFCURVE",
"539 0 CURVE SMOOTH",
"566 0 LINE SMOOTH",
"572 0 OFFCURVE",
"574 2 OFFCURVE",
"575 9 CURVE SMOOTH",
"676 731 LINE SMOOTH",
"678 739 OFFCURVE",
"675 742 OFFCURVE",
"668 742 CURVE SMOOTH",
"639 742 LINE SMOOTH",
"633 742 OFFCURVE",
"632 740 OFFCURVE",
"631 734 CURVE SMOOTH",
"586 415 LINE SMOOTH",
"585 409 OFFCURVE",
"582 406 OFFCURVE",
"576 406 CURVE SMOOTH",
"188 406 LINE SMOOTH",
"181 406 OFFCURVE",
"180 406 OFFCURVE",
"181 414 CURVE SMOOTH",
"225 731 LINE SMOOTH",
"227 739 OFFCURVE",
"224 742 OFFCURVE",
"217 742 CURVE SMOOTH",
"189 742 LINE SMOOTH",
"182 742 OFFCURVE",
"181 741 OFFCURVE",
"180 733 CURVE SMOOTH",
"78 11 LINE SMOOTH",
"77 4 OFFCURVE",
"80 0 OFFCURVE",
"87 0 CURVE SMOOTH",
"114 0 LINE SMOOTH",
"121 0 OFFCURVE",
"123 2 OFFCURVE",
"124 8 CURVE SMOOTH",
"173 359 LINE SMOOTH",
"174 362 OFFCURVE",
"177 366 OFFCURVE",
"181 366 CURVE SMOOTH",
"573 366 LINE SMOOTH"
);
}
);
};
layerId = "91AB5BCA-6A50-42DA-B2F7-8181BF189245";
paths = (
{
closed = 1;
nodes = (
"528 0 LINE",
"574 0 LINE",
"678 742 LINE",
"632 742 LINE",
"585 406 LINE",
"180 406 LINE",
"227 742 LINE",
"181 742 LINE",
"76 0 LINE",
"123 0 LINE",
"174 366 LINE",
"579 366 LINE"
);
}
);
width = 725;
}
);
unicode = 0048;
},
{
glyphname = Hbar;
lastChange = "2016-11-06 13:02:13 +0000";
layers = (
{
background = {
components = (
{
name = H;
transform = "{1, 0, 0, 1, -12, 0}";
}
);
paths = (
{
closed = 1;
nodes = (
"852 645 OFFCURVE",
"844 658 OFFCURVE",
"834 658 CURVE SMOOTH",
"67 658 LINE SMOOTH",
"57 658 OFFCURVE",
"55 657 OFFCURVE",
"53 644 CURVE SMOOTH",
"45 583 LINE SMOOTH",
"43 568 OFFCURVE",
"50 555 OFFCURVE",
"67 555 CURVE SMOOTH",
"815 555 LINE SMOOTH",
"835 555 OFFCURVE",
"840 556 OFFCURVE",
"842 573 CURVE SMOOTH",
"851 634 LINE SMOOTH"
);
}
);
};
components = (
{
name = H;
transform = "{1, 0, 0, 1, -12, 0}";
}
);
layerId = "258ED206-D907-4350-8EBA-CBDDA1C16BF7";
paths = (
{
closed = 1;
nodes = (
"55 658 LINE",
"41 555 LINE",
"839 555 LINE",
"855 658 LINE"
);
}
);
width = 799;
},
{
background = {
components = (
{
name = H;
transform = "{1, 0, 0, 1, -38, 0}";
}
);
paths = (
{
closed = 1;
nodes = (
"751 614 OFFCURVE",
"749 618 OFFCURVE",
"744 618 CURVE SMOOTH",
"61 618 LINE SMOOTH",
"56 618 OFFCURVE",
"54 616 OFFCURVE",
"53 610 CURVE SMOOTH",
"51 589 LINE SMOOTH",
"50 582 OFFCURVE",
"52 578 OFFCURVE",
"60 578 CURVE SMOOTH",
"734 578 LINE SMOOTH",
"743 578 OFFCURVE",
"746 580 OFFCURVE",
"747 588 CURVE SMOOTH",
"750 609 LINE SMOOTH"
);
}
);
};
components = (
{
name = H;
transform = "{1, 0, 0, 1, -38, 0}";
}
);
layerId = "91AB5BCA-6A50-42DA-B2F7-8181BF189245";
paths = (
{
closed = 1;
nodes = (
"54 618 LINE",
"50 578 LINE",
"746 578 LINE",
"751 618 LINE"
);
}
);
width = 707;
}
);
unicode = 0126;
},
{
glyphname = I;
lastChange = "2016-11-06 13:02:13 +0000";
layers = (
{
anchors = (
{
name = bottom;
position = "{128, 0}";
},
{
name = ogonek;
position = "{211, 10}";
},
{
name = top;
position = "{233, 742}";
}
);
background = {
anchors = (
{
name = bottom;
position = "{128, 0}";
},
{
name = ogonek;
position = "{211, 10}";
},
{
name = top;
position = "{233, 742}";
}
);
paths = (
{
closed = 1;
nodes = (
"123 742 OFFCURVE",
"119 740 OFFCURVE",
"117 725 CURVE SMOOTH",
"19 31 LINE SMOOTH",
"17 14 OFFCURVE",
"18 0 OFFCURVE",
"39 0 CURVE SMOOTH",
"213 0 LINE SMOOTH",
"236 0 OFFCURVE",
"242 2 OFFCURVE",
"245 23 CURVE SMOOTH",
"342 715 LINE SMOOTH",
"344 731 OFFCURVE",
"341 742 OFFCURVE",
"328 742 CURVE SMOOTH",
"134 742 LINE SMOOTH"
);
}
);
};
layerId = "258ED206-D907-4350-8EBA-CBDDA1C16BF7";
paths = (
{
closed = 1;
nodes = (
"15 0 LINE",
"242 0 LINE",
"346 742 LINE",
"119 742 LINE"
);
}
);
width = 331;
},
{
anchors = (
{
name = bottom;
position = "{100, 0}";
},
{
name = ogonek;
position = "{115, 11}";
},
{
name = top;
position = "{207, 742}";
}
);
background = {
anchors = (
{
name = bottom;
position = "{100, 0}";
},
{
name = ogonek;
position = "{115, 11}";
},
{
name = top;
position = "{207, 742}";
}
);
paths = (
{
closed = 1;
nodes = (
"182 742 OFFCURVE",
"181 741 OFFCURVE",
"180 733 CURVE SMOOTH",
"78 11 LINE SMOOTH",
"77 3 OFFCURVE",
"80 0 OFFCURVE",
"89 0 CURVE SMOOTH",
"112 0 LINE SMOOTH",
"122 0 OFFCURVE",
"123 1 OFFCURVE",
"124 11 CURVE SMOOTH",
"225 731 LINE SMOOTH",
"227 739 OFFCURVE",
"224 742 OFFCURVE",
"217 742 CURVE SMOOTH",
"189 742 LINE SMOOTH"
);
}
);
};
layerId = "91AB5BCA-6A50-42DA-B2F7-8181BF189245";
paths = (
{
closed = 1;
nodes = (
"76 0 LINE",
"122 0 LINE",
"227 742 LINE",
"181 742 LINE"
);
}
);
width = 274;
}
);
unicode = 0049;
},
{
glyphname = J;
lastChange = "2016-11-06 13:02:13 +0000";
layers = (
{
anchors = (
{
name = top;
position = "{310, 742}";
}
);
background = {
anchors = (
{
name = top;
position = "{310, 742}";
}
);
paths = (
{
closed = 1;
nodes = (
"483 715 LINE SMOOTH",
"486 733 OFFCURVE",
"483 742 OFFCURVE",
"471 742 CURVE SMOOTH",
"276 742 LINE SMOOTH",
"264 742 OFFCURVE",
"260 740 OFFCURVE",
"258 725 CURVE SMOOTH",
"194 274 LINE SMOOTH",
"185 206 OFFCURVE",
"147 175 OFFCURVE",
"94 175 CURVE SMOOTH",
"76 175 OFFCURVE",
"60 177 OFFCURVE",
"40 180 CURVE SMOOTH",
"29 182 OFFCURVE",
"24 177 OFFCURVE",
"21 162 CURVE SMOOTH",
"-7 31 LINE SMOOTH",
"-10 16 OFFCURVE",
"-3 12 OFFCURVE",
"23 5 CURVE SMOOTH",
"64 -6 OFFCURVE",
"106 -10 OFFCURVE",
"151 -10 CURVE SMOOTH",
"303 -10 OFFCURVE",
"389 42 OFFCURVE",
"412 206 CURVE SMOOTH"
);
}
);
};
layerId = "258ED206-D907-4350-8EBA-CBDDA1C16BF7";
paths = (
{
closed = 1;
nodes = (
"487 742 LINE",
"260 742 LINE",
"194 274 LINE SMOOTH",
"185 206 OFFCURVE",
"147 175 OFFCURVE",
"94 175 CURVE SMOOTH",
"71 175 OFFCURVE",
"51 178 OFFCURVE",
"25 182 CURVE",
"-11 14 LINE",
"41 -4 OFFCURVE",
"94 -10 OFFCURVE",
"151 -10 CURVE SMOOTH",
"303 -10 OFFCURVE",
"389 42 OFFCURVE",
"412 206 CURVE SMOOTH"
);
}
);
width = 467;
},
{
anchors = (
{
name = top;
position = "{333, 742}";
}
);
background = {
anchors = (
{
name = top;
position = "{333, 742}";
}
);
paths = (
{
closed = 1;
nodes = (
"354 731 LINE SMOOTH",
"355 738 OFFCURVE",
"353 742 OFFCURVE",
"347 742 CURVE SMOOTH",
"317 742 LINE SMOOTH",
"311 742 OFFCURVE",
"310 740 OFFCURVE",
"309 734 CURVE SMOOTH",
"228 155 LINE SMOOTH",
"215 67 OFFCURVE",
"190 34 OFFCURVE",
"124 34 CURVE SMOOTH",
"83 34 OFFCURVE",
"54 47 OFFCURVE",
"40 54 CURVE SMOOTH",
"30 59 OFFCURVE",
"28 58 OFFCURVE",
"27 55 CURVE SMOOTH",
"12 25 LINE SMOOTH",
"10 21 OFFCURVE",
"13 18 OFFCURVE",
"18 15 CURVE SMOOTH",
"25 11 OFFCURVE",
"64 -10 OFFCURVE",
"121 -10 CURVE SMOOTH",
"217 -10 OFFCURVE",
"259 48 OFFCURVE",
"272 143 CURVE SMOOTH"
);
}
);
};
layerId = "91AB5BCA-6A50-42DA-B2F7-8181BF189245";
paths = (
{
closed = 1;
nodes = (
"356 742 LINE",
"310 742 LINE",
"228 155 LINE SMOOTH",
"215 67 OFFCURVE",
"190 34 OFFCURVE",
"124 34 CURVE SMOOTH",
"78 34 OFFCURVE",
"45 51 OFFCURVE",
"29 59 CURVE",
"9 20 LINE",
"17 15 OFFCURVE",
"59 -10 OFFCURVE",
"121 -10 CURVE SMOOTH",
"217 -10 OFFCURVE",
"259 48 OFFCURVE",
"272 143 CURVE SMOOTH"
);
}
);
width = 399;
}
);
leftKerningGroup = J;
rightKerningGroup = J;
unicode = 004A;
},
{
glyphname = K;
lastChange = "2016-11-06 13:02:13 +0000";
layers = (
{
anchors = (
{
name = bottom;
position = "{334, 0}";
},
{
name = top;
position = "{438, 742}";
}
);
background = {
anchors = (
{
name = bottom;
position = "{334, 0}";
},
{
name = top;
position = "{438, 742}";
}
);
paths = (
{
closed = 1;
nodes = (
"554 475 LINE SMOOTH",
"551 489 OFFCURVE",
"556 496 OFFCURVE",
"566 507 CURVE SMOOTH",
"768 718 LINE SMOOTH",
"782 732 OFFCURVE",
"778 742 OFFCURVE",
"756 742 CURVE SMOOTH",
"584 742 LINE SMOOTH",
"560 742 OFFCURVE",
"554 741 OFFCURVE",
"541 726 CURVE SMOOTH",
"319 468 LINE",
"311 458 OFFCURVE",
"304 446 OFFCURVE",
"307 462 CURVE SMOOTH",
"342 715 LINE SMOOTH",
"344 728 OFFCURVE",
"336 742 OFFCURVE",
"324 742 CURVE SMOOTH",
"134 742 LINE SMOOTH",
"123 742 OFFCURVE",
"119 740 OFFCURVE",
"117 725 CURVE SMOOTH",
"19 31 LINE SMOOTH",
"17 14 OFFCURVE",
"20 0 OFFCURVE",
"37 0 CURVE SMOOTH",
"213 0 LINE SMOOTH",
"236 0 OFFCURVE",
"243 6 OFFCURVE",
"245 23 CURVE SMOOTH",
"266 174 LINE SMOOTH",
"268 184 OFFCURVE",
"273 192 OFFCURVE",
"279 198 CURVE SMOOTH",
"363 288 LINE SMOOTH",
"373 301 OFFCURVE",
"381 313 OFFCURVE",
"385 303 CURVE SMOOTH",
"469 25 LINE SMOOTH",
"472 10 OFFCURVE",
"480 0 OFFCURVE",
"497 0 CURVE SMOOTH",
"692 0 LINE SMOOTH",
"712 0 OFFCURVE",
"715 10 OFFCURVE",
"709 26 CURVE SMOOTH"
);
}
);
};
layerId = "258ED206-D907-4350-8EBA-CBDDA1C16BF7";
paths = (
{
closed = 1;
nodes = (
"549 489 LINE",
"791 742 LINE",
"555 742 LINE",
"306 453 LINE",
"346 742 LINE",
"119 742 LINE",
"15 0 LINE",
"242 0 LINE",
"268 186 LINE",
"383 310 LINE",
"477 0 LINE",
"718 0 LINE"
);
}
);
width = 772;
},
{
anchors = (
{
name = bottom;
position = "{306, 0}";
},
{
name = top;
position = "{440, 742}";
}
);
background = {
anchors = (
{
name = bottom;
position = "{306, 0}";
},
{
name = top;
position = "{440, 742}";
}
);
paths = (
{
closed = 1;
nodes = (
"367 444 LINE SMOOTH",
"365 448 OFFCURVE",
"368 448 OFFCURVE",
"370 450 CURVE SMOOTH",
"669 733 LINE SMOOTH",
"673 737 OFFCURVE",
"673 742 OFFCURVE",
"667 742 CURVE SMOOTH",
"629 742 LINE SMOOTH",
"623 742 OFFCURVE",
"618 741 OFFCURVE",
"614 737 CURVE SMOOTH",
"174 323 LINE SMOOTH",
"168 318 OFFCURVE",
"167 316 OFFCURVE",
"168 322 CURVE SMOOTH",
"226 733 LINE SMOOTH",
"227 739 OFFCURVE",
"223 742 OFFCURVE",
"218 742 CURVE SMOOTH",
"188 742 LINE SMOOTH",
"182 742 OFFCURVE",
"181 740 OFFCURVE",
"180 735 CURVE SMOOTH",
"78 10 LINE SMOOTH",
"77 3 OFFCURVE",
"81 0 OFFCURVE",
"88 0 CURVE SMOOTH",
"114 0 LINE SMOOTH",
"121 0 OFFCURVE",
"123 2 OFFCURVE",
"124 8 CURVE SMOOTH",
"157 245 LINE SMOOTH",
"158 253 OFFCURVE",
"162 256 OFFCURVE",
"169 262 CURVE SMOOTH",
"321 408 LINE SMOOTH",
"327 413 OFFCURVE",
"330 416 OFFCURVE",
"333 410 CURVE SMOOTH",
"535 6 LINE SMOOTH",
"536 3 OFFCURVE",
"539 0 OFFCURVE",
"544 0 CURVE SMOOTH",
"583 0 LINE SMOOTH",
"587 0 OFFCURVE",
"588 3 OFFCURVE",
"584 10 CURVE SMOOTH"
);
}
);
};
layerId = "91AB5BCA-6A50-42DA-B2F7-8181BF189245";
paths = (
{
closed = 1;
nodes = (
"366 446 LINE",
"679 742 LINE",
"619 742 LINE",
"167 317 LINE",
"227 742 LINE",
"181 742 LINE",
"77 0 LINE",
"123 0 LINE",
"158 251 LINE",
"330 416 LINE",
"538 0 LINE",
"589 0 LINE"
);
}
);
width = 674;
}
);
rightKerningGroup = K;
unicode = 004B;
},
{
glyphname = L;
lastChange = "2016-11-06 13:02:13 +0000";
layers = (
{
anchors = (
{
name = bottom;
position = "{277, 0}";
},
{
name = top;
position = "{235, 742}";
},
{
name = topright;
position = "{577, 742}";
}
);
background = {
anchors = (
{
name = bottom;
position = "{277, 0}";
},
{
name = top;
position = "{235, 742}";
},
{
name = topright;
position = "{577, 742}";
}
);
paths = (
{
closed = 1;
nodes = (
"19 31 LINE SMOOTH",
"17 11 OFFCURVE",
"25 0 OFFCURVE",
"43 0 CURVE SMOOTH",
"557 0 LINE SMOOTH",
"573 0 OFFCURVE",
"578 3 OFFCURVE",
"580 16 CURVE SMOOTH",
"597 139 LINE SMOOTH",
"599 155 OFFCURVE",
"594 164 OFFCURVE",
"582 164 CURVE SMOOTH",
"278 164 LINE SMOOTH",
"269 164 OFFCURVE",
"265 170 OFFCURVE",
"267 181 CURVE SMOOTH",
"342 715 LINE SMOOTH",
"345 732 OFFCURVE",
"340 742 OFFCURVE",
"330 742 CURVE SMOOTH",
"134 742 LINE SMOOTH",
"123 742 OFFCURVE",
"118 737 OFFCURVE",
"116 722 CURVE SMOOTH"
);
}
);
};
layerId = "258ED206-D907-4350-8EBA-CBDDA1C16BF7";
paths = (
{
closed = 1;
nodes = (
"15 0 LINE",
"578 0 LINE",
"600 164 LINE",
"265 164 LINE",
"346 742 LINE",
"119 742 LINE"
);
}
);
width = 643;
},
{
anchors = (
{
name = bottom;
position = "{282, 0}";
},
{
name = top;
position = "{204, 742}";
},
{
name = topright;
position = "{490, 742}";
}
);
background = {
anchors = (
{
name = bottom;
position = "{282, 0}";
},
{
name = top;
position = "{204, 742}";
},
{
name = topright;
position = "{490, 742}";
}
);
paths = (
{
closed = 1;
nodes = (
"78 11 LINE SMOOTH",
"77 4 OFFCURVE",
"80 0 OFFCURVE",
"87 0 CURVE SMOOTH",
"497 0 LINE SMOOTH",
"502 0 OFFCURVE",
"503 1 OFFCURVE",
"504 6 CURVE SMOOTH",
"507 32 LINE SMOOTH",
"508 38 OFFCURVE",
"506 40 OFFCURVE",
"499 40 CURVE SMOOTH",
"136 40 LINE SMOOTH",
"129 40 OFFCURVE",
"128 41 OFFCURVE",
"130 48 CURVE SMOOTH",
"225 731 LINE SMOOTH",
"226 738 OFFCURVE",
"226 742 OFFCURVE",
"219 742 CURVE SMOOTH",
"191 742 LINE SMOOTH",
"184 742 OFFCURVE",
"181 741 OFFCURVE",
"180 733 CURVE SMOOTH"
);
}
);
};
layerId = "91AB5BCA-6A50-42DA-B2F7-8181BF189245";
paths = (
{
closed = 1;
nodes = (
"76 0 LINE",
"503 0 LINE",
"508 40 LINE",
"129 40 LINE",
"227 742 LINE",
"181 742 LINE"
);
}
);
width = 587;
}
);
rightKerningGroup = L;
unicode = 004C;
},
{
glyphname = Lslash;
lastChange = "2016-11-06 13:02:13 +0000";
layers = (
{
background = {
components = (
{
name = L;
transform = "{1, 0, 0, 1, -37, 0}";
}
);
paths = (
{
closed = 1;
nodes = (
"448 544 OFFCURVE",
"439 558 OFFCURVE",
"422 554 CURVE SMOOTH",
"1 445 LINE SMOOTH",
"-11 442 OFFCURVE",
"-14 442 OFFCURVE",
"-16 427 CURVE SMOOTH",
"-33 307 LINE SMOOTH",
"-35 290 OFFCURVE",
"-28 275 OFFCURVE",
"-7 281 CURVE SMOOTH",
"411 395 LINE SMOOTH",
"426 399 OFFCURVE",
"428 403 OFFCURVE",
"430 415 CURVE SMOOTH",
"446 528 LINE SMOOTH"
);
}
);
};
components = (
{
name = L;
transform = "{1, 0, 0, 1, -37, 0}";
}
);
layerId = "258ED206-D907-4350-8EBA-CBDDA1C16BF7";
paths = (
{
closed = 1;
nodes = (
"-14 441 LINE",
"-38 273 LINE",
"428 400 LINE",
"451 561 LINE"
);
}
);
width = 606;
},
{
background = {
components = (
{
name = L;
transform = "{1, 0, 0, 1, -37, 0}";
}
);
paths = (
{
closed = 1;
nodes = (
"351 435 OFFCURVE",
"348 438 OFFCURVE",
"343 437 CURVE SMOOTH",
"51 365 LINE SMOOTH",
"48 364 OFFCURVE",
"47 362 OFFCURVE",
"46 357 CURVE SMOOTH",
"43 333 LINE SMOOTH",
"42 328 OFFCURVE",
"45 326 OFFCURVE",
"50 327 CURVE SMOOTH",
"341 400 LINE SMOOTH",
"345 401 OFFCURVE",
"346 403 OFFCURVE",
"347 407 CURVE SMOOTH",
"350 431 LINE SMOOTH"
);
}
);
};
components = (
{
name = L;
transform = "{1, 0, 0, 1, -37, 0}";
}
);
layerId = "91AB5BCA-6A50-42DA-B2F7-8181BF189245";
paths = (
{
closed = 1;
nodes = (
"47 364 LINE",
"42 325 LINE",
"346 401 LINE",
"351 439 LINE"
);
}
);
width = 550;
}
);
rightMetricsKey = L;
unicode = 0141;
},
{
glyphname = M;
lastChange = "2016-11-06 13:02:13 +0000";
layers = (
{
background = {
paths = (
{
closed = 1;
nodes = (
"178 0 LINE SMOOTH",
"191 0 OFFCURVE",
"196 3 OFFCURVE",
"198 16 CURVE SMOOTH",
"262 467 LINE SMOOTH",
"264 479 OFFCURVE",
"273 480 OFFCURVE",
"276 465 CURVE SMOOTH",
"357 23 LINE SMOOTH",
"361 4 OFFCURVE",
"368 0 OFFCURVE",
"380 0 CURVE SMOOTH",
"485 0 LINE SMOOTH",
"496 0 OFFCURVE",
"502 2 OFFCURVE",
"508 13 CURVE SMOOTH",
"717 468 LINE SMOOTH",
"723 481 OFFCURVE",
"729 481 OFFCURVE",
"727 470 CURVE SMOOTH",
"665 31 LINE SMOOTH",
"661 6 OFFCURVE",
"671 0 OFFCURVE",
"691 0 CURVE SMOOTH",
"860 0 LINE SMOOTH",
"883 0 OFFCURVE",
"888 2 OFFCURVE",
"891 23 CURVE SMOOTH",
"990 726 LINE SMOOTH",
"992 737 OFFCURVE",
"988 742 OFFCURVE",
"977 742 CURVE SMOOTH",
"681 742 LINE SMOOTH",
"667 742 OFFCURVE",
"661 736 OFFCURVE",
"654 718 CURVE SMOOTH",
"513 403 LINE SMOOTH",
"510 396 OFFCURVE",
"504 395 OFFCURVE",
"503 403 CURVE SMOOTH",
"443 719 LINE SMOOTH",
"440 733 OFFCURVE",
"433 742 OFFCURVE",
"416 742 CURVE SMOOTH",
"136 742 LINE SMOOTH",
"121 742 OFFCURVE",
"119 741 OFFCURVE",
"117 725 CURVE SMOOTH",
"20 34 LINE SMOOTH",
"16 5 OFFCURVE",
"19 0 OFFCURVE",
"35 0 CURVE SMOOTH"
);
}
);
};
layerId = "258ED206-D907-4350-8EBA-CBDDA1C16BF7";
paths = (
{
closed = 1;
nodes = (
"196 0 LINE",
"268 509 LINE",
"361 0 LINE",
"502 0 LINE",
"731 499 LINE",
"661 0 LINE",
"888 0 LINE",
"992 742 LINE",
"665 742 LINE",
"506 387 LINE",
"439 742 LINE",
"119 742 LINE",
"15 0 LINE"
);
}
);
width = 977;
},
{
background = {
guideLines = (
{
position = "{43, 566}";
showMeasurement = 1;
}
);
paths = (
{
closed = 1;
nodes = (
"112 0 LINE SMOOTH",
"119 0 OFFCURVE",
"121 2 OFFCURVE",
"122 8 CURVE SMOOTH",
"208 620 LINE SMOOTH",
"209 624 OFFCURVE",
"211 624 OFFCURVE",
"212 620 CURVE SMOOTH",
"370 11 LINE SMOOTH",
"372 2 OFFCURVE",
"374 0 OFFCURVE",
"382 0 CURVE SMOOTH",
"415 0 LINE SMOOTH",
"424 0 OFFCURVE",
"427 2 OFFCURVE",
"431 10 CURVE SMOOTH",
"767 624 LINE SMOOTH",
"768 626 OFFCURVE",
"770 627 OFFCURVE",
"769 622 CURVE SMOOTH",
"683 10 LINE SMOOTH",
"682 3 OFFCURVE",
"686 0 OFFCURVE",
"693 0 CURVE SMOOTH",
"720 0 LINE SMOOTH",
"726 0 OFFCURVE",
"728 2 OFFCURVE",
"729 9 CURVE SMOOTH",
"830 731 LINE SMOOTH",
"831 739 OFFCURVE",
"829 742 OFFCURVE",
"822 742 CURVE SMOOTH",
"793 742 LINE SMOOTH",
"787 742 OFFCURVE",
"785 741 OFFCURVE",
"782 736 CURVE SMOOTH",
"416 66 LINE SMOOTH",
"409 52 OFFCURVE",
"404 50 OFFCURVE",
"401 63 CURVE SMOOTH",
"226 736 LINE SMOOTH",
"225 740 OFFCURVE",
"223 742 OFFCURVE",
"218 742 CURVE SMOOTH",
"189 742 LINE SMOOTH",
"182 742 OFFCURVE",
"181 741 OFFCURVE",
"180 733 CURVE SMOOTH",
"78 11 LINE SMOOTH",
"77 2 OFFCURVE",
"77 0 OFFCURVE",
"84 0 CURVE SMOOTH"
);
}
);
};
guideLines = (
{
position = "{43, 566}";
showMeasurement = 1;
}
);
layerId = "91AB5BCA-6A50-42DA-B2F7-8181BF189245";
paths = (
{
closed = 1;
nodes = (
"121 0 LINE",
"209 630 LINE",
"373 0 LINE",
"426 0 LINE",
"770 630 LINE",
"682 0 LINE",
"728 0 LINE",
"832 742 LINE",
"785 742 LINE",
"405 46 LINE",
"224 742 LINE",
"181 742 LINE",
"76 0 LINE"
);
}
);
width = 879;
}
);
unicode = 004D;
},
{
glyphname = N;
lastChange = "2016-11-06 13:02:13 +0000";
layers = (
{
anchors = (
{
name = bottom;
position = "{344, 0}";
},
{
name = top;
position = "{448, 742}";
}
);
background = {
anchors = (
{
name = bottom;
position = "{344, 0}";
},
{
name = top;
position = "{448, 742}";
}
);
paths = (
{
closed = 1;
nodes = (
"597 742 OFFCURVE",
"594 740 OFFCURVE",
"592 727 CURVE SMOOTH",
"545 392 LINE SMOOTH",
"543 377 OFFCURVE",
"533 375 OFFCURVE",
"526 387 CURVE SMOOTH",
"331 719 LINE SMOOTH",
"323 733 OFFCURVE",
"316 742 OFFCURVE",
"300 742 CURVE SMOOTH",
"137 742 LINE SMOOTH",
"122 742 OFFCURVE",
"119 740 OFFCURVE",
"117 725 CURVE SMOOTH",
"18 26 LINE SMOOTH",
"16 11 OFFCURVE",
"19 0 OFFCURVE",
"34 0 CURVE SMOOTH",
"178 0 LINE SMOOTH",
"196 0 OFFCURVE",
"200 3 OFFCURVE",
"202 19 CURVE SMOOTH",
"254 385 LINE SMOOTH",
"256 400 OFFCURVE",
"263 400 OFFCURVE",
"267 393 CURVE SMOOTH",
"492 20 LINE SMOOTH",
"500 7 OFFCURVE",
"506 0 OFFCURVE",
"516 0 CURVE SMOOTH",
"653 0 LINE SMOOTH",
"666 0 OFFCURVE",
"672 2 OFFCURVE",
"673 12 CURVE SMOOTH",
"774 726 LINE SMOOTH",
"775 736 OFFCURVE",
"772 742 OFFCURVE",
"762 742 CURVE SMOOTH",
"612 742 LINE SMOOTH"
);
}
);
};
layerId = "258ED206-D907-4350-8EBA-CBDDA1C16BF7";
paths = (
{
closed = 1;
nodes = (
"541 362 LINE",
"317 742 LINE",
"119 742 LINE",
"14 0 LINE",
"199 0 LINE",
"257 409 LINE",
"504 0 LINE",
"671 0 LINE",
"776 742 LINE",
"594 742 LINE"
);
}
);
width = 761;
},
{
anchors = (
{
name = bottom;
position = "{322, 0}";
},
{
name = top;
position = "{461, 742}";
}
);
background = {
anchors = (
{
name = bottom;
position = "{322, 0}";
},
{
name = top;
position = "{461, 742}";
}
);
guideLines = (
{
position = "{48, 576}";
showMeasurement = 1;
}
);
paths = (
{
closed = 1;
nodes = (
"665 742 OFFCURVE",
"664 740 OFFCURVE",
"663 734 CURVE SMOOTH",
"575 108 LINE SMOOTH",
"573 94 OFFCURVE",
"565 93 OFFCURVE",
"559 104 CURVE SMOOTH",
"221 734 LINE SMOOTH",
"218 740 OFFCURVE",
"215 742 OFFCURVE",
"207 742 CURVE SMOOTH",
"189 742 LINE SMOOTH",
"182 742 OFFCURVE",
"181 741 OFFCURVE",
"180 733 CURVE SMOOTH",
"78 11 LINE SMOOTH",
"77 4 OFFCURVE",
"80 0 OFFCURVE",
"87 0 CURVE SMOOTH",
"112 0 LINE SMOOTH",
"119 0 OFFCURVE",
"121 2 OFFCURVE",
"122 8 CURVE SMOOTH",
"210 636 LINE SMOOTH",
"211 646 OFFCURVE",
"218 648 OFFCURVE",
"223 638 CURVE SMOOTH",
"563 7 LINE SMOOTH",
"567 0 OFFCURVE",
"573 0 OFFCURVE",
"581 0 CURVE SMOOTH",
"596 0 LINE SMOOTH",
"602 0 OFFCURVE",
"604 2 OFFCURVE",
"605 9 CURVE SMOOTH",
"706 731 LINE SMOOTH",
"707 739 OFFCURVE",
"705 742 OFFCURVE",
"698 742 CURVE SMOOTH",
"671 742 LINE SMOOTH"
);
}
);
};
guideLines = (
{
position = "{48, 576}";
showMeasurement = 1;
}
);
layerId = "91AB5BCA-6A50-42DA-B2F7-8181BF189245";
paths = (
{
closed = 1;
nodes = (
"571 81 LINE",
"217 742 LINE",
"181 742 LINE",
"76 0 LINE",
"121 0 LINE",
"213 657 LINE",
"567 0 LINE",
"604 0 LINE",
"708 742 LINE",
"664 742 LINE"
);
}
);
width = 755;
}
);
unicode = 004E;
},
{
glyphname = Eng;
lastChange = "2016-11-06 13:02:13 +0000";
layers = (
{
background = {
guideLines = (
{
angle = 82.0656;
position = "{572, 584}";
}
);
paths = (
{
closed = 1;
nodes = (
"612 742 LINE SMOOTH",
"597 742 OFFCURVE",
"594 740 OFFCURVE",
"592 727 CURVE SMOOTH",
"552 440 LINE SMOOTH",
"550 423 OFFCURVE",
"539 415 OFFCURVE",
"532 426 CURVE SMOOTH",
"331 719 LINE SMOOTH",
"323 734 OFFCURVE",
"314 742 OFFCURVE",
"297 742 CURVE SMOOTH",
"137 742 LINE SMOOTH",
"122 742 OFFCURVE",
"119 737 OFFCURVE",
"117 724 CURVE SMOOTH",
"18 26 LINE SMOOTH",
"16 11 OFFCURVE",
"29 0 OFFCURVE",
"44 0 CURVE SMOOTH",
"180 0 LINE SMOOTH",
"198 0 OFFCURVE",
"201 0 OFFCURVE",
"202 16 CURVE",
"253 380 LINE SMOOTH",
"255 395 OFFCURVE",
"263 399 OFFCURVE",
"268 392 CURVE SMOOTH",
"480 73 LINE",
"478 63 LINE SMOOTH",
"467 10 OFFCURVE",
"454 -13 OFFCURVE",
"401 -13 CURVE SMOOTH",
"383 -13 OFFCURVE",
"322 -6 OFFCURVE",
"302 -2 CURVE SMOOTH",
"291 0 OFFCURVE",
"287 -2 OFFCURVE",
"284 -17 CURVE SMOOTH",
"261 -114 LINE SMOOTH",
"256 -142 OFFCURVE",
"268 -158 OFFCURVE",
"294 -161 CURVE SMOOTH",
"334 -170 OFFCURVE",
"377 -175 OFFCURVE",
"422 -175 CURVE SMOOTH",
"570 -175 OFFCURVE",
"655 -120 OFFCURVE",
"678 41 CURVE SMOOTH",
"773 719 LINE SMOOTH",
"775 733 OFFCURVE",
"770 742 OFFCURVE",
"757 742 CURVE SMOOTH"
);
}
);
};
guideLines = (
{
angle = 82.0656;
position = "{572, 584}";
}
);
layerId = "258ED206-D907-4350-8EBA-CBDDA1C16BF7";
paths = (
{
closed = 1;
nodes = (
"594 742 LINE",
"547 404 LINE",
"315 742 LINE",
"120 742 LINE",
"14 0 LINE",
"200 0 LINE",
"257 409 LINE",
"480 73 LINE",
"478 63 LINE SMOOTH",
"467 10 OFFCURVE",
"454 -13 OFFCURVE",
"401 -13 CURVE SMOOTH",
"380 -13 OFFCURVE",
"311 -4 OFFCURVE",
"288 1 CURVE",
"252 -152 LINE",
"305 -167 OFFCURVE",
"362 -175 OFFCURVE",
"422 -175 CURVE SMOOTH",
"570 -175 OFFCURVE",
"655 -120 OFFCURVE",
"678 41 CURVE SMOOTH",
"776 742 LINE"
);
}
);
width = 761;
},
{
background = {
paths = (
{
closed = 1;
nodes = (
"672 742 LINE SMOOTH",
"666 742 OFFCURVE",
"665 740 OFFCURVE",
"664 734 CURVE SMOOTH",
"576 108 LINE SMOOTH",
"575 102 OFFCURVE",
"566 93 OFFCURVE",
"560 103 CURVE SMOOTH",
"223 734 LINE SMOOTH",
"220 740 OFFCURVE",
"217 742 OFFCURVE",
"210 742 CURVE SMOOTH",
"189 742 LINE SMOOTH",
"182 742 OFFCURVE",
"181 741 OFFCURVE",
"180 733 CURVE SMOOTH",
"78 11 LINE SMOOTH",
"77 4 OFFCURVE",
"80 0 OFFCURVE",
"87 0 CURVE SMOOTH",
"112 0 LINE SMOOTH",
"119 0 OFFCURVE",
"121 2 OFFCURVE",
"122 8 CURVE SMOOTH",
"211 639 LINE SMOOTH",
"212 647 OFFCURVE",
"215 651 OFFCURVE",
"221 641 CURVE SMOOTH",
"559 12 LINE",
"552 -40 LINE SMOOTH",
"542 -111 OFFCURVE",
"507 -135 OFFCURVE",
"452 -135 CURVE SMOOTH",
"423 -135 OFFCURVE",
"400 -128 OFFCURVE",
"383 -123 CURVE SMOOTH",
"380 -120 OFFCURVE",
"379 -120 OFFCURVE",
"377 -125 CURVE",
"371 -150 LINE",
"370 -154 OFFCURVE",
"372 -157 OFFCURVE",
"375 -159 CURVE SMOOTH",
"381 -164 OFFCURVE",
"412 -175 OFFCURVE",
"454 -175 CURVE SMOOTH",
"547 -175 OFFCURVE",
"586 -125 OFFCURVE",
"597 -47 CURVE SMOOTH",
"706 731 LINE SMOOTH",
"708 739 OFFCURVE",
"705 742 OFFCURVE",
"698 742 CURVE SMOOTH"
);
}
);
};
layerId = "91AB5BCA-6A50-42DA-B2F7-8181BF189245";
paths = (
{
closed = 1;
nodes = (
"665 742 LINE",
"572 80 LINE",
"219 742 LINE",
"181 742 LINE",
"76 0 LINE",
"121 0 LINE",
"213 655 LINE",
"559 12 LINE",
"552 -40 LINE SMOOTH",
"542 -111 OFFCURVE",
"507 -135 OFFCURVE",
"452 -135 CURVE SMOOTH",
"421 -135 OFFCURVE",
"396 -127 OFFCURVE",
"378 -121 CURVE",
"370 -155 LINE",
"376 -161 OFFCURVE",
"409 -175 OFFCURVE",
"454 -175 CURVE SMOOTH",
"547 -175 OFFCURVE",
"586 -125 OFFCURVE",
"597 -47 CURVE SMOOTH",
"708 742 LINE"
);
}
);
width = 755;
}
);
leftMetricsKey = N;
rightMetricsKey = N;
unicode = 014A;
},
{
glyphname = O;
lastChange = "2016-11-06 13:02:13 +0000";
layers = (
{
anchors = (
{
name = bottom;
position = "{355, 0}";
},
{
name = ogonek;
position = "{447, 10}";
},
{
name = top;
position = "{457, 742}";
},
{
name = topright;
position = "{495, 740}";
}
);
background = {
anchors = (
{
name = bottom;
position = "{355, 0}";
},
{
name = ogonek;
position = "{447, 10}";
},
{
name = top;
position = "{457, 742}";
},
{
name = topright;
position = "{495, 740}";
}
);
paths = (
{
closed = 1;
nodes = (
"574 -10 OFFCURVE",
"730 133 OFFCURVE",
"762 358 CURVE SMOOTH",
"766 383 OFFCURVE",
"767 408 OFFCURVE",
"767 431 CURVE SMOOTH",
"767 627 OFFCURVE",
"647 752 OFFCURVE",
"451 752 CURVE SMOOTH",
"238 752 OFFCURVE",
"79 607 OFFCURVE",
"47 380 CURVE SMOOTH",
"43 354 OFFCURVE",
"42 329 OFFCURVE",
"42 306 CURVE SMOOTH",
"42 112 OFFCURVE",
"160 -10 OFFCURVE",
"360 -10 CURVE SMOOTH"
);
},
{
closed = 1;
nodes = (
"302 146 OFFCURVE",
"274 177 OFFCURVE",
"274 260 CURVE SMOOTH",
"274 286 OFFCURVE",
"277 318 OFFCURVE",
"282 355 CURVE SMOOTH",
"306 525 OFFCURVE",
"355 598 OFFCURVE",
"446 598 CURVE SMOOTH",
"508 598 OFFCURVE",
"535 563 OFFCURVE",
"535 476 CURVE SMOOTH",
"535 448 OFFCURVE",
"532 415 OFFCURVE",
"527 377 CURVE SMOOTH",
"504 212 OFFCURVE",
"457 146 OFFCURVE",
"366 146 CURVE SMOOTH"
);
}
);
};
layerId = "258ED206-D907-4350-8EBA-CBDDA1C16BF7";
paths = (
{
closed = 1;
nodes = (
"574 -10 OFFCURVE",
"730 133 OFFCURVE",
"762 358 CURVE SMOOTH",
"766 383 OFFCURVE",
"767 408 OFFCURVE",
"767 431 CURVE SMOOTH",
"767 627 OFFCURVE",
"647 752 OFFCURVE",
"451 752 CURVE SMOOTH",
"238 752 OFFCURVE",
"79 607 OFFCURVE",
"47 380 CURVE SMOOTH",
"43 354 OFFCURVE",
"42 329 OFFCURVE",
"42 306 CURVE SMOOTH",
"42 112 OFFCURVE",
"160 -10 OFFCURVE",
"360 -10 CURVE SMOOTH"
);
},
{
closed = 1;
nodes = (
"302 146 OFFCURVE",
"274 177 OFFCURVE",
"274 260 CURVE SMOOTH",
"274 286 OFFCURVE",
"277 318 OFFCURVE",
"282 355 CURVE SMOOTH",
"306 525 OFFCURVE",
"355 598 OFFCURVE",
"446 598 CURVE SMOOTH",
"508 598 OFFCURVE",
"535 563 OFFCURVE",
"535 476 CURVE SMOOTH",
"535 448 OFFCURVE",
"532 415 OFFCURVE",
"527 377 CURVE SMOOTH",
"504 212 OFFCURVE",
"457 146 OFFCURVE",
"366 146 CURVE SMOOTH"
);
}
);
width = 780;
},
{
anchors = (
{
name = bottom;
position = "{344, 0}";
},
{
name = ogonek;
position = "{415, 9}";
},
{
name = top;
position = "{446, 742}";
},
{
name = topright;
position = "{399, 742}";
}
);
background = {
anchors = (
{
name = bottom;
position = "{344, 0}";
},
{
name = ogonek;
position = "{415, 9}";
},
{
name = top;
position = "{446, 742}";
},
{
name = topright;
position = "{399, 742}";
}
);
guideLines = (
{
angle = 90;
position = "{-576, 431}";
},
{
angle = 90;
position = "{381, 640}";
}
);
paths = (
{
closed = 1;
nodes = (
"529 -10 OFFCURVE",
"660 121 OFFCURVE",
"694 367 CURVE SMOOTH",
"699 401 OFFCURVE",
"701 433 OFFCURVE",
"701 463 CURVE SMOOTH",
"701 652 OFFCURVE",
"608 752 OFFCURVE",
"446 752 CURVE SMOOTH",
"259 752 OFFCURVE",
"128 618 OFFCURVE",
"93 369 CURVE SMOOTH",
"88 335 OFFCURVE",
"86 303 OFFCURVE",
"86 273 CURVE SMOOTH",
"86 88 OFFCURVE",
"178 -10 OFFCURVE",
"342 -10 CURVE SMOOTH"
);
},
{
closed = 1;
nodes = (
"206 32 OFFCURVE",
"133 111 OFFCURVE",
"133 273 CURVE SMOOTH",
"133 301 OFFCURVE",
"135 333 OFFCURVE",
"140 367 CURVE SMOOTH",
"173 596 OFFCURVE",
"279 710 OFFCURVE",
"445 710 CURVE SMOOTH",
"582 710 OFFCURVE",
"654 631 OFFCURVE",
"654 470 CURVE SMOOTH",
"654 440 OFFCURVE",
"652 407 OFFCURVE",
"647 371 CURVE SMOOTH",
"615 143 OFFCURVE",
"512 32 OFFCURVE",
"346 32 CURVE SMOOTH"
);
}
);
};
guideLines = (
{
angle = 90;
position = "{-576, 431}";
},
{
angle = 90;
position = "{381, 640}";
}
);
layerId = "91AB5BCA-6A50-42DA-B2F7-8181BF189245";
paths = (
{
closed = 1;
nodes = (
"529 -10 OFFCURVE",
"660 121 OFFCURVE",
"694 367 CURVE SMOOTH",
"699 401 OFFCURVE",
"701 433 OFFCURVE",
"701 463 CURVE SMOOTH",
"701 652 OFFCURVE",
"608 752 OFFCURVE",
"446 752 CURVE SMOOTH",
"259 752 OFFCURVE",
"128 618 OFFCURVE",
"93 369 CURVE SMOOTH",
"88 335 OFFCURVE",
"86 303 OFFCURVE",
"86 273 CURVE SMOOTH",
"86 88 OFFCURVE",
"178 -10 OFFCURVE",
"342 -10 CURVE SMOOTH"
);
},
{
closed = 1;
nodes = (
"206 32 OFFCURVE",
"133 111 OFFCURVE",
"133 273 CURVE SMOOTH",
"133 301 OFFCURVE",
"135 333 OFFCURVE",
"140 367 CURVE SMOOTH",
"173 596 OFFCURVE",
"279 710 OFFCURVE",
"445 710 CURVE SMOOTH",
"582 710 OFFCURVE",
"654 631 OFFCURVE",
"654 470 CURVE SMOOTH",
"654 440 OFFCURVE",
"652 407 OFFCURVE",
"647 371 CURVE SMOOTH",
"615 143 OFFCURVE",
"512 32 OFFCURVE",
"346 32 CURVE SMOOTH"
);
}
);
width = 758;
}
);
leftKerningGroup = O;
rightKerningGroup = O;
unicode = 004F;
},
{
glyphname = Oslash;
lastChange = "2016-11-06 13:06:38 +0000";
layers = (
{
anchors = (
{
name = top;
position = "{460, 742}";
}
);
background = {
anchors = (
{
name = top;
position = "{460, 742}";
}
);
paths = (
{
closed = 1;
nodes = (
"784 738 LINE SMOOTH",
"779 746 OFFCURVE",
"767 752 OFFCURVE",
"755 741 CURVE SMOOTH",
"679 670 LINE",
"627 720 OFFCURVE",
"551 752 OFFCURVE",
"454 752 CURVE SMOOTH",
"241 752 OFFCURVE",
"82 607 OFFCURVE",
"50 380 CURVE SMOOTH",
"37 289 OFFCURVE",
"48 214 OFFCURVE",
"74 154 CURVE",
"-8 88 LINE SMOOTH",
"-21 76 OFFCURVE",
"-15 66 OFFCURVE",
"-2 51 CURVE SMOOTH",
"32 11 LINE SMOOTH",
"45 -5 OFFCURVE",
"56 -12 OFFCURVE",
"73 3 CURVE SMOOTH",
"141 66 LINE",
"192 19 OFFCURVE",
"267 -10 OFFCURVE",
"363 -10 CURVE SMOOTH",
"577 -10 OFFCURVE",
"733 133 OFFCURVE",
"765 358 CURVE SMOOTH",
"778 447 OFFCURVE",
"767 521 OFFCURVE",
"742 580 CURVE",
"834 655 LINE",
"844 664 OFFCURVE",
"838 674 OFFCURVE",
"832 682 CURVE SMOOTH"
);
},
{
closed = 1;
nodes = (
"309 525 OFFCURVE",
"358 598 OFFCURVE",
"449 598 CURVE SMOOTH",
"489 598 OFFCURVE",
"516 585 OFFCURVE",
"529 544 CURVE",
"280 324 LINE",
"282 336 OFFCURVE",
"284 348 OFFCURVE",
"285 355 CURVE"
);
},
{
closed = 1;
nodes = (
"507 212 OFFCURVE",
"460 146 OFFCURVE",
"369 146 CURVE SMOOTH",
"329 146 OFFCURVE",
"302 156 OFFCURVE",
"287 190 CURVE",
"534 409 LINE",
"533 397 OFFCURVE",
"531 385 OFFCURVE",
"530 377 CURVE SMOOTH"
);
}
);
};
layerId = "258ED206-D907-4350-8EBA-CBDDA1C16BF7";
paths = (
{
closed = 1;
nodes = (
"141 66 LINE",
"192 19 OFFCURVE",
"267 -10 OFFCURVE",
"363 -10 CURVE SMOOTH",
"577 -10 OFFCURVE",
"733 133 OFFCURVE",
"765 358 CURVE SMOOTH",
"778 447 OFFCURVE",
"767 521 OFFCURVE",
"742 580 CURVE",
"846 665 LINE",
"770 755 LINE",
"679 670 LINE",
"627 720 OFFCURVE",
"551 752 OFFCURVE",
"454 752 CURVE SMOOTH",
"241 752 OFFCURVE",
"82 607 OFFCURVE",
"50 380 CURVE SMOOTH",
"37 289 OFFCURVE",
"48 214 OFFCURVE",
"74 154 CURVE",
"-23 76 LINE",
"54 -15 LINE"
);
},
{
closed = 1;
nodes = (
"329 146 OFFCURVE",
"302 156 OFFCURVE",
"287 190 CURVE",
"535 409 LINE",
"533 390 OFFCURVE",
"530 372 OFFCURVE",
"527 355 CURVE SMOOTH",
"501 207 OFFCURVE",
"453 146 OFFCURVE",
"369 146 CURVE SMOOTH"
);
},
{
closed = 1;
nodes = (
"284 352 OFFCURVE",
"288 377 OFFCURVE",
"293 400 CURVE SMOOTH",
"320 538 OFFCURVE",
"369 598 OFFCURVE",
"449 598 CURVE SMOOTH",
"489 598 OFFCURVE",
"516 585 OFFCURVE",
"529 544 CURVE",
"281 325 LINE"
);
}
);
width = 786;
},
{
anchors = (
{
name = top;
position = "{422, 742}";
}
);
background = {
anchors = (
{
name = top;
position = "{422, 742}";
}
);
paths = (
{
closed = 1;
nodes = (
"726 748 LINE",
"721 752 OFFCURVE",
"717 752 OFFCURVE",
"713 747 CURVE",
"625 658 LINE",
"582 719 OFFCURVE",
"513 752 OFFCURVE",
"421 752 CURVE SMOOTH",
"234 752 OFFCURVE",
"103 618 OFFCURVE",
"68 369 CURVE SMOOTH",
"53 267 OFFCURVE",
"62 185 OFFCURVE",
"89 124 CURVE",
"-10 27 LINE",
"-15 22 OFFCURVE",
"-13 19 OFFCURVE",
"-7 12 CURVE SMOOTH",
"8 -4 LINE",
"15 -10 OFFCURVE",
"20 -12 OFFCURVE",
"27 -4 CURVE",
"112 82 LINE",
"155 22 OFFCURVE",
"224 -10 OFFCURVE",
"317 -10 CURVE SMOOTH",
"504 -10 OFFCURVE",
"635 121 OFFCURVE",
"669 367 CURVE SMOOTH",
"684 471 OFFCURVE",
"676 554 OFFCURVE",
"648 616 CURVE",
"749 715 LINE",
"753 719 OFFCURVE",
"750 723 OFFCURVE",
"748 726 CURVE"
);
},
{
closed = 1;
nodes = (
"151 596 OFFCURVE",
"253 709 OFFCURVE",
"419 709 CURVE SMOOTH",
"500 709 OFFCURVE",
"559 682 OFFCURVE",
"593 626 CURVE",
"125 160 LINE",
"109 213 OFFCURVE",
"106 282 OFFCURVE",
"118 367 CURVE SMOOTH"
);
},
{
closed = 1;
nodes = (
"587 143 OFFCURVE",
"487 33 OFFCURVE",
"321 33 CURVE SMOOTH",
"239 33 OFFCURVE",
"180 60 OFFCURVE",
"145 116 CURVE",
"612 581 LINE",
"629 527 OFFCURVE",
"631 457 OFFCURVE",
"619 371 CURVE SMOOTH"
);
}
);
};
layerId = "91AB5BCA-6A50-42DA-B2F7-8181BF189245";
paths = (
{
closed = 1;
nodes = (
"112 82 LINE",
"155 22 OFFCURVE",
"224 -10 OFFCURVE",
"317 -10 CURVE SMOOTH",
"504 -10 OFFCURVE",
"635 121 OFFCURVE",
"669 367 CURVE SMOOTH",
"684 471 OFFCURVE",
"676 554 OFFCURVE",
"648 616 CURVE",
"754 720 LINE",
"720 754 LINE",
"625 658 LINE",
"582 719 OFFCURVE",
"513 752 OFFCURVE",
"421 752 CURVE SMOOTH",
"234 752 OFFCURVE",
"103 618 OFFCURVE",
"68 369 CURVE SMOOTH",
"53 267 OFFCURVE",
"62 185 OFFCURVE",
"89 124 CURVE",
"-16 21 LINE",
"17 -14 LINE"
);
},
{
closed = 1;
nodes = (
"239 33 OFFCURVE",
"180 60 OFFCURVE",
"145 116 CURVE",
"612 581 LINE",
"629 527 OFFCURVE",
"631 457 OFFCURVE",
"619 371 CURVE SMOOTH",
"587 143 OFFCURVE",
"487 33 OFFCURVE",
"321 33 CURVE SMOOTH"
);
},
{
closed = 1;
nodes = (
"109 213 OFFCURVE",
"106 282 OFFCURVE",
"118 367 CURVE SMOOTH",
"151 596 OFFCURVE",
"253 709 OFFCURVE",
"419 709 CURVE SMOOTH",
"500 709 OFFCURVE",
"559 682 OFFCURVE",
"593 626 CURVE",
"125 160 LINE"
);
}
);
width = 708;
}
);
unicode = 00D8;
},
{
glyphname = OE;
lastChange = "2016-11-06 13:02:13 +0000";
layers = (
{
background = {
paths = (
{
closed = 1;
nodes = (
"732 164 LINE SMOOTH",
"723 164 OFFCURVE",
"723 161 OFFCURVE",
"725 172 CURVE SMOOTH",
"739 272 LINE SMOOTH",
"740 280 OFFCURVE",
"752 292 OFFCURVE",
"762 292 CURVE SMOOTH",
"947 292 LINE SMOOTH",
"960 292 OFFCURVE",
"961 294 OFFCURVE",
"962 303 CURVE SMOOTH",
"980 427 LINE SMOOTH",
"982 440 OFFCURVE",
"972 453 OFFCURVE",
"958 453 CURVE SMOOTH",
"778 453 LINE SMOOTH",
"768 453 OFFCURVE",
"765 454 OFFCURVE",
"767 468 CURVE SMOOTH",
"778 553 LINE SMOOTH",
"780 566 OFFCURVE",
"794 578 OFFCURVE",
"809 578 CURVE SMOOTH",
"1109 578 LINE SMOOTH",
"1127 578 OFFCURVE",
"1132 583 OFFCURVE",
"1134 599 CURVE SMOOTH",
"1151 715 LINE SMOOTH",
"1153 728 OFFCURVE",
"1145 742 OFFCURVE",
"1133 742 CURVE SMOOTH",
"669 742 LINE",
"662 742 OFFCURVE",
"655 742 OFFCURVE",
"648 742 CURVE",
"607 741 LINE",
"573 748 OFFCURVE",
"530 752 OFFCURVE",
"475 752 CURVE SMOOTH",
"238 752 OFFCURVE",
"79 607 OFFCURVE",
"47 380 CURVE SMOOTH",
"14 144 OFFCURVE",
"135 -10 OFFCURVE",
"372 -10 CURVE SMOOTH",
"424 -10 OFFCURVE",
"472 -8 OFFCURVE",
"511 -1 CURVE",
"561 0 LINE",
"568 0 OFFCURVE",
"575 0 OFFCURVE",
"582 0 CURVE",
"1040 0 LINE SMOOTH",
"1057 0 OFFCURVE",
"1060 4 OFFCURVE",
"1062 16 CURVE SMOOTH",
"1079 139 LINE SMOOTH",
"1081 153 OFFCURVE",
"1071 164 OFFCURVE",
"1057 164 CURVE SMOOTH"
);
},
{
closed = 1;
nodes = (
"281 146 OFFCURVE",
"260 200 OFFCURVE",
"282 355 CURVE SMOOTH",
"306 525 OFFCURVE",
"355 598 OFFCURVE",
"446 598 CURVE SMOOTH",
"527 598 OFFCURVE",
"549 537 OFFCURVE",
"527 377 CURVE SMOOTH",
"504 212 OFFCURVE",
"457 146 OFFCURVE",
"366 146 CURVE SMOOTH"
);
}
);
};
layerId = "258ED206-D907-4350-8EBA-CBDDA1C16BF7";
paths = (
{
closed = 1;
nodes = (
"724 164 LINE",
"742 292 LINE",
"960 292 LINE",
"984 453 LINE",
"765 453 LINE",
"781 578 LINE",
"1131 578 LINE",
"1155 742 LINE",
"648 742 LINE",
"607 741 LINE",
"573 748 OFFCURVE",
"530 752 OFFCURVE",
"475 752 CURVE SMOOTH",
"238 752 OFFCURVE",
"79 607 OFFCURVE",
"47 380 CURVE SMOOTH",
"14 144 OFFCURVE",
"135 -10 OFFCURVE",
"372 -10 CURVE SMOOTH",
"424 -10 OFFCURVE",
"472 -8 OFFCURVE",
"511 -1 CURVE",
"561 0 LINE",
"1060 0 LINE",
"1082 164 LINE"
);
},
{
closed = 1;
nodes = (
"281 146 OFFCURVE",
"260 200 OFFCURVE",
"282 355 CURVE SMOOTH",
"306 525 OFFCURVE",
"355 598 OFFCURVE",
"446 598 CURVE SMOOTH",
"527 598 OFFCURVE",
"549 537 OFFCURVE",
"527 377 CURVE SMOOTH",
"504 212 OFFCURVE",
"457 146 OFFCURVE",
"366 146 CURVE SMOOTH"
);
}
);
width = 1130;
},
{
background = {
paths = (
{
closed = 1;
nodes = (
"656 40 LINE SMOOTH",
"649 40 OFFCURVE",
"648 40 OFFCURVE",
"650 48 CURVE SMOOTH",
"691 345 LINE SMOOTH",
"692 353 OFFCURVE",
"696 355 OFFCURVE",
"703 355 CURVE SMOOTH",
"980 355 LINE SMOOTH",
"986 355 OFFCURVE",
"987 355 OFFCURVE",
"987 361 CURVE SMOOTH",
"991 387 LINE SMOOTH",
"992 392 OFFCURVE",
"989 395 OFFCURVE",
"984 395 CURVE SMOOTH",
"706 395 LINE SMOOTH",
"699 395 OFFCURVE",
"698 395 OFFCURVE",
"699 401 CURVE SMOOTH",
"740 692 LINE SMOOTH",
"741 700 OFFCURVE",
"744 702 OFFCURVE",
"751 702 CURVE SMOOTH",
"1109 702 LINE SMOOTH",
"1115 702 OFFCURVE",
"1116 702 OFFCURVE",
"1117 708 CURVE SMOOTH",
"1121 734 LINE SMOOTH",
"1122 739 OFFCURVE",
"1119 742 OFFCURVE",
"1114 742 CURVE SMOOTH",
"709 742 LINE SMOOTH",
"702 742 OFFCURVE",
"701 741 OFFCURVE",
"700 733 CURVE SMOOTH",
"681 599 LINE",
"645 699 OFFCURVE",
"564 752 OFFCURVE",
"446 752 CURVE SMOOTH",
"259 752 OFFCURVE",
"128 618 OFFCURVE",
"93 369 CURVE SMOOTH",
"58 122 OFFCURVE",
"152 -10 OFFCURVE",
"342 -10 CURVE SMOOTH",
"458 -10 OFFCURVE",
"553 40 OFFCURVE",
"617 139 CURVE",
"598 11 LINE SMOOTH",
"597 3 OFFCURVE",
"600 0 OFFCURVE",
"607 0 CURVE SMOOTH",
"1027 0 LINE SMOOTH",
"1032 0 OFFCURVE",
"1033 1 OFFCURVE",
"1034 6 CURVE SMOOTH",
"1037 32 LINE SMOOTH",
"1038 38 OFFCURVE",
"1035 40 OFFCURVE",
"1029 40 CURVE SMOOTH"
);
},
{
closed = 1;
nodes = (
"181 32 OFFCURVE",
"109 142 OFFCURVE",
"140 367 CURVE SMOOTH",
"173 596 OFFCURVE",
"279 710 OFFCURVE",
"445 710 CURVE SMOOTH",
"608 710 OFFCURVE",
"676 599 OFFCURVE",
"644 371 CURVE SMOOTH",
"612 143 OFFCURVE",
"512 32 OFFCURVE",
"346 32 CURVE SMOOTH"
);
}
);
};
layerId = "91AB5BCA-6A50-42DA-B2F7-8181BF189245";
paths = (
{
closed = 1;
nodes = (
"649 40 LINE",
"692 355 LINE",
"986 355 LINE",
"992 395 LINE",
"698 395 LINE",
"741 702 LINE",
"1116 702 LINE",
"1122 742 LINE",
"701 742 LINE",
"681 599 LINE",
"645 699 OFFCURVE",
"564 752 OFFCURVE",
"446 752 CURVE SMOOTH",
"259 752 OFFCURVE",
"128 618 OFFCURVE",
"93 369 CURVE SMOOTH",
"58 122 OFFCURVE",
"152 -10 OFFCURVE",
"342 -10 CURVE SMOOTH",
"458 -10 OFFCURVE",
"553 40 OFFCURVE",
"617 139 CURVE",
"596 0 LINE",
"1033 0 LINE",
"1038 40 LINE"
);
},
{
closed = 1;
nodes = (
"181 32 OFFCURVE",
"109 142 OFFCURVE",
"140 367 CURVE SMOOTH",
"173 596 OFFCURVE",
"279 710 OFFCURVE",
"445 710 CURVE SMOOTH",
"608 710 OFFCURVE",
"676 599 OFFCURVE",
"644 371 CURVE SMOOTH",
"612 143 OFFCURVE",
"512 32 OFFCURVE",
"346 32 CURVE SMOOTH"
);
}
);
width = 1122;
}
);
leftKerningGroup = O;
leftMetricsKey = O;
rightMetricsKey = E;
unicode = 0152;
},
{
glyphname = P;
lastChange = "2016-11-06 13:02:13 +0000";
layers = (
{
background = {
paths = (
{
closed = 1;
nodes = (
"738 364 OFFCURVE",
"738 527 CURVE SMOOTH",
"738 669 OFFCURVE",
"616 742 OFFCURVE",
"465 742 CURVE SMOOTH",
"134 742 LINE SMOOTH",
"122 742 OFFCURVE",
"119 740 OFFCURVE",
"117 725 CURVE SMOOTH",
"19 31 LINE SMOOTH",
"15 9 OFFCURVE",
"19 0 OFFCURVE",
"36 0 CURVE SMOOTH",
"213 0 LINE SMOOTH",
"236 0 OFFCURVE",
"242 2 OFFCURVE",
"245 23 CURVE SMOOTH",
"277 249 LINE SMOOTH",
"278 259 OFFCURVE",
"281 266 OFFCURVE",
"295 266 CURVE SMOOTH",
"432 266 LINE SMOOTH",
"605 266 OFFCURVE"
);
},
{
closed = 1;
nodes = (
"466 426 OFFCURVE",
"413 426 CURVE SMOOTH",
"315 426 LINE SMOOTH",
"306 426 OFFCURVE",
"302 427 OFFCURVE",
"304 442 CURVE SMOOTH",
"320 560 LINE SMOOTH",
"322 575 OFFCURVE",
"327 582 OFFCURVE",
"344 582 CURVE SMOOTH",
"437 582 LINE SMOOTH",
"479 582 OFFCURVE",
"507 562 OFFCURVE",
"507 526 CURVE SMOOTH",
"507 478 OFFCURVE"
);
}
);
};
layerId = "258ED206-D907-4350-8EBA-CBDDA1C16BF7";
paths = (
{
closed = 1;
nodes = (
"738 364 OFFCURVE",
"738 527 CURVE SMOOTH",
"738 669 OFFCURVE",
"616 742 OFFCURVE",
"465 742 CURVE SMOOTH",
"119 742 LINE",
"15 0 LINE",
"242 0 LINE",
"279 266 LINE",
"432 266 LINE SMOOTH",
"605 266 OFFCURVE"
);
},
{
closed = 1;
nodes = (
"466 426 OFFCURVE",
"413 426 CURVE SMOOTH",
"302 426 LINE",
"323 582 LINE",
"437 582 LINE SMOOTH",
"479 582 OFFCURVE",
"507 562 OFFCURVE",
"507 526 CURVE SMOOTH",
"507 478 OFFCURVE"
);
}
);
width = 731;
},
{
background = {
paths = (
{
closed = 1;
nodes = (
"652 408 OFFCURVE",
"652 570 CURVE SMOOTH",
"652 693 OFFCURVE",
"553 742 OFFCURVE",
"411 742 CURVE SMOOTH",
"189 742 LINE SMOOTH",
"182 742 OFFCURVE",
"181 739 OFFCURVE",
"180 731 CURVE SMOOTH",
"78 9 LINE SMOOTH",
"77 4 OFFCURVE",
"81 0 OFFCURVE",
"86 0 CURVE SMOOTH",
"116 0 LINE SMOOTH",
"121 0 OFFCURVE",
"123 2 OFFCURVE",
"124 8 CURVE SMOOTH",
"167 317 LINE SMOOTH",
"168 323 OFFCURVE",
"172 327 OFFCURVE",
"178 327 CURVE SMOOTH",
"361 327 LINE SMOOTH",
"533 327 OFFCURVE"
);
},
{
closed = 1;
nodes = (
"511 367 OFFCURVE",
"364 367 CURVE SMOOTH",
"183 367 LINE SMOOTH",
"176 367 OFFCURVE",
"175 370 OFFCURVE",
"176 379 CURVE SMOOTH",
"220 693 LINE SMOOTH",
"221 699 OFFCURVE",
"225 702 OFFCURVE",
"231 702 CURVE SMOOTH",
"406 702 LINE SMOOTH",
"529 702 OFFCURVE",
"604 670 OFFCURVE",
"604 572 CURVE SMOOTH",
"604 436 OFFCURVE"
);
}
);
};
layerId = "91AB5BCA-6A50-42DA-B2F7-8181BF189245";
paths = (
{
closed = 1;
nodes = (
"652 408 OFFCURVE",
"652 570 CURVE SMOOTH",
"652 693 OFFCURVE",
"553 742 OFFCURVE",
"411 742 CURVE SMOOTH",
"182 742 LINE",
"77 0 LINE",
"123 0 LINE",
"168 327 LINE",
"361 327 LINE SMOOTH",
"533 327 OFFCURVE"
);
},
{
closed = 1;
nodes = (
"511 367 OFFCURVE",
"364 367 CURVE SMOOTH",
"174 367 LINE",
"221 702 LINE",
"406 702 LINE SMOOTH",
"529 702 OFFCURVE",
"604 670 OFFCURVE",
"604 572 CURVE SMOOTH",
"604 436 OFFCURVE"
);
}
);
width = 674;
}
);
rightKerningGroup = P;
unicode = 0050;
},
{
glyphname = Thorn;
lastChange = "2016-11-06 13:02:13 +0000";
layers = (
{
background = {
paths = (
{
closed = 1;
nodes = (
"752 524 OFFCURVE",
"623 608 OFFCURVE",
"459 608 CURVE SMOOTH",
"333 608 LINE SMOOTH",
"326 608 OFFCURVE",
"327 606 OFFCURVE",
"328 614 CURVE SMOOTH",
"342 715 LINE SMOOTH",
"344 728 OFFCURVE",
"336 742 OFFCURVE",
"324 742 CURVE SMOOTH",
"134 742 LINE SMOOTH",
"123 742 OFFCURVE",
"119 740 OFFCURVE",
"117 725 CURVE SMOOTH",
"19 31 LINE SMOOTH",
"17 14 OFFCURVE",
"25 0 OFFCURVE",
"45 0 CURVE SMOOTH",
"213 0 LINE SMOOTH",
"236 0 OFFCURVE",
"242 2 OFFCURVE",
"245 23 CURVE SMOOTH",
"259 125 LINE SMOOTH",
"260 132 OFFCURVE",
"269 142 OFFCURVE",
"278 142 CURVE SMOOTH",
"428 142 LINE SMOOTH",
"591 142 OFFCURVE",
"710 223 OFFCURVE",
"729 361 CURVE SMOOTH"
);
},
{
closed = 1;
nodes = (
"495 341 OFFCURVE",
"456 302 OFFCURVE",
"408 302 CURVE SMOOTH",
"297 302 LINE SMOOTH",
"284 302 OFFCURVE",
"284 303 OFFCURVE",
"286 318 CURVE SMOOTH",
"301 421 LINE SMOOTH",
"303 436 OFFCURVE",
"315 448 OFFCURVE",
"332 448 CURVE SMOOTH",
"431 448 LINE SMOOTH",
"477 448 OFFCURVE",
"507 426 OFFCURVE",
"501 386 CURVE SMOOTH"
);
}
);
};
layerId = "258ED206-D907-4350-8EBA-CBDDA1C16BF7";
paths = (
{
closed = 1;
nodes = (
"752 524 OFFCURVE",
"623 608 OFFCURVE",
"459 608 CURVE SMOOTH",
"327 608 LINE",
"346 742 LINE",
"119 742 LINE",
"15 0 LINE",
"242 0 LINE",
"261 142 LINE",
"428 142 LINE SMOOTH",
"591 142 OFFCURVE",
"710 223 OFFCURVE",
"729 361 CURVE SMOOTH"
);
},
{
closed = 1;
nodes = (
"495 341 OFFCURVE",
"456 302 OFFCURVE",
"408 302 CURVE SMOOTH",
"284 302 LINE",
"305 448 LINE",
"431 448 LINE SMOOTH",
"477 448 OFFCURVE",
"507 426 OFFCURVE",
"501 386 CURVE SMOOTH"
);
}
);
width = 743;
},
{
background = {
paths = (
{
closed = 1;
nodes = (
"647 521 OFFCURVE",
"544 579 OFFCURVE",
"388 579 CURVE SMOOTH",
"209 579 LINE SMOOTH",
"205 579 OFFCURVE",
"204 580 OFFCURVE",
"205 583 CURVE SMOOTH",
"225 731 LINE SMOOTH",
"227 739 OFFCURVE",
"224 742 OFFCURVE",
"217 742 CURVE SMOOTH",
"189 742 LINE SMOOTH",
"182 742 OFFCURVE",
"181 741 OFFCURVE",
"180 733 CURVE SMOOTH",
"78 9 LINE SMOOTH",
"77 4 OFFCURVE",
"81 0 OFFCURVE",
"86 0 CURVE SMOOTH",
"116 0 LINE SMOOTH",
"121 0 OFFCURVE",
"123 2 OFFCURVE",
"124 8 CURVE SMOOTH",
"147 172 LINE SMOOTH",
"148 178 OFFCURVE",
"151 182 OFFCURVE",
"157 182 CURVE SMOOTH",
"340 182 LINE SMOOTH",
"490 182 OFFCURVE",
"607 238 OFFCURVE",
"628 388 CURVE SMOOTH"
);
},
{
closed = 1;
nodes = (
"564 269 OFFCURVE",
"472 222 OFFCURVE",
"344 222 CURVE SMOOTH",
"160 222 LINE SMOOTH",
"155 222 OFFCURVE",
"154 224 OFFCURVE",
"155 231 CURVE SMOOTH",
"197 530 LINE SMOOTH",
"198 536 OFFCURVE",
"203 539 OFFCURVE",
"209 539 CURVE SMOOTH",
"384 539 LINE SMOOTH",
"519 539 OFFCURVE",
"596 502 OFFCURVE",
"581 392 CURVE SMOOTH"
);
}
);
};
layerId = "91AB5BCA-6A50-42DA-B2F7-8181BF189245";
paths = (
{
closed = 1;
nodes = (
"647 521 OFFCURVE",
"544 579 OFFCURVE",
"388 579 CURVE SMOOTH",
"204 579 LINE",
"227 742 LINE",
"181 742 LINE",
"77 0 LINE",
"123 0 LINE",
"148 182 LINE",
"340 182 LINE SMOOTH",
"490 182 OFFCURVE",
"607 238 OFFCURVE",
"628 388 CURVE SMOOTH"
);
},
{
closed = 1;
nodes = (
"564 269 OFFCURVE",
"472 222 OFFCURVE",
"344 222 CURVE SMOOTH",
"154 222 LINE",
"198 539 LINE",
"384 539 LINE SMOOTH",
"519 539 OFFCURVE",
"596 502 OFFCURVE",
"581 392 CURVE SMOOTH"
);
}
);
width = 673;
}
);
leftMetricsKey = P;
rightMetricsKey = P;
unicode = 00DE;
},
{
glyphname = Q;
lastChange = "2016-11-06 13:02:13 +0000";
layers = (
{
background = {
paths = (
{
closed = 1;
nodes = (
"43 354 OFFCURVE",
"42 329 OFFCURVE",
"42 306 CURVE SMOOTH",
"42 112 OFFCURVE",
"160 -10 OFFCURVE",
"360 -10 CURVE SMOOTH",
"382 -10 OFFCURVE",
"403 -8 OFFCURVE",
"429 -1 CURVE SMOOTH",
"439 2 OFFCURVE",
"445 1 OFFCURVE",
"450 -7 CURVE SMOOTH",
"499 -89 OFFCURVE",
"572 -128 OFFCURVE",
"659 -128 CURVE SMOOTH",
"691 -128 OFFCURVE",
"695 -125 OFFCURVE",
"698 -103 CURVE SMOOTH",
"714 11 LINE SMOOTH",
"716 22 OFFCURVE",
"711 25 OFFCURVE",
"699 27 CURVE SMOOTH",
"661 32 OFFCURVE",
"626 45 OFFCURVE",
"614 63 CURVE SMOOTH",
"611 68 OFFCURVE",
"615 74 OFFCURVE",
"621 79 CURVE SMOOTH",
"699 148 OFFCURVE",
"747 243 OFFCURVE",
"763 358 CURVE SMOOTH",
"767 383 OFFCURVE",
"768 408 OFFCURVE",
"768 431 CURVE SMOOTH",
"768 627 OFFCURVE",
"648 752 OFFCURVE",
"451 752 CURVE SMOOTH",
"238 752 OFFCURVE",
"79 607 OFFCURVE",
"47 380 CURVE SMOOTH"
);
},
{
closed = 1;
nodes = (
"306 526 OFFCURVE",
"355 598 OFFCURVE",
"446 598 CURVE SMOOTH",
"508 598 OFFCURVE",
"536 563 OFFCURVE",
"536 476 CURVE SMOOTH",
"536 449 OFFCURVE",
"533 416 OFFCURVE",
"528 378 CURVE SMOOTH",
"505 212 OFFCURVE",
"458 146 OFFCURVE",
"366 146 CURVE SMOOTH",
"302 146 OFFCURVE",
"274 177 OFFCURVE",
"274 260 CURVE SMOOTH",
"274 287 OFFCURVE",
"277 318 OFFCURVE",
"282 356 CURVE SMOOTH"
);
}
);
};
layerId = "258ED206-D907-4350-8EBA-CBDDA1C16BF7";
paths = (
{
closed = 1;
nodes = (
"43 354 OFFCURVE",
"42 329 OFFCURVE",
"42 306 CURVE SMOOTH",
"42 112 OFFCURVE",
"160 -10 OFFCURVE",
"360 -10 CURVE SMOOTH",
"382 -10 OFFCURVE",
"403 -8 OFFCURVE",
"429 -1 CURVE SMOOTH",
"439 2 OFFCURVE",
"445 1 OFFCURVE",
"450 -7 CURVE SMOOTH",
"507 -89 OFFCURVE",
"593 -128 OFFCURVE",
"694 -128 CURVE",
"716 25 LINE",
"670 30 OFFCURVE",
"628 44 OFFCURVE",
"614 63 CURVE SMOOTH",
"611 68 OFFCURVE",
"615 74 OFFCURVE",
"621 79 CURVE SMOOTH",
"699 148 OFFCURVE",
"747 243 OFFCURVE",
"763 358 CURVE SMOOTH",
"767 383 OFFCURVE",
"768 408 OFFCURVE",
"768 431 CURVE SMOOTH",
"768 627 OFFCURVE",
"648 752 OFFCURVE",
"451 752 CURVE SMOOTH",
"238 752 OFFCURVE",
"79 607 OFFCURVE",
"47 380 CURVE SMOOTH"
);
},
{
closed = 1;
nodes = (
"306 526 OFFCURVE",
"355 598 OFFCURVE",
"446 598 CURVE SMOOTH",
"508 598 OFFCURVE",
"536 563 OFFCURVE",
"536 476 CURVE SMOOTH",
"536 449 OFFCURVE",
"533 416 OFFCURVE",
"528 378 CURVE SMOOTH",
"505 212 OFFCURVE",
"458 146 OFFCURVE",
"366 146 CURVE SMOOTH",
"302 146 OFFCURVE",
"274 177 OFFCURVE",
"274 260 CURVE SMOOTH",
"274 287 OFFCURVE",
"277 318 OFFCURVE",
"282 356 CURVE SMOOTH"
);
}
);
width = 782;
},
{
background = {
paths = (
{
closed = 1;
nodes = (
"88 337 OFFCURVE",
"86 304 OFFCURVE",
"86 275 CURVE SMOOTH",
"86 85 OFFCURVE",
"182 -10 OFFCURVE",
"342 -10 CURVE SMOOTH",
"367 -10 OFFCURVE",
"398 -7 OFFCURVE",
"424 -1 CURVE SMOOTH",
"431 1 OFFCURVE",
"436 0 OFFCURVE",
"438 -3 CURVE SMOOTH",
"486 -95 OFFCURVE",
"559 -122 OFFCURVE",
"595 -122 CURVE SMOOTH",
"608 -122 OFFCURVE",
"615 -121 OFFCURVE",
"616 -116 CURVE SMOOTH",
"620 -88 LINE SMOOTH",
"621 -83 OFFCURVE",
"619 -80 OFFCURVE",
"613 -79 CURVE SMOOTH",
"542 -69 OFFCURVE",
"486 -15 OFFCURVE",
"486 12 CURVE SMOOTH",
"486 17 OFFCURVE",
"488 20 OFFCURVE",
"495 24 CURVE SMOOTH",
"600 82 OFFCURVE",
"669 188 OFFCURVE",
"694 367 CURVE SMOOTH",
"699 402 OFFCURVE",
"701 435 OFFCURVE",
"701 465 CURVE SMOOTH",
"701 653 OFFCURVE",
"608 752 OFFCURVE",
"445 752 CURVE SMOOTH",
"258 752 OFFCURVE",
"128 621 OFFCURVE",
"93 371 CURVE SMOOTH"
);
},
{
closed = 1;
nodes = (
"172 591 OFFCURVE",
"276 710 OFFCURVE",
"444 710 CURVE SMOOTH",
"584 710 OFFCURVE",
"654 627 OFFCURVE",
"654 468 CURVE SMOOTH",
"654 438 OFFCURVE",
"652 406 OFFCURVE",
"647 371 CURVE SMOOTH",
"615 142 OFFCURVE",
"509 32 OFFCURVE",
"344 32 CURVE SMOOTH",
"206 32 OFFCURVE",
"133 109 OFFCURVE",
"133 269 CURVE SMOOTH",
"133 298 OFFCURVE",
"135 330 OFFCURVE",
"140 365 CURVE SMOOTH"
);
}
);
};
layerId = "91AB5BCA-6A50-42DA-B2F7-8181BF189245";
paths = (
{
closed = 1;
nodes = (
"88 337 OFFCURVE",
"86 304 OFFCURVE",
"86 275 CURVE SMOOTH",
"86 85 OFFCURVE",
"182 -10 OFFCURVE",
"342 -10 CURVE SMOOTH",
"367 -10 OFFCURVE",
"398 -7 OFFCURVE",
"424 -1 CURVE SMOOTH",
"431 1 OFFCURVE",
"436 0 OFFCURVE",
"438 -3 CURVE SMOOTH",
"492 -95 OFFCURVE",
"575 -122 OFFCURVE",
"615 -122 CURVE",
"621 -80 LINE",
"546 -70 OFFCURVE",
"486 -15 OFFCURVE",
"486 12 CURVE SMOOTH",
"486 17 OFFCURVE",
"488 20 OFFCURVE",
"495 24 CURVE SMOOTH",
"600 82 OFFCURVE",
"669 188 OFFCURVE",
"694 367 CURVE SMOOTH",
"699 402 OFFCURVE",
"701 435 OFFCURVE",
"701 465 CURVE SMOOTH",
"701 653 OFFCURVE",
"608 752 OFFCURVE",
"445 752 CURVE SMOOTH",
"258 752 OFFCURVE",
"128 621 OFFCURVE",
"93 371 CURVE SMOOTH"
);
},
{
closed = 1;
nodes = (
"172 591 OFFCURVE",
"276 710 OFFCURVE",
"444 710 CURVE SMOOTH",
"584 710 OFFCURVE",
"654 627 OFFCURVE",
"654 468 CURVE SMOOTH",
"654 438 OFFCURVE",
"652 406 OFFCURVE",
"647 371 CURVE SMOOTH",
"615 142 OFFCURVE",
"509 32 OFFCURVE",
"344 32 CURVE SMOOTH",
"206 32 OFFCURVE",
"133 109 OFFCURVE",
"133 269 CURVE SMOOTH",
"133 298 OFFCURVE",
"135 330 OFFCURVE",
"140 365 CURVE SMOOTH"
);
}
);
width = 758;
}
);
leftKerningGroup = O;
rightKerningGroup = O;
unicode = 0051;
},
{
glyphname = R;
lastChange = "2016-11-06 13:02:13 +0000";
layers = (
{
anchors = (
{
name = bottom;
position = "{331, 0}";
},
{
name = top;
position = "{425, 742}";
}
);
background = {
anchors = (
{
name = bottom;
position = "{331, 0}";
},
{
name = top;
position = "{425, 742}";
}
);
paths = (
{
closed = 1;
nodes = (
"579 307 LINE SMOOTH",
"576 315 OFFCURVE",
"577 320 OFFCURVE",
"595 327 CURVE SMOOTH",
"686 363 OFFCURVE",
"748 454 OFFCURVE",
"748 551 CURVE SMOOTH",
"748 671 OFFCURVE",
"646 742 OFFCURVE",
"468 742 CURVE SMOOTH",
"134 742 LINE SMOOTH",
"122 742 OFFCURVE",
"119 740 OFFCURVE",
"117 725 CURVE SMOOTH",
"19 31 LINE SMOOTH",
"17 14 OFFCURVE",
"21 0 OFFCURVE",
"41 0 CURVE SMOOTH",
"209 0 LINE SMOOTH",
"232 0 OFFCURVE",
"242 2 OFFCURVE",
"245 23 CURVE SMOOTH",
"282 283 LINE SMOOTH",
"283 291 OFFCURVE",
"286 295 OFFCURVE",
"297 295 CURVE SMOOTH",
"357 295 LINE SMOOTH",
"368 295 OFFCURVE",
"370 292 OFFCURVE",
"372 284 CURVE SMOOTH",
"430 26 LINE SMOOTH",
"434 6 OFFCURVE",
"442 0 OFFCURVE",
"456 0 CURVE SMOOTH",
"650 0 LINE SMOOTH",
"667 0 OFFCURVE",
"673 8 OFFCURVE",
"667 27 CURVE SMOOTH"
);
},
{
closed = 1;
nodes = (
"317 444 LINE SMOOTH",
"309 444 OFFCURVE",
"304 446 OFFCURVE",
"306 459 CURVE SMOOTH",
"323 574 LINE SMOOTH",
"325 589 OFFCURVE",
"328 594 OFFCURVE",
"338 594 CURVE SMOOTH",
"440 594 LINE SMOOTH",
"481 594 OFFCURVE",
"513 576 OFFCURVE",
"513 537 CURVE SMOOTH",
"513 489 OFFCURVE",
"474 444 OFFCURVE",
"417 444 CURVE SMOOTH"
);
}
);
};
layerId = "258ED206-D907-4350-8EBA-CBDDA1C16BF7";
paths = (
{
closed = 1;
nodes = (
"575 319 LINE",
"678 356 OFFCURVE",
"748 451 OFFCURVE",
"748 551 CURVE SMOOTH",
"748 671 OFFCURVE",
"646 742 OFFCURVE",
"468 742 CURVE SMOOTH",
"119 742 LINE",
"15 0 LINE",
"242 0 LINE",
"284 295 LINE",
"370 295 LINE",
"436 0 LINE",
"676 0 LINE"
);
},
{
closed = 1;
nodes = (
"304 444 LINE",
"326 594 LINE",
"440 594 LINE SMOOTH",
"481 594 OFFCURVE",
"513 576 OFFCURVE",
"513 537 CURVE SMOOTH",
"513 489 OFFCURVE",
"474 444 OFFCURVE",
"417 444 CURVE SMOOTH"
);
}
);
width = 739;
},
{
anchors = (
{
name = bottom;
position = "{304, 0}";
},
{
name = top;
position = "{401, 742}";
}
);
background = {
anchors = (
{
name = bottom;
position = "{304, 0}";
},
{
name = top;
position = "{401, 742}";
}
);
paths = (
{
closed = 1;
nodes = (
"465 358 LINE SMOOTH",
"464 361 OFFCURVE",
"468 364 OFFCURVE",
"473 365 CURVE SMOOTH",
"583 392 OFFCURVE",
"652 475 OFFCURVE",
"652 589 CURVE SMOOTH",
"652 690 OFFCURVE",
"578 742 OFFCURVE",
"447 742 CURVE SMOOTH",
"189 742 LINE SMOOTH",
"182 742 OFFCURVE",
"181 741 OFFCURVE",
"180 733 CURVE SMOOTH",
"78 10 LINE SMOOTH",
"77 4 OFFCURVE",
"80 0 OFFCURVE",
"88 0 CURVE SMOOTH",
"114 0 LINE SMOOTH",
"122 0 OFFCURVE",
"123 2 OFFCURVE",
"124 10 CURVE SMOOTH",
"171 343 LINE SMOOTH",
"172 353 OFFCURVE",
"175 355 OFFCURVE",
"183 355 CURVE SMOOTH",
"402 355 LINE SMOOTH",
"415 355 OFFCURVE",
"418 353 OFFCURVE",
"420 346 CURVE SMOOTH",
"516 10 LINE SMOOTH",
"517 4 OFFCURVE",
"520 0 OFFCURVE",
"527 0 CURVE SMOOTH",
"555 0 LINE SMOOTH",
"566 0 OFFCURVE",
"567 4 OFFCURVE",
"564 13 CURVE SMOOTH"
);
},
{
closed = 1;
nodes = (
"185 395 LINE SMOOTH",
"180 395 OFFCURVE",
"178 397 OFFCURVE",
"179 403 CURVE SMOOTH",
"220 693 LINE SMOOTH",
"221 699 OFFCURVE",
"225 702 OFFCURVE",
"233 702 CURVE SMOOTH",
"442 702 LINE SMOOTH",
"550 702 OFFCURVE",
"603 664 OFFCURVE",
"603 584 CURVE SMOOTH",
"603 445 OFFCURVE",
"510 395 OFFCURVE",
"363 395 CURVE SMOOTH"
);
}
);
};
layerId = "91AB5BCA-6A50-42DA-B2F7-8181BF189245";
paths = (
{
closed = 1;
nodes = (
"464 363 LINE",
"579 390 OFFCURVE",
"652 474 OFFCURVE",
"652 589 CURVE SMOOTH",
"652 690 OFFCURVE",
"578 742 OFFCURVE",
"447 742 CURVE SMOOTH",
"181 742 LINE",
"77 0 LINE",
"123 0 LINE",
"173 355 LINE",
"417 355 LINE",
"519 0 LINE",
"568 0 LINE"
);
},
{
closed = 1;
nodes = (
"178 395 LINE",
"221 702 LINE",
"442 702 LINE SMOOTH",
"550 702 OFFCURVE",
"603 664 OFFCURVE",
"603 584 CURVE SMOOTH",
"603 445 OFFCURVE",
"510 395 OFFCURVE",
"363 395 CURVE SMOOTH"
);
}
);
width = 679;
}
);
rightKerningGroup = R;
unicode = 0052;
},
{
glyphname = S;
lastChange = "2016-11-06 13:13:31 +0000";
layers = (
{
anchors = (
{
name = bottom;
position = "{318, 0}";
},
{
name = top;
position = "{422, 742}";
}
);
background = {
anchors = (
{
name = bottom;
position = "{318, 0}";
},
{
name = top;
position = "{422, 742}";
}
);
paths = (
{
closed = 1;
nodes = (
"551 541 OFFCURVE",
"561 530 OFFCURVE",
"570 536 CURVE SMOOTH",
"685 610 LINE SMOOTH",
"696 617 OFFCURVE",
"693 626 OFFCURVE",
"684 639 CURVE SMOOTH",
"640 698 OFFCURVE",
"541 752 OFFCURVE",
"410 752 CURVE SMOOTH",
"235 752 OFFCURVE",
"81 649 OFFCURVE",
"81 490 CURVE SMOOTH",
"81 402 OFFCURVE",
"140 334 OFFCURVE",
"241 303 CURVE SMOOTH",
"388 258 LINE SMOOTH",
"426 247 OFFCURVE",
"449 231 OFFCURVE",
"449 204 CURVE SMOOTH",
"449 152 OFFCURVE",
"396 137 OFFCURVE",
"341 137 CURVE SMOOTH",
"238 137 OFFCURVE",
"210 163 OFFCURVE",
"164 214 CURVE SMOOTH",
"153 227 OFFCURVE",
"140 235 OFFCURVE",
"121 224 CURVE SMOOTH",
"15 159 LINE SMOOTH",
"3 152 OFFCURVE",
"5 145 OFFCURVE",
"12 131 CURVE SMOOTH",
"59 46 OFFCURVE",
"165 -10 OFFCURVE",
"321 -10 CURVE SMOOTH",
"516 -10 OFFCURVE",
"671 85 OFFCURVE",
"671 259 CURVE SMOOTH",
"671 344 OFFCURVE",
"618 397 OFFCURVE",
"513 431 CURVE SMOOTH",
"353 483 LINE SMOOTH",
"327 491 OFFCURVE",
"293 505 OFFCURVE",
"293 536 CURVE SMOOTH",
"293 576 OFFCURVE",
"336 598 OFFCURVE",
"402 598 CURVE SMOOTH",
"472 598 OFFCURVE",
"515 573 OFFCURVE",
"539 552 CURVE SMOOTH"
);
}
);
};
layerId = "258ED206-D907-4350-8EBA-CBDDA1C16BF7";
paths = (
{
closed = 1;
nodes = (
"699 619 LINE",
"659 689 OFFCURVE",
"548 752 OFFCURVE",
"410 752 CURVE SMOOTH",
"235 752 OFFCURVE",
"81 649 OFFCURVE",
"81 490 CURVE SMOOTH",
"81 402 OFFCURVE",
"140 334 OFFCURVE",
"241 303 CURVE",
"397 255 LINE",
"455 237 OFFCURVE",
"452 205 OFFCURVE",
"448 191 CURVE SMOOTH",
"436 150 OFFCURVE",
"386 137 OFFCURVE",
"341 137 CURVE SMOOTH",
"226 137 OFFCURVE",
"196 173 OFFCURVE",
"145 239 CURVE",
"1 151 LINE",
"45 52 OFFCURVE",
"160 -10 OFFCURVE",
"321 -10 CURVE SMOOTH",
"516 -10 OFFCURVE",
"671 85 OFFCURVE",
"671 259 CURVE SMOOTH",
"671 344 OFFCURVE",
"618 397 OFFCURVE",
"513 431 CURVE",
"336 488 LINE",
"278 502 OFFCURVE",
"289 539 OFFCURVE",
"294 550 CURVE SMOOTH",
"309 586 OFFCURVE",
"352 598 OFFCURVE",
"402 598 CURVE SMOOTH",
"484 598 OFFCURVE",
"533 561 OFFCURVE",
"561 530 CURVE"
);
}
);
width = 701;
},
{
anchors = (
{
name = bottom;
position = "{286, 0}";
},
{
name = top;
position = "{386, 742}";
}
);
background = {
anchors = (
{
name = bottom;
position = "{286, 0}";
},
{
name = top;
position = "{386, 742}";
}
);
paths = (
{
closed = 1;
nodes = (
"559 620 OFFCURVE",
"561 619 OFFCURVE",
"564 621 CURVE SMOOTH",
"589 641 LINE SMOOTH",
"594 645 OFFCURVE",
"594 647 OFFCURVE",
"588 654 CURVE SMOOTH",
"540 715 OFFCURVE",
"478 752 OFFCURVE",
"384 752 CURVE SMOOTH",
"239 752 OFFCURVE",
"125 666 OFFCURVE",
"125 531 CURVE SMOOTH",
"125 474 OFFCURVE",
"153 415 OFFCURVE",
"241 380 CURVE SMOOTH",
"384 322 LINE SMOOTH",
"473 286 OFFCURVE",
"497 251 OFFCURVE",
"497 205 CURVE SMOOTH",
"497 87 OFFCURVE",
"406 32 OFFCURVE",
"274 32 CURVE SMOOTH",
"168 32 OFFCURVE",
"125 68 OFFCURVE",
"79 139 CURVE SMOOTH",
"74 147 OFFCURVE",
"68 148 OFFCURVE",
"60 142 CURVE SMOOTH",
"48 134 LINE SMOOTH",
"39 129 OFFCURVE",
"38 121 OFFCURVE",
"41 115 CURVE SMOOTH",
"88 30 OFFCURVE",
"160 -10 OFFCURVE",
"272 -10 CURVE SMOOTH",
"426 -10 OFFCURVE",
"543 67 OFFCURVE",
"543 210 CURVE SMOOTH",
"543 280 OFFCURVE",
"504 331 OFFCURVE",
"406 369 CURVE SMOOTH",
"275 419 LINE SMOOTH",
"189 452 OFFCURVE",
"171 499 OFFCURVE",
"171 535 CURVE SMOOTH",
"171 640 OFFCURVE",
"261 710 OFFCURVE",
"380 710 CURVE SMOOTH",
"463 710 OFFCURVE",
"519 675 OFFCURVE",
"552 629 CURVE SMOOTH"
);
}
);
};
layerId = "91AB5BCA-6A50-42DA-B2F7-8181BF189245";
paths = (
{
closed = 1;
nodes = (
"595 646 LINE",
"545 712 OFFCURVE",
"481 752 OFFCURVE",
"384 752 CURVE SMOOTH",
"239 752 OFFCURVE",
"125 666 OFFCURVE",
"125 531 CURVE SMOOTH",
"125 474 OFFCURVE",
"153 415 OFFCURVE",
"241 380 CURVE SMOOTH",
"384 322 LINE SMOOTH",
"473 286 OFFCURVE",
"497 251 OFFCURVE",
"497 205 CURVE SMOOTH",
"497 87 OFFCURVE",
"406 32 OFFCURVE",
"274 32 CURVE SMOOTH",
"164 32 OFFCURVE",
"120 72 OFFCURVE",
"72 150 CURVE",
"35 125 LINE",
"83 33 OFFCURVE",
"157 -10 OFFCURVE",
"272 -10 CURVE SMOOTH",
"426 -10 OFFCURVE",
"543 67 OFFCURVE",
"543 210 CURVE SMOOTH",
"543 280 OFFCURVE",
"504 331 OFFCURVE",
"406 369 CURVE SMOOTH",
"275 419 LINE SMOOTH",
"189 452 OFFCURVE",
"171 499 OFFCURVE",
"171 535 CURVE SMOOTH",
"171 640 OFFCURVE",
"261 710 OFFCURVE",
"380 710 CURVE SMOOTH",
"467 710 OFFCURVE",
"525 670 OFFCURVE",
"560 618 CURVE"
);
}
);
width = 618;
}
);
leftKerningGroup = S;
rightKerningGroup = S;
unicode = 0053;
},
{
glyphname = Schwa;
lastChange = "2016-11-06 13:02:13 +0000";
layers = (
{
background = {
paths = (
{
closed = 1;
nodes = (
"531 437 OFFCURVE",
"518 425 OFFCURVE",
"505 425 CURVE SMOOTH",
"72 425 LINE SMOOTH",
"50 425 OFFCURVE",
"53 420 OFFCURVE",
"50 403 CURVE SMOOTH",
"14 142 OFFCURVE",
"117 -10 OFFCURVE",
"354 -10 CURVE SMOOTH",
"543 -10 OFFCURVE",
"731 152 OFFCURVE",
"762 369 CURVE SMOOTH",
"793 593 OFFCURVE",
"674 752 OFFCURVE",
"448 752 CURVE SMOOTH",
"306 752 OFFCURVE",
"194 694 OFFCURVE",
"115 577 CURVE SMOOTH",
"106 556 OFFCURVE",
"109 544 OFFCURVE",
"120 538 CURVE SMOOTH",
"250 471 LINE SMOOTH",
"265 462 OFFCURVE",
"269 457 OFFCURVE",
"275 459 CURVE SMOOTH",
"331 539 OFFCURVE",
"376 578 OFFCURVE",
"442 578 CURVE SMOOTH",
"536 578 OFFCURVE",
"542 512 OFFCURVE",
"534 458 CURVE SMOOTH"
);
},
{
closed = 1;
nodes = (
"483 198 OFFCURVE",
"443 146 OFFCURVE",
"358 146 CURVE SMOOTH",
"294 146 OFFCURVE",
"264 195 OFFCURVE",
"273 256 CURVE SMOOTH",
"276 276 OFFCURVE",
"286 285 OFFCURVE",
"303 285 CURVE SMOOTH",
"508 290 LINE"
);
}
);
};
layerId = "258ED206-D907-4350-8EBA-CBDDA1C16BF7";
paths = (
{
closed = 1;
nodes = (
"53 425 LINE",
"17 150 OFFCURVE",
"119 -10 OFFCURVE",
"354 -10 CURVE SMOOTH",
"543 -10 OFFCURVE",
"731 152 OFFCURVE",
"762 369 CURVE SMOOTH",
"793 593 OFFCURVE",
"674 752 OFFCURVE",
"448 752 CURVE SMOOTH",
"298 752 OFFCURVE",
"180 685 OFFCURVE",
"97 550 CURVE",
"275 458 LINE",
"331 539 OFFCURVE",
"376 578 OFFCURVE",
"442 578 CURVE SMOOTH",
"531 578 OFFCURVE",
"537 494 OFFCURVE",
"529 425 CURVE"
);
},
{
closed = 1;
nodes = (
"483 198 OFFCURVE",
"443 146 OFFCURVE",
"358 146 CURVE SMOOTH",
"297 146 OFFCURVE",
"269 208 OFFCURVE",
"277 284 CURVE",
"508 290 LINE"
);
}
);
width = 778;
},
{
background = {
paths = (
{
closed = 1;
nodes = (
"643 382 OFFCURVE",
"641 380 OFFCURVE",
"636 380 CURVE SMOOTH",
"101 380 LINE SMOOTH",
"93 380 OFFCURVE",
"94 376 OFFCURVE",
"93 371 CURVE SMOOTH",
"65 175 OFFCURVE",
"106 -10 OFFCURVE",
"342 -10 CURVE SMOOTH",
"570 -10 OFFCURVE",
"667 179 OFFCURVE",
"693 364 CURVE SMOOTH",
"716 530 OFFCURVE",
"696 752 OFFCURVE",
"445 752 CURVE SMOOTH",
"218 752 OFFCURVE",
"149 561 OFFCURVE",
"127 524 CURVE SMOOTH",
"126 518 OFFCURVE",
"125 514 OFFCURVE",
"129 513 CURVE SMOOTH",
"165 500 LINE SMOOTH",
"169 499 OFFCURVE",
"170 497 OFFCURVE",
"172 498 CURVE SMOOTH",
"189 530 OFFCURVE",
"233 709 OFFCURVE",
"443 709 CURVE SMOOTH",
"660 709 OFFCURVE",
"661 505 OFFCURVE",
"644 388 CURVE SMOOTH"
);
},
{
closed = 1;
nodes = (
"614 192 OFFCURVE",
"541 33 OFFCURVE",
"344 33 CURVE SMOOTH",
"148 33 OFFCURVE",
"120 191 OFFCURVE",
"139 330 CURVE SMOOTH",
"140 335 OFFCURVE",
"143 338 OFFCURVE",
"149 338 CURVE SMOOTH",
"637 339 LINE"
);
}
);
};
layerId = "91AB5BCA-6A50-42DA-B2F7-8181BF189245";
paths = (
{
closed = 1;
nodes = (
"94 380 LINE",
"66 179 OFFCURVE",
"107 -10 OFFCURVE",
"342 -10 CURVE SMOOTH",
"570 -10 OFFCURVE",
"667 179 OFFCURVE",
"693 364 CURVE SMOOTH",
"716 530 OFFCURVE",
"696 752 OFFCURVE",
"445 752 CURVE SMOOTH",
"214 752 OFFCURVE",
"144 554 OFFCURVE",
"122 516 CURVE",
"172 497 LINE",
"189 530 OFFCURVE",
"233 709 OFFCURVE",
"443 709 CURVE SMOOTH",
"659 709 OFFCURVE",
"660 500 OFFCURVE",
"643 380 CURVE"
);
},
{
closed = 1;
nodes = (
"614 192 OFFCURVE",
"541 33 OFFCURVE",
"344 33 CURVE SMOOTH",
"149 33 OFFCURVE",
"121 195 OFFCURVE",
"140 338 CURVE",
"637 339 LINE"
);
}
);
width = 757;
}
);
leftMetricsKey = O;
rightMetricsKey = O;
unicode = 018F;
},
{
glyphname = T;
lastChange = "2016-11-06 13:02:13 +0000";
layers = (
{
anchors = (
{
name = bottom;
position = "{315, 0}";
},
{
name = top;
position = "{419, 742}";
}
);
background = {
anchors = (
{
name = bottom;
position = "{315, 0}";
},
{
name = top;
position = "{419, 742}";
}
);
paths = (
{
closed = 1;
nodes = (
"73 585 OFFCURVE",
"78 581 OFFCURVE",
"92 581 CURVE SMOOTH",
"271 581 LINE SMOOTH",
"279 581 OFFCURVE",
"282 578 OFFCURVE",
"281 569 CURVE SMOOTH",
"204 26 LINE SMOOTH",
"201 7 OFFCURVE",
"205 0 OFFCURVE",
"223 0 CURVE SMOOTH",
"411 0 LINE SMOOTH",
"422 0 OFFCURVE",
"428 4 OFFCURVE",
"430 19 CURVE SMOOTH",
"507 565 LINE SMOOTH",
"509 577 OFFCURVE",
"511 581 OFFCURVE",
"525 581 CURVE SMOOTH",
"702 581 LINE SMOOTH",
"715 581 OFFCURVE",
"720 583 OFFCURVE",
"722 594 CURVE SMOOTH",
"740 725 LINE SMOOTH",
"742 737 OFFCURVE",
"741 742 OFFCURVE",
"724 742 CURVE SMOOTH",
"116 742 LINE SMOOTH",
"99 742 OFFCURVE",
"95 738 OFFCURVE",
"93 725 CURVE SMOOTH",
"75 597 LINE SMOOTH"
);
}
);
};
layerId = "258ED206-D907-4350-8EBA-CBDDA1C16BF7";
paths = (
{
closed = 1;
nodes = (
"283 581 LINE",
"200 0 LINE",
"427 0 LINE",
"509 581 LINE",
"720 581 LINE",
"742 742 LINE",
"95 742 LINE",
"73 581 LINE"
);
}
);
width = 704;
},
{
anchors = (
{
name = bottom;
position = "{286, 0}";
},
{
name = top;
position = "{390, 742}";
}
);
background = {
anchors = (
{
name = bottom;
position = "{286, 0}";
},
{
name = top;
position = "{390, 742}";
}
);
paths = (
{
closed = 1;
nodes = (
"109 704 OFFCURVE",
"111 702 OFFCURVE",
"117 702 CURVE SMOOTH",
"348 702 LINE SMOOTH",
"357 702 OFFCURVE",
"360 699 OFFCURVE",
"359 690 CURVE SMOOTH",
"263 11 LINE SMOOTH",
"262 3 OFFCURVE",
"263 0 OFFCURVE",
"271 0 CURVE SMOOTH",
"300 0 LINE SMOOTH",
"307 0 OFFCURVE",
"308 1 OFFCURVE",
"309 9 CURVE SMOOTH",
"405 692 LINE SMOOTH",
"406 700 OFFCURVE",
"409 702 OFFCURVE",
"417 702 CURVE SMOOTH",
"628 702 LINE SMOOTH",
"634 702 OFFCURVE",
"637 704 OFFCURVE",
"638 710 CURVE SMOOTH",
"642 734 LINE SMOOTH",
"643 739 OFFCURVE",
"642 742 OFFCURVE",
"637 742 CURVE SMOOTH",
"120 742 LINE SMOOTH",
"115 742 OFFCURVE",
"114 741 OFFCURVE",
"113 736 CURVE SMOOTH",
"110 710 LINE SMOOTH"
);
}
);
};
layerId = "91AB5BCA-6A50-42DA-B2F7-8181BF189245";
paths = (
{
closed = 1;
nodes = (
"361 702 LINE",
"261 0 LINE",
"308 0 LINE",
"406 702 LINE",
"637 702 LINE",
"643 742 LINE",
"114 742 LINE",
"109 702 LINE"
);
}
);
width = 623;
}
);
leftKerningGroup = T;
rightKerningGroup = T;
unicode = 0054;
},
{
glyphname = Tbar;
lastChange = "2016-11-06 13:02:13 +0000";
layers = (
{
background = {
components = (
{
name = T;
}
);
paths = (
{
closed = 1;
nodes = (
"591 408 OFFCURVE",
"582 422 OFFCURVE",
"571 422 CURVE SMOOTH",
"170 422 LINE SMOOTH",
"158 422 OFFCURVE",
"155 420 OFFCURVE",
"153 405 CURVE SMOOTH",
"140 312 LINE SMOOTH",
"138 295 OFFCURVE",
"145 281 OFFCURVE",
"165 281 CURVE SMOOTH",
"544 281 LINE SMOOTH",
"567 281 OFFCURVE",
"573 283 OFFCURVE",
"576 303 CURVE SMOOTH",
"589 396 LINE SMOOTH"
);
}
);
};
components = (
{
name = T;
}
);
layerId = "258ED206-D907-4350-8EBA-CBDDA1C16BF7";
paths = (
{
closed = 1;
nodes = (
"155 422 LINE",
"136 281 LINE",
"573 281 LINE",
"593 422 LINE"
);
}
);
width = 704;
},
{
background = {
components = (
{
name = T;
}
);
guideLines = (
{
angle = 90;
position = "{212, 188}";
showMeasurement = 1;
}
);
paths = (
{
closed = 1;
nodes = (
"528 398 OFFCURVE",
"525 402 OFFCURVE",
"520 402 CURVE SMOOTH",
"168 402 LINE SMOOTH",
"163 402 OFFCURVE",
"162 400 OFFCURVE",
"161 394 CURVE SMOOTH",
"158 371 LINE SMOOTH",
"157 364 OFFCURVE",
"159 360 OFFCURVE",
"167 360 CURVE SMOOTH",
"510 360 LINE SMOOTH",
"519 360 OFFCURVE",
"523 362 OFFCURVE",
"524 370 CURVE SMOOTH",
"527 393 LINE SMOOTH"
);
}
);
};
components = (
{
name = T;
}
);
guideLines = (
{
angle = 90;
position = "{212, 188}";
showMeasurement = 1;
}
);
layerId = "91AB5BCA-6A50-42DA-B2F7-8181BF189245";
paths = (
{
closed = 1;
nodes = (
"162 402 LINE",
"157 360 LINE",
"523 360 LINE",
"528 402 LINE"
);
}
);
width = 623;
}
);
leftMetricsKey = T;
rightMetricsKey = T;
unicode = 0166;
},
{
glyphname = U;
lastChange = "2016-11-06 13:02:13 +0000";
layers = (
{
anchors = (
{
name = bottom;
position = "{327, 0}";
},
{
name = ogonek;
position = "{440, 10}";
},
{
name = top;
position = "{448, 742}";
},
{
name = topright;
position = "{627, 739}";
}
);
background = {
anchors = (
{
name = bottom;
position = "{327, 0}";
},
{
name = ogonek;
position = "{440, 10}";
},
{
name = top;
position = "{448, 742}";
},
{
name = topright;
position = "{627, 739}";
}
);
paths = (
{
closed = 1;
nodes = (
"747 715 LINE SMOOTH",
"749 728 OFFCURVE",
"741 742 OFFCURVE",
"729 742 CURVE SMOOTH",
"579 742 LINE SMOOTH",
"567 742 OFFCURVE",
"564 740 OFFCURVE",
"562 725 CURVE SMOOTH",
"502 298 LINE SMOOTH",
"486 187 OFFCURVE",
"423 149 OFFCURVE",
"357 149 CURVE SMOOTH",
"303 149 OFFCURVE",
"270 172 OFFCURVE",
"270 240 CURVE SMOOTH",
"270 253 OFFCURVE",
"272 267 OFFCURVE",
"274 283 CURVE SMOOTH",
"334 715 LINE SMOOTH",
"336 728 OFFCURVE",
"328 742 OFFCURVE",
"316 742 CURVE SMOOTH",
"126 742 LINE SMOOTH",
"115 742 OFFCURVE",
"111 740 OFFCURVE",
"109 725 CURVE SMOOTH",
"52 319 LINE SMOOTH",
"48 289 OFFCURVE",
"45 260 OFFCURVE",
"45 234 CURVE SMOOTH",
"45 78 OFFCURVE",
"125 -10 OFFCURVE",
"333 -10 CURVE SMOOTH",
"520 -10 OFFCURVE",
"655 56 OFFCURVE",
"687 287 CURVE SMOOTH"
);
}
);
};
layerId = "258ED206-D907-4350-8EBA-CBDDA1C16BF7";
paths = (
{
closed = 1;
nodes = (
"751 742 LINE",
"564 742 LINE",
"502 298 LINE SMOOTH",
"486 187 OFFCURVE",
"423 149 OFFCURVE",
"357 149 CURVE SMOOTH",
"303 149 OFFCURVE",
"270 176 OFFCURVE",
"270 254 CURVE",
"338 742 LINE",
"111 742 LINE",
"52 319 LINE SMOOTH",
"48 289 OFFCURVE",
"45 260 OFFCURVE",
"45 234 CURVE SMOOTH",
"45 78 OFFCURVE",
"125 -10 OFFCURVE",
"333 -10 CURVE SMOOTH",
"520 -10 OFFCURVE",
"655 56 OFFCURVE",
"687 287 CURVE SMOOTH"
);
}
);
width = 728;
},
{
anchors = (
{
name = bottom;
position = "{314, 0}";
},
{
name = ogonek;
position = "{387, 9}";
},
{
name = top;
position = "{422, 742}";
},
{
name = topright;
position = "{518, 742}";
}
);
background = {
anchors = (
{
name = bottom;
position = "{314, 0}";
},
{
name = ogonek;
position = "{387, 9}";
},
{
name = top;
position = "{422, 742}";
},
{
name = topright;
position = "{518, 742}";
}
);
paths = (
{
closed = 1;
nodes = (
"664 732 LINE SMOOTH",
"664 738 OFFCURVE",
"662 742 OFFCURVE",
"656 742 CURVE SMOOTH",
"632 742 LINE SMOOTH",
"626 742 OFFCURVE",
"625 740 OFFCURVE",
"624 734 CURVE SMOOTH",
"553 230 LINE SMOOTH",
"535 98 OFFCURVE",
"457 32 OFFCURVE",
"318 32 CURVE SMOOTH",
"199 32 OFFCURVE",
"141 81 OFFCURVE",
"141 181 CURVE SMOOTH",
"141 195 OFFCURVE",
"142 209 OFFCURVE",
"144 225 CURVE SMOOTH",
"215 731 LINE SMOOTH",
"217 739 OFFCURVE",
"214 742 OFFCURVE",
"206 742 CURVE SMOOTH",
"178 742 LINE SMOOTH",
"172 742 OFFCURVE",
"171 740 OFFCURVE",
"170 732 CURVE SMOOTH",
"101 246 LINE SMOOTH",
"98 223 OFFCURVE",
"96 202 OFFCURVE",
"96 183 CURVE SMOOTH",
"96 52 OFFCURVE",
"167 -10 OFFCURVE",
"314 -10 CURVE SMOOTH",
"479 -10 OFFCURVE",
"570 68 OFFCURVE",
"593 229 CURVE SMOOTH"
);
}
);
};
layerId = "91AB5BCA-6A50-42DA-B2F7-8181BF189245";
paths = (
{
closed = 1;
nodes = (
"665 742 LINE",
"625 742 LINE",
"553 230 LINE SMOOTH",
"535 98 OFFCURVE",
"457 32 OFFCURVE",
"318 32 CURVE SMOOTH",
"199 32 OFFCURVE",
"141 88 OFFCURVE",
"141 204 CURVE",
"217 742 LINE",
"171 742 LINE",
"101 246 LINE SMOOTH",
"98 223 OFFCURVE",
"96 202 OFFCURVE",
"96 183 CURVE SMOOTH",
"96 52 OFFCURVE",
"167 -10 OFFCURVE",
"314 -10 CURVE SMOOTH",
"479 -10 OFFCURVE",
"570 68 OFFCURVE",
"593 229 CURVE SMOOTH"
);
}
);
width = 702;
}
);
leftKerningGroup = U;
rightKerningGroup = U;
unicode = 0055;
},
{
glyphname = V;
lastChange = "2016-11-06 13:02:13 +0000";
layers = (
{
background = {
paths = (
{
closed = 1;
nodes = (
"621 742 LINE SMOOTH",
"609 742 OFFCURVE",
"601 739 OFFCURVE",
"596 726 CURVE SMOOTH",
"406 283 LINE SMOOTH",
"401 272 OFFCURVE",
"398 272 OFFCURVE",
"396 284 CURVE SMOOTH",
"324 716 LINE SMOOTH",
"321 734 OFFCURVE",
"317 742 OFFCURVE",
"305 742 CURVE SMOOTH",
"108 742 LINE SMOOTH",
"92 742 OFFCURVE",
"87 733 OFFCURVE",
"91 718 CURVE SMOOTH",
"229 20 LINE SMOOTH",
"232 4 OFFCURVE",
"242 0 OFFCURVE",
"262 0 CURVE SMOOTH",
"424 0 LINE SMOOTH",
"444 0 OFFCURVE",
"453 3 OFFCURVE",
"461 20 CURVE SMOOTH",
"794 717 LINE SMOOTH",
"801 732 OFFCURVE",
"796 742 OFFCURVE",
"780 742 CURVE SMOOTH"
);
}
);
};
layerId = "258ED206-D907-4350-8EBA-CBDDA1C16BF7";
paths = (
{
closed = 1;
nodes = (
"603 742 LINE",
"399 266 LINE",
"320 742 LINE",
"86 742 LINE",
"233 0 LINE",
"451 0 LINE",
"806 742 LINE"
);
}
);
width = 751;
},
{
background = {
paths = (
{
closed = 1;
nodes = (
"671 742 LINE SMOOTH",
"665 742 OFFCURVE",
"663 741 OFFCURVE",
"660 736 CURVE SMOOTH",
"319 61 LINE SMOOTH",
"314 52 OFFCURVE",
"309 51 OFFCURVE",
"306 63 CURVE SMOOTH",
"162 733 LINE SMOOTH",
"161 740 OFFCURVE",
"158 742 OFFCURVE",
"150 742 CURVE SMOOTH",
"127 742 LINE SMOOTH",
"120 742 OFFCURVE",
"118 739 OFFCURVE",
"119 733 CURVE SMOOTH",
"273 11 LINE SMOOTH",
"275 2 OFFCURVE",
"280 0 OFFCURVE",
"291 0 CURVE SMOOTH",
"323 0 LINE SMOOTH",
"332 0 OFFCURVE",
"335 2 OFFCURVE",
"339 10 CURVE SMOOTH",
"704 732 LINE SMOOTH",
"707 739 OFFCURVE",
"706 742 OFFCURVE",
"700 742 CURVE SMOOTH"
);
}
);
};
layerId = "91AB5BCA-6A50-42DA-B2F7-8181BF189245";
paths = (
{
closed = 1;
nodes = (
"663 742 LINE",
"310 44 LINE",
"160 742 LINE",
"117 742 LINE",
"275 0 LINE",
"334 0 LINE",
"709 742 LINE"
);
}
);
width = 690;
}
);
leftKerningGroup = V;
rightKerningGroup = V;
unicode = 0056;
},
{
glyphname = W;
lastChange = "2016-11-06 13:02:13 +0000";
layers = (
{
anchors = (
{
name = top;
position = "{623, 742}";
}
);
background = {
anchors = (
{
name = top;
position = "{623, 742}";
}
);
paths = (
{
closed = 1;
nodes = (
"999 742 LINE SMOOTH",
"978 742 OFFCURVE",
"973 739 OFFCURVE",
"968 726 CURVE SMOOTH",
"811 343 LINE SMOOTH",
"807 332 OFFCURVE",
"800 333 OFFCURVE",
"799 341 CURVE SMOOTH",
"742 716 LINE SMOOTH",
"740 732 OFFCURVE",
"738 742 OFFCURVE",
"717 742 CURVE SMOOTH",
"573 742 LINE SMOOTH",
"552 742 OFFCURVE",
"546 739 OFFCURVE",
"541 726 CURVE SMOOTH",
"381 348 LINE SMOOTH",
"376 335 OFFCURVE",
"371 335 OFFCURVE",
"369 349 CURVE SMOOTH",
"315 716 LINE SMOOTH",
"313 731 OFFCURVE",
"306 742 OFFCURVE",
"285 742 CURVE SMOOTH",
"118 742 LINE SMOOTH",
"92 742 OFFCURVE",
"86 730 OFFCURVE",
"90 707 CURVE SMOOTH",
"200 24 LINE SMOOTH",
"203 7 OFFCURVE",
"212 0 OFFCURVE",
"232 0 CURVE SMOOTH",
"377 0 LINE SMOOTH",
"398 0 OFFCURVE",
"405 3 OFFCURVE",
"413 20 CURVE SMOOTH",
"570 380 LINE SMOOTH",
"575 391 OFFCURVE",
"580 392 OFFCURVE",
"582 380 CURVE SMOOTH",
"639 21 LINE SMOOTH",
"642 4 OFFCURVE",
"652 0 OFFCURVE",
"672 0 CURVE SMOOTH",
"810 0 LINE SMOOTH",
"830 0 OFFCURVE",
"837 3 OFFCURVE",
"846 20 CURVE SMOOTH",
"1145 697 LINE SMOOTH",
"1160 732 OFFCURVE",
"1159 742 OFFCURVE",
"1133 742 CURVE SMOOTH"
);
}
);
};
layerId = "258ED206-D907-4350-8EBA-CBDDA1C16BF7";
paths = (
{
closed = 1;
nodes = (
"975 742 LINE",
"802 321 LINE",
"738 742 LINE",
"548 742 LINE",
"372 327 LINE",
"311 742 LINE",
"84 742 LINE",
"204 0 LINE",
"404 0 LINE",
"579 400 LINE",
"642 0 LINE",
"837 0 LINE",
"1165 742 LINE"
);
}
);
width = 1109;
},
{
anchors = (
{
name = top;
position = "{580, 742}";
}
);
background = {
anchors = (
{
name = top;
position = "{580, 742}";
}
);
guideLines = (
{
position = "{47, 125}";
showMeasurement = 1;
}
);
paths = (
{
closed = 1;
nodes = (
"1001 742 LINE SMOOTH",
"995 742 OFFCURVE",
"991 741 OFFCURVE",
"989 736 CURVE SMOOTH",
"706 73 LINE SMOOTH",
"701 59 OFFCURVE",
"697 59 OFFCURVE",
"695 70 CURVE SMOOTH",
"602 733 LINE SMOOTH",
"601 740 OFFCURVE",
"599 742 OFFCURVE",
"591 742 CURVE SMOOTH",
"566 742 LINE SMOOTH",
"557 742 OFFCURVE",
"555 741 OFFCURVE",
"553 736 CURVE SMOOTH",
"270 72 LINE SMOOTH",
"265 60 OFFCURVE",
"261 60 OFFCURVE",
"259 72 CURVE SMOOTH",
"166 733 LINE SMOOTH",
"165 739 OFFCURVE",
"163 742 OFFCURVE",
"155 742 CURVE SMOOTH",
"130 742 LINE SMOOTH",
"123 742 OFFCURVE",
"121 739 OFFCURVE",
"122 733 CURVE SMOOTH",
"223 11 LINE SMOOTH",
"224 3 OFFCURVE",
"229 0 OFFCURVE",
"239 0 CURVE SMOOTH",
"271 0 LINE SMOOTH",
"281 0 OFFCURVE",
"284 2 OFFCURVE",
"288 10 CURVE SMOOTH",
"564 655 LINE SMOOTH",
"566 659 OFFCURVE",
"568 659 OFFCURVE",
"569 655 CURVE SMOOTH",
"659 11 LINE SMOOTH",
"660 4 OFFCURVE",
"666 0 OFFCURVE",
"676 0 CURVE SMOOTH",
"708 0 LINE SMOOTH",
"718 0 OFFCURVE",
"721 2 OFFCURVE",
"724 10 CURVE SMOOTH",
"1034 732 LINE SMOOTH",
"1034 737 OFFCURVE",
"1032 742 OFFCURVE",
"1026 742 CURVE SMOOTH"
);
}
);
};
guideLines = (
{
position = "{47, 125}";
showMeasurement = 1;
}
);
layerId = "91AB5BCA-6A50-42DA-B2F7-8181BF189245";
paths = (
{
closed = 1;
nodes = (
"992 742 LINE",
"697 53 LINE",
"601 742 LINE",
"556 742 LINE",
"262 53 LINE",
"165 742 LINE",
"121 742 LINE",
"225 0 LINE",
"284 0 LINE",
"568 664 LINE",
"661 0 LINE",
"720 0 LINE",
"1038 742 LINE"
);
}
);
width = 1021;
}
);
leftKerningGroup = W;
rightKerningGroup = W;
unicode = 0057;
},
{
glyphname = X;
lastChange = "2016-11-06 13:02:13 +0000";
layers = (
{
background = {
paths = (
{
closed = 1;
nodes = (
"515 378 LINE SMOOTH",
"509 390 OFFCURVE",
"509 396 OFFCURVE",
"524 414 CURVE SMOOTH",
"756 704 LINE SMOOTH",
"766 719 OFFCURVE",
"773 742 OFFCURVE",
"749 742 CURVE SMOOTH",
"585 742 LINE SMOOTH",
"563 742 OFFCURVE",
"556 740 OFFCURVE",
"546 726 CURVE SMOOTH",
"427 559 LINE SMOOTH",
"420 549 OFFCURVE",
"413 547 OFFCURVE",
"408 559 CURVE SMOOTH",
"338 721 LINE SMOOTH",
"331 738 OFFCURVE",
"324 742 OFFCURVE",
"302 742 CURVE SMOOTH",
"113 742 LINE SMOOTH",
"94 742 OFFCURVE",
"90 731 OFFCURVE",
"97 717 CURVE SMOOTH",
"258 397 LINE SMOOTH",
"263 382 OFFCURVE",
"260 376 OFFCURVE",
"247 361 CURVE SMOOTH",
"6 56 LINE SMOOTH",
"-24 16 OFFCURVE",
"-16 0 OFFCURVE",
"12 0 CURVE SMOOTH",
"161 0 LINE SMOOTH",
"181 0 OFFCURVE",
"194 0 OFFCURVE",
"204 15 CURVE SMOOTH",
"345 211 LINE SMOOTH",
"356 227 OFFCURVE",
"361 228 OFFCURVE",
"368 213 CURVE SMOOTH",
"454 19 LINE SMOOTH",
"461 3 OFFCURVE",
"472 0 OFFCURVE",
"492 0 CURVE SMOOTH",
"672 0 LINE SMOOTH",
"700 0 OFFCURVE",
"706 7 OFFCURVE",
"686 46 CURVE SMOOTH"
);
}
);
};
layerId = "258ED206-D907-4350-8EBA-CBDDA1C16BF7";
paths = (
{
closed = 1;
nodes = (
"507 393 LINE",
"786 742 LINE",
"557 742 LINE",
"415 542 LINE",
"329 742 LINE",
"84 742 LINE",
"265 384 LINE",
"-38 0 LINE",
"193 0 LINE",
"360 232 LINE",
"462 0 LINE",
"710 0 LINE"
);
}
);
width = 756;
},
{
background = {
paths = (
{
closed = 1;
nodes = (
"376 373 LINE SMOOTH",
"374 377 OFFCURVE",
"374 380 OFFCURVE",
"378 384 CURVE SMOOTH",
"664 735 LINE SMOOTH",
"666 738 OFFCURVE",
"666 742 OFFCURVE",
"662 742 CURVE SMOOTH",
"620 742 LINE SMOOTH",
"616 742 OFFCURVE",
"614 741 OFFCURVE",
"612 739 CURVE SMOOTH",
"358 429 LINE SMOOTH",
"352 422 OFFCURVE",
"348 422 OFFCURVE",
"344 429 CURVE SMOOTH",
"180 737 LINE SMOOTH",
"178 741 OFFCURVE",
"177 742 OFFCURVE",
"172 742 CURVE SMOOTH",
"133 742 LINE SMOOTH",
"129 742 OFFCURVE",
"129 739 OFFCURVE",
"131 735 CURVE SMOOTH",
"315 392 LINE SMOOTH",
"319 384 OFFCURVE",
"317 378 OFFCURVE",
"311 371 CURVE SMOOTH",
"18 11 LINE SMOOTH",
"12 3 OFFCURVE",
"12 0 OFFCURVE",
"18 0 CURVE SMOOTH",
"58 0 LINE SMOOTH",
"61 0 OFFCURVE",
"64 1 OFFCURVE",
"66 3 CURVE SMOOTH",
"334 330 LINE SMOOTH",
"340 338 OFFCURVE",
"345 337 OFFCURVE",
"350 328 CURVE SMOOTH",
"524 5 LINE SMOOTH",
"526 1 OFFCURVE",
"528 0 OFFCURVE",
"531 0 CURVE SMOOTH",
"567 0 LINE SMOOTH",
"573 0 OFFCURVE",
"574 2 OFFCURVE",
"570 9 CURVE SMOOTH"
);
}
);
};
layerId = "91AB5BCA-6A50-42DA-B2F7-8181BF189245";
paths = (
{
closed = 1;
nodes = (
"373 378 LINE",
"670 742 LINE",
"614 742 LINE",
"350 419 LINE",
"177 742 LINE",
"127 742 LINE",
"320 382 LINE",
"9 0 LINE",
"64 0 LINE",
"343 341 LINE",
"527 0 LINE",
"575 0 LINE"
);
}
);
width = 662;
}
);
leftKerningGroup = X;
rightKerningGroup = X;
unicode = 0058;
},
{
glyphname = Y;
lastChange = "2016-11-06 14:19:05 +0000";
layers = (
{
anchors = (
{
name = bottom;
position = "{350, 0}";
},
{
name = top;
position = "{470, 742}";
},
{
name = topleft;
position = "{87, 742}";
}
);
background = {
anchors = (
{
name = bottom;
position = "{350, 0}";
},
{
name = top;
position = "{470, 742}";
},
{
name = topleft;
position = "{87, 742}";
}
);
paths = (
{
closed = 1;
nodes = (
"638 742 LINE SMOOTH",
"619 742 OFFCURVE",
"615 741 OFFCURVE",
"605 726 CURVE SMOOTH",
"445 494 LINE SMOOTH",
"440 487 OFFCURVE",
"437 487 OFFCURVE",
"434 494 CURVE SMOOTH",
"341 716 LINE SMOOTH",
"334 732 OFFCURVE",
"329 742 OFFCURVE",
"310 742 CURVE SMOOTH",
"109 742 LINE SMOOTH",
"88 742 OFFCURVE",
"86 735 OFFCURVE",
"94 719 CURVE SMOOTH",
"275 337 LINE SMOOTH",
"281 322 OFFCURVE",
"283 315 OFFCURVE",
"280 294 CURVE SMOOTH",
"242 24 LINE SMOOTH",
"240 7 OFFCURVE",
"243 0 OFFCURVE",
"261 0 CURVE SMOOTH",
"437 0 LINE SMOOTH",
"460 0 OFFCURVE",
"466 2 OFFCURVE",
"469 23 CURVE SMOOTH",
"504 269 LINE SMOOTH",
"509 311 OFFCURVE",
"514 322 OFFCURVE",
"525 336 CURVE SMOOTH",
"816 718 LINE SMOOTH",
"823 728 OFFCURVE",
"820 742 OFFCURVE",
"803 742 CURVE SMOOTH"
);
}
);
};
layerId = "258ED206-D907-4350-8EBA-CBDDA1C16BF7";
paths = (
{
closed = 1;
nodes = (
"616 742 LINE",
"438 484 LINE",
"330 742 LINE",
"83 742 LINE",
"284 319 LINE",
"239 0 LINE",
"466 0 LINE",
"510 314 LINE",
"834 742 LINE"
);
}
);
width = 774;
},
{
anchors = (
{
name = bottom;
position = "{282, 0}";
},
{
name = top;
position = "{381, 742}";
},
{
name = topleft;
position = "{87, 742}";
}
);
background = {
anchors = (
{
name = bottom;
position = "{282, 0}";
},
{
name = top;
position = "{381, 742}";
},
{
name = topleft;
position = "{87, 742}";
}
);
paths = (
{
closed = 1;
nodes = (
"622 742 LINE SMOOTH",
"613 742 OFFCURVE",
"610 741 OFFCURVE",
"605 734 CURVE SMOOTH",
"345 375 LINE SMOOTH",
"334 360 OFFCURVE",
"327 361 OFFCURVE",
"321 375 CURVE SMOOTH",
"162 732 LINE SMOOTH",
"159 739 OFFCURVE",
"156 742 OFFCURVE",
"147 742 CURVE SMOOTH",
"123 742 LINE SMOOTH",
"113 742 OFFCURVE",
"113 738 OFFCURVE",
"116 731 CURVE SMOOTH",
"302 316 LINE SMOOTH",
"305 309 OFFCURVE",
"305 306 OFFCURVE",
"303 296 CURVE SMOOTH",
"263 12 LINE SMOOTH",
"262 5 OFFCURVE",
"263 0 OFFCURVE",
"272 0 CURVE SMOOTH",
"293 0 LINE SMOOTH",
"304 0 OFFCURVE",
"308 3 OFFCURVE",
"309 12 CURVE SMOOTH",
"351 305 LINE SMOOTH",
"352 315 OFFCURVE",
"354 319 OFFCURVE",
"358 325 CURVE SMOOTH",
"654 730 LINE SMOOTH",
"659 736 OFFCURVE",
"657 742 OFFCURVE",
"650 742 CURVE SMOOTH"
);
}
);
};
layerId = "91AB5BCA-6A50-42DA-B2F7-8181BF189245";
paths = (
{
closed = 1;
nodes = (
"611 742 LINE",
"330 354 LINE",
"158 742 LINE",
"111 742 LINE",
"305 310 LINE",
"261 0 LINE",
"307 0 LINE",
"353 318 LINE",
"663 742 LINE"
);
}
);
width = 638;
}
);
leftKerningGroup = Y;
rightKerningGroup = Y;
unicode = 0059;
},
{
glyphname = Z;
lastChange = "2016-11-06 13:02:13 +0000";
layers = (
{
anchors = (
{
name = bottom;
position = "{310, 0}";
},
{
name = top;
position = "{438, 742}";
}
);
background = {
anchors = (
{
name = bottom;
position = "{310, 0}";
},
{
name = top;
position = "{438, 742}";
}
);
paths = (
{
closed = 1;
nodes = (
"620 0 LINE SMOOTH",
"637 0 OFFCURVE",
"640 4 OFFCURVE",
"642 16 CURVE SMOOTH",
"661 149 LINE SMOOTH",
"663 163 OFFCURVE",
"660 166 OFFCURVE",
"646 166 CURVE SMOOTH",
"337 166 LINE SMOOTH",
"331 166 OFFCURVE",
"330 170 OFFCURVE",
"335 175 CURVE SMOOTH",
"721 625 LINE SMOOTH",
"734 643 OFFCURVE",
"737 650 OFFCURVE",
"739 665 CURVE SMOOTH",
"747 720 LINE SMOOTH",
"749 733 OFFCURVE",
"745 742 OFFCURVE",
"733 742 CURVE SMOOTH",
"140 742 LINE SMOOTH",
"129 742 OFFCURVE",
"126 740 OFFCURVE",
"124 727 CURVE SMOOTH",
"107 607 LINE SMOOTH",
"105 589 OFFCURVE",
"112 577 OFFCURVE",
"129 577 CURVE SMOOTH",
"394 577 LINE SMOOTH",
"408 577 OFFCURVE",
"404 577 OFFCURVE",
"395 566 CURVE SMOOTH",
"23 126 LINE SMOOTH",
"5 104 OFFCURVE",
"1 95 OFFCURVE",
"-1 76 CURVE SMOOTH",
"-7 26 LINE SMOOTH",
"-9 6 OFFCURVE",
"-1 0 OFFCURVE",
"19 0 CURVE SMOOTH"
);
}
);
};
layerId = "258ED206-D907-4350-8EBA-CBDDA1C16BF7";
paths = (
{
closed = 1;
nodes = (
"640 0 LINE",
"663 166 LINE",
"327 166 LINE",
"736 642 LINE",
"750 742 LINE",
"126 742 LINE",
"103 577 LINE",
"404 577 LINE",
"2 101 LINE",
"-10 0 LINE"
);
}
);
width = 714;
},
{
anchors = (
{
name = bottom;
position = "{275, 0}";
},
{
name = top;
position = "{372, 742}";
}
);
background = {
anchors = (
{
name = bottom;
position = "{275, 0}";
},
{
name = top;
position = "{372, 742}";
}
);
paths = (
{
closed = 1;
nodes = (
"501 0 LINE SMOOTH",
"506 0 OFFCURVE",
"507 2 OFFCURVE",
"508 6 CURVE SMOOTH",
"512 34 LINE SMOOTH",
"512 38 OFFCURVE",
"509 40 OFFCURVE",
"505 40 CURVE SMOOTH",
"86 40 LINE SMOOTH",
"83 40 OFFCURVE",
"81 42 OFFCURVE",
"85 47 CURVE SMOOTH",
"602 706 LINE SMOOTH",
"606 711 OFFCURVE",
"607 713 OFFCURVE",
"608 718 CURVE SMOOTH",
"610 735 LINE SMOOTH",
"611 740 OFFCURVE",
"608 742 OFFCURVE",
"604 742 CURVE SMOOTH",
"137 742 LINE SMOOTH",
"133 742 OFFCURVE",
"132 741 OFFCURVE",
"131 737 CURVE SMOOTH",
"128 710 LINE SMOOTH",
"127 705 OFFCURVE",
"129 702 OFFCURVE",
"134 702 CURVE SMOOTH",
"539 702 LINE SMOOTH",
"543 702 OFFCURVE",
"545 700 OFFCURVE",
"542 696 CURVE SMOOTH",
"29 40 LINE SMOOTH",
"23 33 OFFCURVE",
"22 29 OFFCURVE",
"21 23 CURVE SMOOTH",
"19 8 LINE SMOOTH",
"18 3 OFFCURVE",
"21 0 OFFCURVE",
"27 0 CURVE SMOOTH"
);
}
);
};
layerId = "91AB5BCA-6A50-42DA-B2F7-8181BF189245";
paths = (
{
closed = 1;
nodes = (
"507 0 LINE",
"513 40 LINE",
"80 40 LINE",
"607 713 LINE",
"611 742 LINE",
"132 742 LINE",
"127 702 LINE",
"547 702 LINE",
"22 31 LINE",
"18 0 LINE"
);
}
);
width = 600;
}
);
leftKerningGroup = Z;
rightKerningGroup = Z;
unicode = 005A;
},
{
glyphname = a;
lastChange = "2016-11-07 00:18:58 +0000";
layers = (
{
anchors = (
{
name = bottom;
position = "{250, 0}";
},
{
name = ogonek;
position = "{473, 10}";
},
{
name = top;
position = "{334, 530}";
}
);
background = {
anchors = (
{
name = bottom;
position = "{250, 0}";
},
{
name = ogonek;
position = "{473, 10}";
},
{
name = top;
position = "{334, 530}";
}
);
guideLines = (
{
angle = 90;
position = "{347, 102}";
}
);
paths = (
{
closed = 1;
nodes = (
"312 57 OFFCURVE",
"321 57 OFFCURVE",
"322 44 CURVE SMOOTH",
"323 32 LINE SMOOTH",
"325 13 OFFCURVE",
"326 0 OFFCURVE",
"344 0 CURVE SMOOTH",
"481 0 LINE SMOOTH",
"500 0 OFFCURVE",
"500 1 OFFCURVE",
"503 21 CURVE SMOOTH",
"552 369 LINE SMOOTH",
"553 379 OFFCURVE",
"554 389 OFFCURVE",
"554 398 CURVE SMOOTH",
"554 481 OFFCURVE",
"498 540 OFFCURVE",
"328 540 CURVE SMOOTH",
"201 540 OFFCURVE",
"109 511 OFFCURVE",
"66 432 CURVE",
"54 401 OFFCURVE",
"63 392 OFFCURVE",
"74 390 CURVE SMOOTH",
"201 364 LINE SMOOTH",
"218 361 OFFCURVE",
"223 364 OFFCURVE",
"227 372 CURVE SMOOTH",
"248 415 OFFCURVE",
"286 421 OFFCURVE",
"318 421 CURVE SMOOTH",
"349 421 OFFCURVE",
"363 410 OFFCURVE",
"363 383 CURVE SMOOTH",
"363 379 OFFCURVE",
"363 374 OFFCURVE",
"362 369 CURVE SMOOTH",
"359 352 LINE SMOOTH",
"357 339 OFFCURVE",
"349 332 OFFCURVE",
"337 332 CURVE SMOOTH",
"330 332 LINE SMOOTH",
"190 332 OFFCURVE",
"-1 280 OFFCURVE",
"-1 123 CURVE SMOOTH",
"-1 47 OFFCURVE",
"53 -10 OFFCURVE",
"147 -10 CURVE SMOOTH",
"205 -10 OFFCURVE",
"262 4 OFFCURVE",
"296 40 CURVE SMOOTH"
);
},
{
closed = 1;
nodes = (
"333 162 OFFCURVE",
"320 147 OFFCURVE",
"307 136 CURVE SMOOTH",
"294 125 OFFCURVE",
"270 116 OFFCURVE",
"240 116 CURVE SMOOTH",
"211 116 OFFCURVE",
"196 134 OFFCURVE",
"196 155 CURVE SMOOTH",
"196 216 OFFCURVE",
"278 238 OFFCURVE",
"319 241 CURVE SMOOTH",
"333 242 LINE SMOOTH",
"345 243 OFFCURVE",
"344 242 OFFCURVE",
"342 230 CURVE SMOOTH",
"335 177 LINE SMOOTH"
);
}
);
};
guideLines = (
{
angle = 90;
position = "{347, 102}";
}
);
layerId = "258ED206-D907-4350-8EBA-CBDDA1C16BF7";
paths = (
{
closed = 1;
nodes = (
"326 0 LINE",
"500 0 LINE",
"552 369 LINE SMOOTH",
"553 379 OFFCURVE",
"554 389 OFFCURVE",
"554 398 CURVE SMOOTH",
"554 481 OFFCURVE",
"498 540 OFFCURVE",
"328 540 CURVE SMOOTH",
"191 540 OFFCURVE",
"92 501 OFFCURVE",
"46 396 CURVE",
"221 360 LINE",
"243 414 OFFCURVE",
"284 421 OFFCURVE",
"318 421 CURVE SMOOTH",
"349 421 OFFCURVE",
"363 408 OFFCURVE",
"363 375 CURVE",
"356 332 LINE",
"330 332 LINE SMOOTH",
"190 332 OFFCURVE",
"-1 280 OFFCURVE",
"-1 123 CURVE SMOOTH",
"-1 47 OFFCURVE",
"53 -10 OFFCURVE",
"147 -10 CURVE SMOOTH",
"214 -10 OFFCURVE",
"281 11 OFFCURVE",
"320 65 CURVE"
);
},
{
closed = 1;
nodes = (
"333 162 OFFCURVE",
"320 147 OFFCURVE",
"307 136 CURVE SMOOTH",
"294 125 OFFCURVE",
"270 116 OFFCURVE",
"240 116 CURVE SMOOTH",
"211 116 OFFCURVE",
"196 134 OFFCURVE",
"196 155 CURVE SMOOTH",
"196 216 OFFCURVE",
"278 238 OFFCURVE",
"319 241 CURVE SMOOTH",
"344 243 LINE",
"335 177 LINE SMOOTH"
);
}
);
width = 573;
},
{
anchors = (
{
name = bottom;
position = "{232, 0}";
},
{
name = ogonek;
position = "{416, 14}";
},
{
name = top;
position = "{303, 530}";
}
);
background = {
anchors = (
{
name = bottom;
position = "{232, 0}";
},
{
name = ogonek;
position = "{416, 14}";
},
{
name = top;
position = "{303, 530}";
}
);
hints = (
{
horizontal = 1;
place = "{4037, 100}";
}
);
paths = (
{
closed = 1;
nodes = (
"388 77 OFFCURVE",
"391 78 OFFCURVE",
"391 71 CURVE",
"384 10 LINE SMOOTH",
"383 3 OFFCURVE",
"387 0 OFFCURVE",
"393 0 CURVE SMOOTH",
"411 0 LINE SMOOTH",
"417 0 OFFCURVE",
"420 1 OFFCURVE",
"421 9 CURVE SMOOTH",
"471 366 LINE SMOOTH",
"472 376 OFFCURVE",
"473 386 OFFCURVE",
"473 396 CURVE SMOOTH",
"473 486 OFFCURVE",
"410 540 OFFCURVE",
"307 540 CURVE SMOOTH",
"213 540 OFFCURVE",
"139 494 OFFCURVE",
"89 433 CURVE",
"85 427 OFFCURVE",
"86 424 OFFCURVE",
"89 422 CURVE SMOOTH",
"111 407 LINE",
"115 404 OFFCURVE",
"117 404 OFFCURVE",
"121 408 CURVE",
"175 469 OFFCURVE",
"233 502 OFFCURVE",
"303 502 CURVE SMOOTH",
"383 502 OFFCURVE",
"433 459 OFFCURVE",
"433 388 CURVE SMOOTH",
"433 380 OFFCURVE",
"432 372 OFFCURVE",
"431 364 CURVE SMOOTH",
"427 333 LINE SMOOTH",
"426 324 OFFCURVE",
"417 318 OFFCURVE",
"406 317 CURVE SMOOTH",
"300 308 LINE SMOOTH",
"166 297 OFFCURVE",
"28 250 OFFCURVE",
"28 113 CURVE SMOOTH",
"28 37 OFFCURVE",
"85 -10 OFFCURVE",
"181 -10 CURVE SMOOTH",
"254 -10 OFFCURVE",
"319 16 OFFCURVE",
"382 70 CURVE"
);
},
{
closed = 1;
nodes = (
"400 142 OFFCURVE",
"374 108 OFFCURVE",
"332 78 CURVE SMOOTH",
"291 48 OFFCURVE",
"239 28 OFFCURVE",
"189 28 CURVE SMOOTH",
"116 28 OFFCURVE",
"71 61 OFFCURVE",
"71 118 CURVE SMOOTH",
"71 241 OFFCURVE",
"222 266 OFFCURVE",
"316 273 CURVE SMOOTH",
"406 280 LINE SMOOTH",
"415 281 OFFCURVE",
"418 278 OFFCURVE",
"417 267 CURVE",
"404 172 LINE SMOOTH"
);
}
);
};
hints = (
{
horizontal = 1;
place = "{4037, 100}";
}
);
layerId = "91AB5BCA-6A50-42DA-B2F7-8181BF189245";
paths = (
{
closed = 1;
nodes = (
"383 0 LINE",
"420 0 LINE",
"471 366 LINE SMOOTH",
"472 376 OFFCURVE",
"473 386 OFFCURVE",
"473 396 CURVE SMOOTH",
"473 486 OFFCURVE",
"410 540 OFFCURVE",
"307 540 CURVE SMOOTH",
"211 540 OFFCURVE",
"135 491 OFFCURVE",
"83 426 CURVE",
"117 403 LINE",
"172 467 OFFCURVE",
"231 502 OFFCURVE",
"303 502 CURVE SMOOTH",
"383 502 OFFCURVE",
"433 456 OFFCURVE",
"433 380 CURVE",
"425 319 LINE",
"300 308 LINE SMOOTH",
"166 297 OFFCURVE",
"28 250 OFFCURVE",
"28 113 CURVE SMOOTH",
"28 37 OFFCURVE",
"85 -10 OFFCURVE",
"181 -10 CURVE SMOOTH",
"258 -10 OFFCURVE",
"326 19 OFFCURVE",
"392 78 CURVE"
);
},
{
closed = 1;
nodes = (
"400 142 OFFCURVE",
"374 108 OFFCURVE",
"332 78 CURVE SMOOTH",
"291 48 OFFCURVE",
"239 28 OFFCURVE",
"189 28 CURVE SMOOTH",
"116 28 OFFCURVE",
"71 61 OFFCURVE",
"71 118 CURVE SMOOTH",
"71 241 OFFCURVE",
"222 266 OFFCURVE",
"316 273 CURVE SMOOTH",
"419 281 LINE",
"404 172 LINE SMOOTH"
);
}
);
width = 538;
}
);
leftKerningGroup = a;
rightKerningGroup = a;
unicode = 0061;
},
{
glyphname = ae;
lastChange = "2016-11-06 13:18:07 +0000";
layers = (
{
anchors = (
{
name = top;
position = "{492, 530}";
}
);
background = {
anchors = (
{
name = top;
position = "{492, 530}";
}
);
paths = (
{
closed = 1;
nodes = (
"876 229 LINE SMOOTH",
"893 230 OFFCURVE",
"890 231 OFFCURVE",
"892 243 CURVE SMOOTH",
"918 429 OFFCURVE",
"815 540 OFFCURVE",
"654 540 CURVE SMOOTH",
"606 540 OFFCURVE",
"555 529 OFFCURVE",
"504 500 CURVE",
"473 522 OFFCURVE",
"416 539 OFFCURVE",
"323 540 CURVE SMOOTH",
"174 540 OFFCURVE",
"114 504 OFFCURVE",
"65 432 CURVE SMOOTH",
"59 415 OFFCURVE",
"64 392 OFFCURVE",
"73 390 CURVE SMOOTH",
"200 364 LINE SMOOTH",
"217 361 OFFCURVE",
"218 356 OFFCURVE",
"226 364 CURVE",
"247 406 OFFCURVE",
"285 421 OFFCURVE",
"317 421 CURVE SMOOTH",
"353 421 OFFCURVE",
"366 406 OFFCURVE",
"361 369 CURVE SMOOTH",
"358 352 LINE SMOOTH",
"357 340 OFFCURVE",
"341 332 OFFCURVE",
"333 332 CURVE",
"310 331 LINE SMOOTH",
"117 322 OFFCURVE",
"16 256 OFFCURVE",
"1 154 CURVE SMOOTH",
"-12 58 OFFCURVE",
"42 -10 OFFCURVE",
"159 -10 CURVE SMOOTH",
"247 -10 OFFCURVE",
"314 8 OFFCURVE",
"382 62 CURVE SMOOTH",
"384 69 OFFCURVE",
"392 79 OFFCURVE",
"398 79 CURVE SMOOTH",
"438 24 OFFCURVE",
"508 -10 OFFCURVE",
"596 -10 CURVE SMOOTH",
"704 -10 OFFCURVE",
"773 12 OFFCURVE",
"861 108 CURVE",
"870 124 OFFCURVE",
"863 136 OFFCURVE",
"853 140 CURVE SMOOTH",
"768 177 LINE SMOOTH",
"755 182 OFFCURVE",
"754 187 OFFCURVE",
"747 186 CURVE SMOOTH",
"698 139 OFFCURVE",
"664 122 OFFCURVE",
"626 122 CURVE SMOOTH",
"572 122 OFFCURVE",
"534 145 OFFCURVE",
"542 201 CURVE SMOOTH",
"544 218 OFFCURVE",
"555 229 OFFCURVE",
"565 229 CURVE SMOOTH"
);
},
{
closed = 1;
nodes = (
"708 423 OFFCURVE",
"717 378 OFFCURVE",
"714 357 CURVE SMOOTH",
"712 340 OFFCURVE",
"702 332 OFFCURVE",
"689 332 CURVE SMOOTH",
"563 327 LINE",
"570 389 OFFCURVE",
"617 423 OFFCURVE",
"662 423 CURVE SMOOTH"
);
},
{
closed = 1;
nodes = (
"332 166 LINE SMOOTH",
"327 133 OFFCURVE",
"283 108 OFFCURVE",
"241 108 CURVE SMOOTH",
"206 108 OFFCURVE",
"191 121 OFFCURVE",
"194 145 CURVE SMOOTH",
"202 199 OFFCURVE",
"275 230 OFFCURVE",
"314 233 CURVE SMOOTH",
"328 234 LINE SMOOTH",
"340 234 OFFCURVE",
"342 234 OFFCURVE",
"340 222 CURVE SMOOTH"
);
}
);
};
layerId = "258ED206-D907-4350-8EBA-CBDDA1C16BF7";
paths = (
{
closed = 1;
nodes = (
"890 229 LINE",
"925 429 OFFCURVE",
"814 540 OFFCURVE",
"654 540 CURVE SMOOTH",
"606 540 OFFCURVE",
"555 529 OFFCURVE",
"504 500 CURVE",
"473 522 OFFCURVE",
"416 539 OFFCURVE",
"323 540 CURVE SMOOTH",
"160 540 OFFCURVE",
"94 492 OFFCURVE",
"41 397 CURVE",
"224 359 LINE",
"242 392 OFFCURVE",
"272 420 OFFCURVE",
"310 420 CURVE SMOOTH",
"333 420 OFFCURVE",
"373 415 OFFCURVE",
"362 364 CURVE SMOOTH",
"355 333 LINE",
"310 331 LINE SMOOTH",
"117 322 OFFCURVE",
"16 256 OFFCURVE",
"1 154 CURVE SMOOTH",
"-12 58 OFFCURVE",
"42 -10 OFFCURVE",
"159 -10 CURVE SMOOTH",
"247 -10 OFFCURVE",
"314 8 OFFCURVE",
"382 62 CURVE SMOOTH",
"384 69 OFFCURVE",
"392 79 OFFCURVE",
"398 79 CURVE SMOOTH",
"438 24 OFFCURVE",
"508 -10 OFFCURVE",
"596 -10 CURVE SMOOTH",
"712 -10 OFFCURVE",
"785 16 OFFCURVE",
"880 128 CURVE",
"747 186 LINE",
"698 139 OFFCURVE",
"664 122 OFFCURVE",
"626 122 CURVE SMOOTH",
"575 122 OFFCURVE",
"538 153 OFFCURVE",
"546 229 CURVE"
);
},
{
closed = 1;
nodes = (
"700 422 OFFCURVE",
"732 373 OFFCURVE",
"730 327 CURVE",
"563 327 LINE",
"570 389 OFFCURVE",
"612 422 OFFCURVE",
"657 422 CURVE SMOOTH"
);
},
{
closed = 1;
nodes = (
"332 166 LINE SMOOTH",
"327 133 OFFCURVE",
"283 108 OFFCURVE",
"241 108 CURVE SMOOTH",
"206 108 OFFCURVE",
"191 121 OFFCURVE",
"194 145 CURVE SMOOTH",
"202 199 OFFCURVE",
"275 230 OFFCURVE",
"314 233 CURVE SMOOTH",
"342 235 LINE"
);
}
);
width = 914;
},
{
anchors = (
{
name = top;
position = "{489, 530}";
}
);
background = {
anchors = (
{
name = top;
position = "{489, 530}";
}
);
hints = (
{
horizontal = 1;
place = "{4037, 100}";
}
);
paths = (
{
closed = 1;
nodes = (
"861 254 LINE SMOOTH",
"875 254 OFFCURVE",
"879 260 OFFCURVE",
"881 272 CURVE SMOOTH",
"905 443 OFFCURVE",
"826 540 OFFCURVE",
"688 540 CURVE SMOOTH",
"595 540 OFFCURVE",
"517 501 OFFCURVE",
"466 421 CURVE",
"458 500 OFFCURVE",
"407 540 OFFCURVE",
"307 540 CURVE SMOOTH",
"223 540 OFFCURVE",
"140 501 OFFCURVE",
"88 433 CURVE SMOOTH",
"85 427 OFFCURVE",
"85 424 OFFCURVE",
"88 422 CURVE SMOOTH",
"108 407 LINE SMOOTH",
"112 404 OFFCURVE",
"113 403 OFFCURVE",
"119 408 CURVE SMOOTH",
"174 469 OFFCURVE",
"232 502 OFFCURVE",
"297 502 CURVE SMOOTH",
"396 502 OFFCURVE",
"442 449 OFFCURVE",
"430 364 CURVE SMOOTH",
"426 333 LINE SMOOTH",
"424 324 OFFCURVE",
"416 318 OFFCURVE",
"404 317 CURVE SMOOTH",
"291 308 LINE SMOOTH",
"126 294 OFFCURVE",
"43 235 OFFCURVE",
"29 138 CURVE SMOOTH",
"16 46 OFFCURVE",
"71 -10 OFFCURVE",
"176 -10 CURVE SMOOTH",
"306 -10 OFFCURVE",
"374 61 OFFCURVE",
"417 106 CURVE SMOOTH",
"418 110 OFFCURVE",
"420 112 OFFCURVE",
"422 110 CURVE SMOOTH",
"445 66 OFFCURVE",
"488 -10 OFFCURVE",
"611 -10 CURVE SMOOTH",
"707 -10 OFFCURVE",
"795 36 OFFCURVE",
"838 98 CURVE SMOOTH",
"841 105 OFFCURVE",
"839 107 OFFCURVE",
"836 109 CURVE SMOOTH",
"816 124 LINE SMOOTH",
"812 127 OFFCURVE",
"811 128 OFFCURVE",
"805 123 CURVE SMOOTH",
"770 82 OFFCURVE",
"720 28 OFFCURVE",
"615 28 CURVE SMOOTH",
"504 28 OFFCURVE",
"431 133 OFFCURVE",
"445 226 CURVE SMOOTH",
"448 248 OFFCURVE",
"452 253 OFFCURVE",
"469 253 CURVE SMOOTH"
);
},
{
closed = 1;
nodes = (
"792 502 OFFCURVE",
"858 415 OFFCURVE",
"843 308 CURVE SMOOTH",
"841 295 OFFCURVE",
"839 290 OFFCURVE",
"823 290 CURVE SMOOTH",
"456 290 LINE",
"474 417 OFFCURVE",
"572 502 OFFCURVE",
"683 502 CURVE SMOOTH"
);
},
{
closed = 1;
nodes = (
"404 178 LINE",
"393 100 OFFCURVE",
"297 34 OFFCURVE",
"188 29 CURVE SMOOTH",
"104 25 OFFCURVE",
"63 70 OFFCURVE",
"72 136 CURVE SMOOTH",
"83 214 OFFCURVE",
"156 260 OFFCURVE",
"308 272 CURVE SMOOTH",
"404 279 LINE SMOOTH",
"417 280 OFFCURVE",
"418 276 OFFCURVE",
"416 266 CURVE SMOOTH"
);
}
);
};
hints = (
{
horizontal = 1;
place = "{4037, 100}";
}
);
layerId = "91AB5BCA-6A50-42DA-B2F7-8181BF189245";
paths = (
{
closed = 1;
nodes = (
"878 254 LINE",
"902 437 OFFCURVE",
"824 540 OFFCURVE",
"688 540 CURVE SMOOTH",
"595 540 OFFCURVE",
"517 501 OFFCURVE",
"466 421 CURVE",
"458 500 OFFCURVE",
"407 540 OFFCURVE",
"307 540 CURVE SMOOTH",
"221 540 OFFCURVE",
"136 498 OFFCURVE",
"83 426 CURVE",
"114 402 LINE",
"171 467 OFFCURVE",
"230 502 OFFCURVE",
"297 502 CURVE SMOOTH",
"396 502 OFFCURVE",
"442 449 OFFCURVE",
"430 364 CURVE SMOOTH",
"424 319 LINE",
"291 308 LINE SMOOTH",
"126 294 OFFCURVE",
"43 235 OFFCURVE",
"29 138 CURVE SMOOTH",
"16 46 OFFCURVE",
"71 -10 OFFCURVE",
"176 -10 CURVE SMOOTH",
"306 -10 OFFCURVE",
"374 61 OFFCURVE",
"417 106 CURVE SMOOTH",
"418 110 OFFCURVE",
"420 112 OFFCURVE",
"422 110 CURVE SMOOTH",
"445 66 OFFCURVE",
"488 -10 OFFCURVE",
"611 -10 CURVE SMOOTH",
"709 -10 OFFCURVE",
"799 39 OFFCURVE",
"842 104 CURVE",
"810 129 LINE",
"774 85 OFFCURVE",
"723 28 OFFCURVE",
"615 28 CURVE SMOOTH",
"507 28 OFFCURVE",
"435 147 OFFCURVE",
"449 253 CURVE"
);
},
{
closed = 1;
nodes = (
"790 502 OFFCURVE",
"855 407 OFFCURVE",
"840 290 CURVE",
"456 290 LINE",
"474 417 OFFCURVE",
"572 502 OFFCURVE",
"683 502 CURVE SMOOTH"
);
},
{
closed = 1;
nodes = (
"404 178 LINE",
"393 100 OFFCURVE",
"297 34 OFFCURVE",
"188 29 CURVE SMOOTH",
"104 25 OFFCURVE",
"63 70 OFFCURVE",
"72 136 CURVE SMOOTH",
"83 214 OFFCURVE",
"156 260 OFFCURVE",
"308 272 CURVE SMOOTH",
"418 280 LINE"
);
}
);
width = 929;
}
);
leftKerningGroup = a;
leftMetricsKey = a;
rightKerningGroup = e;
rightMetricsKey = e;
unicode = 00E6;
},
{
glyphname = b;
lastChange = "2016-11-06 13:02:13 +0000";
layers = (
{
background = {
paths = (
{
closed = 1;
nodes = (
"142 0 OFFCURVE",
"149 4 OFFCURVE",
"155 21 CURVE SMOOTH",
"171 65 LINE SMOOTH",
"178 84 OFFCURVE",
"187 81 OFFCURVE",
"191 74 CURVE SMOOTH",
"224 20 OFFCURVE",
"277 -10 OFFCURVE",
"335 -10 CURVE SMOOTH",
"522 -10 OFFCURVE",
"597 170 OFFCURVE",
"597 326 CURVE SMOOTH",
"597 459 OFFCURVE",
"533 540 OFFCURVE",
"418 540 CURVE SMOOTH",
"377 540 OFFCURVE",
"336 531 OFFCURVE",
"289 496 CURVE SMOOTH",
"277 487 OFFCURVE",
"272 489 OFFCURVE",
"274 500 CURVE SMOOTH",
"304 715 LINE SMOOTH",
"306 728 OFFCURVE",
"306 742 OFFCURVE",
"294 742 CURVE SMOOTH",
"123 742 LINE SMOOTH",
"112 742 OFFCURVE",
"108 740 OFFCURVE",
"106 725 CURVE SMOOTH",
"8 31 LINE SMOOTH",
"6 14 OFFCURVE",
"14 0 OFFCURVE",
"35 0 CURVE SMOOTH",
"129 0 LINE SMOOTH"
);
},
{
closed = 1;
nodes = (
"282 399 OFFCURVE",
"310 418 OFFCURVE",
"345 418 CURVE SMOOTH",
"380 418 OFFCURVE",
"398 400 OFFCURVE",
"398 341 CURVE SMOOTH",
"398 267 OFFCURVE",
"378 107 OFFCURVE",
"282 107 CURVE SMOOTH",
"244 107 OFFCURVE",
"222 129 OFFCURVE",
"229 179 CURVE SMOOTH",
"258 374 LINE"
);
}
);
};
layerId = "258ED206-D907-4350-8EBA-CBDDA1C16BF7";
paths = (
{
closed = 1;
nodes = (
"181 91 LINE",
"216 26 OFFCURVE",
"273 -10 OFFCURVE",
"335 -10 CURVE SMOOTH",
"522 -10 OFFCURVE",
"597 170 OFFCURVE",
"597 326 CURVE SMOOTH",
"597 459 OFFCURVE",
"533 540 OFFCURVE",
"418 540 CURVE SMOOTH",
"371 540 OFFCURVE",
"325 528 OFFCURVE",
"272 483 CURVE",
"308 742 LINE",
"108 742 LINE",
"4 0 LINE",
"147 0 LINE"
);
},
{
closed = 1;
nodes = (
"282 399 OFFCURVE",
"310 418 OFFCURVE",
"345 418 CURVE SMOOTH",
"380 418 OFFCURVE",
"398 400 OFFCURVE",
"398 341 CURVE SMOOTH",
"398 267 OFFCURVE",
"378 107 OFFCURVE",
"282 107 CURVE SMOOTH",
"244 107 OFFCURVE",
"222 129 OFFCURVE",
"229 179 CURVE SMOOTH",
"258 374 LINE"
);
}
);
width = 616;
},
{
background = {
paths = (
{
closed = 1;
nodes = (
"89 0 OFFCURVE",
"91 2 OFFCURVE",
"92 12 CURVE SMOOTH",
"102 63 LINE SMOOTH",
"103 72 OFFCURVE",
"109 75 OFFCURVE",
"113 69 CURVE SMOOTH",
"123 51 OFFCURVE",
"164 -10 OFFCURVE",
"268 -10 CURVE SMOOTH",
"455 -10 OFFCURVE",
"538 173 OFFCURVE",
"538 330 CURVE SMOOTH",
"538 450 OFFCURVE",
"484 540 OFFCURVE",
"353 540 CURVE SMOOTH",
"248 540 OFFCURVE",
"184 483 OFFCURVE",
"172 475 CURVE SMOOTH",
"162 466 OFFCURVE",
"159 464 OFFCURVE",
"161 477 CURVE SMOOTH",
"196 730 LINE SMOOTH",
"197 738 OFFCURVE",
"195 742 OFFCURVE",
"189 742 CURVE SMOOTH",
"166 742 LINE SMOOTH",
"160 742 OFFCURVE",
"158 740 OFFCURVE",
"157 733 CURVE SMOOTH",
"56 14 LINE SMOOTH",
"54 4 OFFCURVE",
"58 0 OFFCURVE",
"66 0 CURVE SMOOTH",
"77 0 LINE SMOOTH"
);
},
{
closed = 1;
nodes = (
"200 462 OFFCURVE",
"269 502 OFFCURVE",
"344 502 CURVE SMOOTH",
"445 502 OFFCURVE",
"495 434 OFFCURVE",
"495 325 CURVE SMOOTH",
"495 182 OFFCURVE",
"417 28 OFFCURVE",
"266 28 CURVE SMOOTH",
"183 28 OFFCURVE",
"107 95 OFFCURVE",
"118 176 CURVE SMOOTH",
"153 414 LINE"
);
}
);
};
layerId = "91AB5BCA-6A50-42DA-B2F7-8181BF189245";
paths = (
{
closed = 1;
nodes = (
"106 82 LINE",
"116 61 OFFCURVE",
"159 -10 OFFCURVE",
"268 -10 CURVE SMOOTH",
"455 -10 OFFCURVE",
"538 173 OFFCURVE",
"538 330 CURVE SMOOTH",
"538 450 OFFCURVE",
"484 540 OFFCURVE",
"353 540 CURVE SMOOTH",
"241 540 OFFCURVE",
"172 476 OFFCURVE",
"160 467 CURVE",
"198 742 LINE",
"158 742 LINE",
"54 0 LINE",
"90 0 LINE"
);
},
{
closed = 1;
nodes = (
"200 462 OFFCURVE",
"269 502 OFFCURVE",
"344 502 CURVE SMOOTH",
"445 502 OFFCURVE",
"495 434 OFFCURVE",
"495 325 CURVE SMOOTH",
"495 182 OFFCURVE",
"417 28 OFFCURVE",
"266 28 CURVE SMOOTH",
"183 28 OFFCURVE",
"107 95 OFFCURVE",
"118 176 CURVE SMOOTH",
"153 414 LINE"
);
}
);
width = 592;
}
);
rightKerningGroup = b;
unicode = 0062;
},
{
glyphname = c;
lastChange = "2016-11-06 13:02:13 +0000";
layers = (
{
anchors = (
{
name = bottom;
position = "{260, 0}";
},
{
name = top;
position = "{335, 530}";
}
);
background = {
anchors = (
{
name = bottom;
position = "{260, 0}";
},
{
name = top;
position = "{335, 530}";
}
);
paths = (
{
closed = 1;
nodes = (
"145 540 OFFCURVE",
"19 398 OFFCURVE",
"19 229 CURVE SMOOTH",
"19 86 OFFCURVE",
"118 -10 OFFCURVE",
"267 -10 CURVE SMOOTH",
"425 -10 OFFCURVE",
"504 100 OFFCURVE",
"520 146 CURVE SMOOTH",
"527 166 OFFCURVE",
"522 177 OFFCURVE",
"511 179 CURVE SMOOTH",
"419 197 LINE SMOOTH",
"407 199 OFFCURVE",
"404 199 OFFCURVE",
"401 194 CURVE SMOOTH",
"369 140 OFFCURVE",
"344 114 OFFCURVE",
"285 114 CURVE SMOOTH",
"242 114 OFFCURVE",
"217 136 OFFCURVE",
"217 202 CURVE SMOOTH",
"217 276 OFFCURVE",
"242 414 OFFCURVE",
"332 414 CURVE SMOOTH",
"376 414 OFFCURVE",
"377 383 OFFCURVE",
"379 362 CURVE SMOOTH",
"381 346 OFFCURVE",
"384 335 OFFCURVE",
"395 336 CURVE SMOOTH",
"527 343 LINE SMOOTH",
"544 344 OFFCURVE",
"547 347 OFFCURVE",
"547 359 CURVE SMOOTH",
"544 442 OFFCURVE",
"476 540 OFFCURVE",
"329 540 CURVE SMOOTH"
);
}
);
};
layerId = "258ED206-D907-4350-8EBA-CBDDA1C16BF7";
paths = (
{
closed = 1;
nodes = (
"145 540 OFFCURVE",
"19 398 OFFCURVE",
"19 229 CURVE SMOOTH",
"19 86 OFFCURVE",
"118 -10 OFFCURVE",
"267 -10 CURVE SMOOTH",
"431 -10 OFFCURVE",
"514 121 OFFCURVE",
"530 175 CURVE",
"404 200 LINE",
"372 142 OFFCURVE",
"346 114 OFFCURVE",
"285 114 CURVE SMOOTH",
"242 114 OFFCURVE",
"217 136 OFFCURVE",
"217 202 CURVE SMOOTH",
"217 276 OFFCURVE",
"242 414 OFFCURVE",
"332 414 CURVE SMOOTH",
"378 414 OFFCURVE",
"379 367 OFFCURVE",
"382 335 CURVE",
"548 344 LINE",
"545 434 OFFCURVE",
"476 540 OFFCURVE",
"329 540 CURVE SMOOTH"
);
}
);
width = 556;
},
{
anchors = (
{
name = bottom;
position = "{260, 0}";
},
{
name = top;
position = "{332, 530}";
}
);
background = {
anchors = (
{
name = bottom;
position = "{260, 0}";
},
{
name = top;
position = "{332, 530}";
}
);
paths = (
{
closed = 1;
nodes = (
"153 540 OFFCURVE",
"52 369 OFFCURVE",
"52 212 CURVE SMOOTH",
"52 78 OFFCURVE",
"131 -10 OFFCURVE",
"259 -10 CURVE SMOOTH",
"343 -10 OFFCURVE",
"421 27 OFFCURVE",
"480 105 CURVE SMOOTH",
"483 109 OFFCURVE",
"480 114 OFFCURVE",
"477 116 CURVE SMOOTH",
"456 131 LINE SMOOTH",
"453 134 OFFCURVE",
"451 135 OFFCURVE",
"446 130 CURVE SMOOTH",
"392 61 OFFCURVE",
"334 28 OFFCURVE",
"265 28 CURVE SMOOTH",
"158 28 OFFCURVE",
"94 101 OFFCURVE",
"94 215 CURVE SMOOTH",
"94 357 OFFCURVE",
"184 502 OFFCURVE",
"336 502 CURVE SMOOTH",
"391 502 OFFCURVE",
"433 479 OFFCURVE",
"479 413 CURVE SMOOTH",
"483 408 OFFCURVE",
"486 404 OFFCURVE",
"489 406 CURVE SMOOTH",
"514 420 LINE SMOOTH",
"517 422 OFFCURVE",
"518 426 OFFCURVE",
"514 431 CURVE SMOOTH",
"478 498 OFFCURVE",
"423 540 OFFCURVE",
"333 540 CURVE SMOOTH"
);
}
);
};
layerId = "91AB5BCA-6A50-42DA-B2F7-8181BF189245";
paths = (
{
closed = 1;
nodes = (
"153 540 OFFCURVE",
"52 369 OFFCURVE",
"52 212 CURVE SMOOTH",
"52 78 OFFCURVE",
"131 -10 OFFCURVE",
"259 -10 CURVE SMOOTH",
"345 -10 OFFCURVE",
"424 29 OFFCURVE",
"484 111 CURVE",
"450 135 LINE",
"395 63 OFFCURVE",
"336 28 OFFCURVE",
"265 28 CURVE SMOOTH",
"158 28 OFFCURVE",
"94 101 OFFCURVE",
"94 215 CURVE SMOOTH",
"94 357 OFFCURVE",
"184 502 OFFCURVE",
"336 502 CURVE SMOOTH",
"393 502 OFFCURVE",
"437 477 OFFCURVE",
"485 404 CURVE",
"519 423 LINE",
"482 495 OFFCURVE",
"425 540 OFFCURVE",
"333 540 CURVE SMOOTH"
);
}
);
width = 537;
}
);
leftKerningGroup = o;
rightKerningGroup = c;
unicode = 0063;
},
{
glyphname = d;
lastChange = "2016-11-06 13:24:02 +0000";
layers = (
{
anchors = (
{
name = bottom;
position = "{270, 0}";
},
{
name = center;
position = "{307, 265}";
},
{
name = topright;
position = "{630, 530}";
}
);
background = {
anchors = (
{
name = bottom;
position = "{270, 0}";
},
{
name = center;
position = "{307, 265}";
},
{
name = topright;
position = "{630, 530}";
}
);
paths = (
{
closed = 1;
nodes = (
"531 0 OFFCURVE",
"538 5 OFFCURVE",
"540 22 CURVE SMOOTH",
"638 713 LINE SMOOTH",
"641 734 OFFCURVE",
"637 742 OFFCURVE",
"626 742 CURVE SMOOTH",
"464 742 LINE SMOOTH",
"452 742 OFFCURVE",
"443 739 OFFCURVE",
"441 724 CURVE SMOOTH",
"409 502 LINE SMOOTH",
"404 464 OFFCURVE",
"390 468 OFFCURVE",
"381 480 CURVE SMOOTH",
"349 523 OFFCURVE",
"314 540 OFFCURVE",
"265 540 CURVE SMOOTH",
"122 540 OFFCURVE",
"19 382 OFFCURVE",
"19 202 CURVE SMOOTH",
"19 63 OFFCURVE",
"87 -10 OFFCURVE",
"192 -10 CURVE SMOOTH",
"250 -10 OFFCURVE",
"291 9 OFFCURVE",
"334 44 CURVE SMOOTH",
"345 53 OFFCURVE",
"351 51 OFFCURVE",
"349 40 CURVE SMOOTH",
"346 21 LINE SMOOTH",
"343 4 OFFCURVE",
"357 0 OFFCURVE",
"370 0 CURVE SMOOTH",
"510 0 LINE SMOOTH"
);
},
{
closed = 1;
nodes = (
"358 143 OFFCURVE",
"318 110 OFFCURVE",
"275 110 CURVE SMOOTH",
"238 110 OFFCURVE",
"218 130 OFFCURVE",
"218 191 CURVE SMOOTH",
"218 265 OFFCURVE",
"239 416 OFFCURVE",
"334 416 CURVE SMOOTH",
"361 416 OFFCURVE",
"377 407 OFFCURVE",
"394 382 CURVE",
"363 182 LINE SMOOTH"
);
}
);
};
layerId = "258ED206-D907-4350-8EBA-CBDDA1C16BF7";
paths = (
{
closed = 1;
nodes = (
"642 742 LINE",
"444 742 LINE",
"404 466 LINE",
"357 518 OFFCURVE",
"314 540 OFFCURVE",
"265 540 CURVE SMOOTH",
"122 540 OFFCURVE",
"19 382 OFFCURVE",
"19 202 CURVE SMOOTH",
"19 63 OFFCURVE",
"87 -10 OFFCURVE",
"192 -10 CURVE SMOOTH",
"257 -10 OFFCURVE",
"304 14 OFFCURVE",
"352 59 CURVE",
"343 0 LINE",
"537 0 LINE"
);
},
{
closed = 1;
nodes = (
"357 143 OFFCURVE",
"318 110 OFFCURVE",
"275 110 CURVE SMOOTH",
"238 110 OFFCURVE",
"218 130 OFFCURVE",
"218 191 CURVE SMOOTH",
"218 246 OFFCURVE",
"233 416 OFFCURVE",
"334 416 CURVE SMOOTH",
"359 416 OFFCURVE",
"387 396 OFFCURVE",
"395 381 CURVE",
"363 182 LINE SMOOTH"
);
}
);
width = 616;
},
{
anchors = (
{
name = bottom;
position = "{265, 0}";
},
{
name = center;
position = "{314, 265}";
},
{
name = topright;
position = "{694, 742}";
}
);
background = {
anchors = (
{
name = bottom;
position = "{265, 0}";
},
{
name = center;
position = "{314, 265}";
},
{
name = topright;
position = "{694, 742}";
}
);
paths = (
{
closed = 1;
nodes = (
"462 0 OFFCURVE",
"464 2 OFFCURVE",
"465 11 CURVE SMOOTH",
"567 732 LINE SMOOTH",
"567 738 OFFCURVE",
"564 742 OFFCURVE",
"559 742 CURVE SMOOTH",
"536 742 LINE SMOOTH",
"529 742 OFFCURVE",
"528 740 OFFCURVE",
"527 733 CURVE SMOOTH",
"493 494 LINE SMOOTH",
"491 481 OFFCURVE",
"488 475 OFFCURVE",
"476 485 CURVE SMOOTH",
"449 509 OFFCURVE",
"411 540 OFFCURVE",
"337 540 CURVE SMOOTH",
"148 540 OFFCURVE",
"52 356 OFFCURVE",
"52 201 CURVE SMOOTH",
"52 61 OFFCURVE",
"136 -10 OFFCURVE",
"251 -10 CURVE SMOOTH",
"346 -10 OFFCURVE",
"406 47 OFFCURVE",
"424 64 CURVE SMOOTH",
"433 73 OFFCURVE",
"437 73 OFFCURVE",
"435 63 CURVE SMOOTH",
"427 12 LINE SMOOTH",
"426 5 OFFCURVE",
"430 0 OFFCURVE",
"437 0 CURVE SMOOTH",
"453 0 LINE SMOOTH"
);
},
{
closed = 1;
nodes = (
"439 111 OFFCURVE",
"355 28 OFFCURVE",
"258 28 CURVE SMOOTH",
"168 28 OFFCURVE",
"94 84 OFFCURVE",
"94 207 CURVE SMOOTH",
"94 350 OFFCURVE",
"181 502 OFFCURVE",
"336 502 CURVE SMOOTH",
"396 502 OFFCURVE",
"443 475 OFFCURVE",
"485 427 CURVE",
"448 171 LINE SMOOTH"
);
}
);
};
layerId = "91AB5BCA-6A50-42DA-B2F7-8181BF189245";
paths = (
{
closed = 1;
nodes = (
"568 742 LINE",
"528 742 LINE",
"490 472 LINE",
"439 524 OFFCURVE",
"391 540 OFFCURVE",
"337 540 CURVE SMOOTH",
"148 540 OFFCURVE",
"52 356 OFFCURVE",
"52 201 CURVE SMOOTH",
"52 61 OFFCURVE",
"136 -10 OFFCURVE",
"251 -10 CURVE SMOOTH",
"353 -10 OFFCURVE",
"418 57 OFFCURVE",
"437 76 CURVE",
"425 0 LINE",
"463 0 LINE"
);
},
{
closed = 1;
nodes = (
"439 111 OFFCURVE",
"355 28 OFFCURVE",
"258 28 CURVE SMOOTH",
"168 28 OFFCURVE",
"94 84 OFFCURVE",
"94 207 CURVE SMOOTH",
"94 350 OFFCURVE",
"181 502 OFFCURVE",
"336 502 CURVE SMOOTH",
"396 502 OFFCURVE",
"443 475 OFFCURVE",
"485 427 CURVE",
"448 171 LINE SMOOTH"
);
}
);
width = 592;
}
);
leftKerningGroup = d;
unicode = 0064;
},
{
glyphname = eth;
lastChange = "2016-11-06 13:02:13 +0000";
layers = (
{
background = {
paths = (
{
closed = 1;
nodes = (
"603 434 OFFCURVE",
"545 579 OFFCURVE",
"433 666 CURVE",
"490 692 LINE SMOOTH",
"496 696 OFFCURVE",
"492 699 OFFCURVE",
"490 704 CURVE SMOOTH",
"473 742 LINE SMOOTH",
"471 747 OFFCURVE",
"464 757 OFFCURVE",
"456 752 CURVE SMOOTH",
"374 704 LINE",
"340 723 OFFCURVE",
"301 739 OFFCURVE",
"256 746 CURVE SMOOTH",
"248 751 OFFCURVE",
"247 756 OFFCURVE",
"239 750 CURVE SMOOTH",
"144 681 LINE SMOOTH",
"138 675 OFFCURVE",
"146 667 OFFCURVE",
"155 667 CURVE SMOOTH",
"181 655 OFFCURVE",
"205 644 OFFCURVE",
"228 631 CURVE",
"145 591 LINE SMOOTH",
"138 588 OFFCURVE",
"140 583 OFFCURVE",
"146 572 CURVE SMOOTH",
"159 548 LINE SMOOTH",
"163 537 OFFCURVE",
"169 527 OFFCURVE",
"181 533 CURVE SMOOTH",
"286 593 LINE",
"310 572 OFFCURVE",
"326 556 OFFCURVE",
"342 535 CURVE SMOOTH",
"341 528 OFFCURVE",
"336 520 OFFCURVE",
"328 520 CURVE SMOOTH",
"174 520 OFFCURVE",
"42 415 OFFCURVE",
"21 263 CURVE SMOOTH",
"-1 109 OFFCURVE",
"100 -10 OFFCURVE",
"268 -10 CURVE SMOOTH",
"431 -10 OFFCURVE",
"555 96 OFFCURVE",
"580 271 CURVE SMOOTH"
);
},
{
closed = 1;
nodes = (
"222 118 OFFCURVE",
"208 156 OFFCURVE",
"220 245 CURVE SMOOTH",
"234 345 OFFCURVE",
"269 396 OFFCURVE",
"326 396 CURVE SMOOTH",
"376 396 OFFCURVE",
"390 357 OFFCURVE",
"377 267 CURVE SMOOTH",
"364 169 OFFCURVE",
"329 118 OFFCURVE",
"271 118 CURVE SMOOTH"
);
}
);
};
layerId = "258ED206-D907-4350-8EBA-CBDDA1C16BF7";
paths = (
{
closed = 1;
nodes = (
"603 434 OFFCURVE",
"545 579 OFFCURVE",
"433 666 CURVE",
"494 694 LINE",
"466 758 LINE",
"374 704 LINE",
"335 724 OFFCURVE",
"290 741 OFFCURVE",
"237 749 CURVE",
"137 676 LINE",
"169 661 OFFCURVE",
"199 647 OFFCURVE",
"228 631 CURVE",
"138 587 LINE",
"170 527 LINE",
"286 593 LINE",
"310 572 OFFCURVE",
"326 556 OFFCURVE",
"342 535 CURVE SMOOTH",
"341 528 OFFCURVE",
"336 520 OFFCURVE",
"328 520 CURVE SMOOTH",
"174 520 OFFCURVE",
"42 415 OFFCURVE",
"21 263 CURVE SMOOTH",
"-1 109 OFFCURVE",
"100 -10 OFFCURVE",
"268 -10 CURVE SMOOTH",
"431 -10 OFFCURVE",
"555 96 OFFCURVE",
"580 271 CURVE SMOOTH"
);
},
{
closed = 1;
nodes = (
"222 118 OFFCURVE",
"208 156 OFFCURVE",
"220 245 CURVE SMOOTH",
"234 345 OFFCURVE",
"269 396 OFFCURVE",
"326 396 CURVE SMOOTH",
"376 396 OFFCURVE",
"390 357 OFFCURVE",
"377 267 CURVE SMOOTH",
"364 169 OFFCURVE",
"329 118 OFFCURVE",
"271 118 CURVE SMOOTH"
);
}
);
width = 600;
},
{
background = {
paths = (
{
closed = 1;
nodes = (
"564 421 OFFCURVE",
"528 562 OFFCURVE",
"387 668 CURVE",
"486 718 LINE SMOOTH",
"489 720 OFFCURVE",
"487 723 OFFCURVE",
"486 726 CURVE SMOOTH",
"477 748 LINE SMOOTH",
"477 750 OFFCURVE",
"472 753 OFFCURVE",
"468 751 CURVE SMOOTH",
"356 691 LINE",
"324 712 OFFCURVE",
"289 731 OFFCURVE",
"247 748 CURVE SMOOTH",
"240 753 OFFCURVE",
"236 752 OFFCURVE",
"230 748 CURVE SMOOTH",
"210 736 LINE SMOOTH",
"205 732 OFFCURVE",
"207 726 OFFCURVE",
"213 725 CURVE SMOOTH",
"251 707 OFFCURVE",
"286 690 OFFCURVE",
"317 671 CURVE",
"148 584 LINE SMOOTH",
"145 582 OFFCURVE",
"144 579 OFFCURVE",
"147 573 CURVE SMOOTH",
"154 559 LINE SMOOTH",
"157 553 OFFCURVE",
"160 550 OFFCURVE",
"166 553 CURVE SMOOTH",
"348 649 LINE",
"426 591 OFFCURVE",
"468 524 OFFCURVE",
"489 451 CURVE",
"451 493 OFFCURVE",
"396 520 OFFCURVE",
"324 520 CURVE SMOOTH",
"189 520 OFFCURVE",
"76 409 OFFCURVE",
"54 254 CURVE SMOOTH",
"33 99 OFFCURVE",
"115 -10 OFFCURVE",
"260 -10 CURVE SMOOTH",
"413 -10 OFFCURVE",
"519 100 OFFCURVE",
"540 253 CURVE SMOOTH"
);
},
{
closed = 1;
nodes = (
"151 28 OFFCURVE",
"79 127 OFFCURVE",
"96 252 CURVE SMOOTH",
"114 379 OFFCURVE",
"216 482 OFFCURVE",
"332 482 CURVE SMOOTH",
"445 482 OFFCURVE",
"516 382 OFFCURVE",
"499 256 CURVE SMOOTH",
"481 128 OFFCURVE",
"382 28 OFFCURVE",
"266 28 CURVE SMOOTH"
);
}
);
};
layerId = "91AB5BCA-6A50-42DA-B2F7-8181BF189245";
paths = (
{
closed = 1;
nodes = (
"564 421 OFFCURVE",
"528 562 OFFCURVE",
"387 668 CURVE",
"489 719 LINE",
"474 754 LINE",
"356 691 LINE",
"321 714 OFFCURVE",
"283 734 OFFCURVE",
"237 752 CURVE",
"201 731 LINE",
"243 711 OFFCURVE",
"282 692 OFFCURVE",
"317 671 CURVE",
"143 581 LINE",
"159 549 LINE",
"348 649 LINE",
"426 591 OFFCURVE",
"468 524 OFFCURVE",
"489 451 CURVE",
"451 493 OFFCURVE",
"396 520 OFFCURVE",
"324 520 CURVE SMOOTH",
"189 520 OFFCURVE",
"76 409 OFFCURVE",
"54 254 CURVE SMOOTH",
"33 99 OFFCURVE",
"115 -10 OFFCURVE",
"260 -10 CURVE SMOOTH",
"413 -10 OFFCURVE",
"519 100 OFFCURVE",
"540 253 CURVE SMOOTH"
);
},
{
closed = 1;
nodes = (
"151 28 OFFCURVE",
"79 127 OFFCURVE",
"96 252 CURVE SMOOTH",
"114 379 OFFCURVE",
"216 482 OFFCURVE",
"332 482 CURVE SMOOTH",
"445 482 OFFCURVE",
"516 382 OFFCURVE",
"499 256 CURVE SMOOTH",
"481 128 OFFCURVE",
"382 28 OFFCURVE",
"266 28 CURVE SMOOTH"
);
}
);
width = 598;
}
);
leftMetricsKey = o;
rightMetricsKey = o;
unicode = 00F0;
},
{
glyphname = dcroat;
lastChange = "2016-11-06 13:02:13 +0000";
layers = (
{
background = {
components = (
{
name = d;
}
);
paths = (
{
closed = 1;
nodes = (
"707 674 OFFCURVE",
"699 687 OFFCURVE",
"689 687 CURVE SMOOTH",
"350 687 LINE SMOOTH",
"340 687 OFFCURVE",
"338 686 OFFCURVE",
"336 673 CURVE SMOOTH",
"327 608 LINE SMOOTH",
"325 593 OFFCURVE",
"332 580 OFFCURVE",
"349 580 CURVE SMOOTH",
"669 580 LINE SMOOTH",
"689 580 OFFCURVE",
"694 581 OFFCURVE",
"697 598 CURVE SMOOTH",
"706 663 LINE SMOOTH"
);
}
);
};
components = (
{
name = d;
}
);
layerId = "258ED206-D907-4350-8EBA-CBDDA1C16BF7";
paths = (
{
closed = 1;
nodes = (
"338 687 LINE",
"323 580 LINE",
"695 580 LINE",
"709 687 LINE"
);
}
);
width = 626;
},
{
background = {
components = (
{
name = d;
}
);
paths = (
{
closed = 1;
nodes = (
"669 659 OFFCURVE",
"667 662 OFFCURVE",
"664 662 CURVE SMOOTH",
"385 662 LINE SMOOTH",
"382 662 OFFCURVE",
"381 661 OFFCURVE",
"380 656 CURVE SMOOTH",
"377 636 LINE SMOOTH",
"376 630 OFFCURVE",
"378 627 OFFCURVE",
"384 627 CURVE SMOOTH",
"656 627 LINE SMOOTH",
"663 627 OFFCURVE",
"665 628 OFFCURVE",
"666 634 CURVE SMOOTH",
"669 655 LINE SMOOTH"
);
}
);
};
components = (
{
name = d;
}
);
layerId = "91AB5BCA-6A50-42DA-B2F7-8181BF189245";
paths = (
{
closed = 1;
nodes = (
"381 662 LINE",
"376 627 LINE",
"665 627 LINE",
"670 662 LINE"
);
}
);
width = 602;
}
);
leftKerningGroup = d;
leftMetricsKey = d;
widthMetricsKey = "=d+10";
unicode = 0111;
},
{
glyphname = e;
lastChange = "2016-11-06 15:52:56 +0000";
layers = (
{
anchors = (
{
name = bottom;
position = "{267, 0}";
},
{
name = ogonek;
position = "{399, 26}";
},
{
name = top;
position = "{338, 530}";
}
);
background = {
anchors = (
{
name = bottom;
position = "{267, 0}";
},
{
name = ogonek;
position = "{399, 26}";
},
{
name = top;
position = "{338, 530}";
}
);
paths = (
{
closed = 1;
nodes = (
"380 -10 OFFCURVE",
"449 12 OFFCURVE",
"537 108 CURVE SMOOTH",
"549 122 OFFCURVE",
"545 133 OFFCURVE",
"529 140 CURVE SMOOTH",
"444 177 LINE SMOOTH",
"432 182 OFFCURVE",
"424 184 OFFCURVE",
"416 176 CURVE SMOOTH",
"375 136 OFFCURVE",
"340 122 OFFCURVE",
"302 122 CURVE SMOOTH",
"253 122 OFFCURVE",
"217 141 OFFCURVE",
"217 187 CURVE SMOOTH",
"217 203 OFFCURVE",
"219 229 OFFCURVE",
"235 229 CURVE SMOOTH",
"544 229 LINE SMOOTH",
"561 229 OFFCURVE",
"566 231 OFFCURVE",
"568 243 CURVE SMOOTH",
"571 262 OFFCURVE",
"572 280 OFFCURVE",
"572 298 CURVE SMOOTH",
"572 450 OFFCURVE",
"474 540 OFFCURVE",
"330 540 CURVE SMOOTH",
"154 540 OFFCURVE",
"18 390 OFFCURVE",
"18 226 CURVE SMOOTH",
"18 86 OFFCURVE",
"122 -10 OFFCURVE",
"272 -10 CURVE SMOOTH"
);
},
{
closed = 1;
nodes = (
"246 389 OFFCURVE",
"292 423 OFFCURVE",
"333 423 CURVE SMOOTH",
"375 423 OFFCURVE",
"390 388 OFFCURVE",
"390 362 CURVE SMOOTH",
"390 338 OFFCURVE",
"378 327 OFFCURVE",
"365 327 CURVE SMOOTH",
"239 327 LINE"
);
}
);
};
layerId = "258ED206-D907-4350-8EBA-CBDDA1C16BF7";
paths = (
{
closed = 1;
nodes = (
"388 -10 OFFCURVE",
"461 16 OFFCURVE",
"556 128 CURVE",
"425 185 LINE",
"381 138 OFFCURVE",
"343 122 OFFCURVE",
"302 122 CURVE SMOOTH",
"253 122 OFFCURVE",
"217 153 OFFCURVE",
"217 229 CURVE",
"566 229 LINE",
"570 253 OFFCURVE",
"572 275 OFFCURVE",
"572 298 CURVE SMOOTH",
"572 450 OFFCURVE",
"474 540 OFFCURVE",
"330 540 CURVE SMOOTH",
"154 540 OFFCURVE",
"18 390 OFFCURVE",
"18 226 CURVE SMOOTH",
"18 86 OFFCURVE",
"122 -10 OFFCURVE",
"272 -10 CURVE SMOOTH"
);
},
{
closed = 1;
nodes = (
"246 389 OFFCURVE",
"292 423 OFFCURVE",
"333 423 CURVE SMOOTH",
"375 423 OFFCURVE",
"390 368 OFFCURVE",
"390 327 CURVE",
"239 327 LINE"
);
}
);
width = 590;
},
{
anchors = (
{
name = bottom;
position = "{263, 0}";
},
{
name = ogonek;
position = "{358, 18}";
},
{
name = top;
position = "{334, 530}";
}
);
background = {
anchors = (
{
name = bottom;
position = "{263, 0}";
},
{
name = ogonek;
position = "{358, 18}";
},
{
name = top;
position = "{334, 530}";
}
);
paths = (
{
closed = 1;
nodes = (
"355 -10 OFFCURVE",
"430 26 OFFCURVE",
"487 98 CURVE SMOOTH",
"489 103 OFFCURVE",
"488 107 OFFCURVE",
"485 109 CURVE SMOOTH",
"464 124 LINE SMOOTH",
"461 127 OFFCURVE",
"458 128 OFFCURVE",
"453 123 CURVE SMOOTH",
"408 62 OFFCURVE",
"345 28 OFFCURVE",
"264 28 CURVE SMOOTH",
"163 28 OFFCURVE",
"92 99 OFFCURVE",
"92 208 CURVE SMOOTH",
"92 249 OFFCURVE",
"96 254 OFFCURVE",
"104 254 CURVE SMOOTH",
"510 254 LINE SMOOTH",
"521 254 OFFCURVE",
"528 262 OFFCURVE",
"529 272 CURVE SMOOTH",
"532 293 OFFCURVE",
"533 312 OFFCURVE",
"533 331 CURVE SMOOTH",
"533 464 OFFCURVE",
"460 540 OFFCURVE",
"336 540 CURVE SMOOTH",
"154 540 OFFCURVE",
"52 375 OFFCURVE",
"52 211 CURVE SMOOTH",
"52 77 OFFCURVE",
"133 -10 OFFCURVE",
"262 -10 CURVE SMOOTH"
);
},
{
closed = 1;
nodes = (
"115 390 OFFCURVE",
"200 502 OFFCURVE",
"333 502 CURVE SMOOTH",
"430 502 OFFCURVE",
"494 438 OFFCURVE",
"494 339 CURVE SMOOTH",
"494 295 OFFCURVE",
"486 290 OFFCURVE",
"472 290 CURVE SMOOTH",
"102 290 LINE"
);
}
);
};
layerId = "91AB5BCA-6A50-42DA-B2F7-8181BF189245";
paths = (
{
closed = 1;
nodes = (
"357 -10 OFFCURVE",
"434 28 OFFCURVE",
"492 104 CURVE",
"457 129 LINE",
"411 64 OFFCURVE",
"347 28 OFFCURVE",
"264 28 CURVE SMOOTH",
"163 28 OFFCURVE",
"76 106 OFFCURVE",
"98 254 CURVE",
"528 254 LINE",
"533 279 OFFCURVE",
"533 306 OFFCURVE",
"533 331 CURVE SMOOTH",
"533 464 OFFCURVE",
"460 540 OFFCURVE",
"336 540 CURVE SMOOTH",
"154 540 OFFCURVE",
"52 375 OFFCURVE",
"52 211 CURVE SMOOTH",
"52 77 OFFCURVE",
"133 -10 OFFCURVE",
"262 -10 CURVE SMOOTH"
);
},
{
closed = 1;
nodes = (
"126 388 OFFCURVE",
"200 502 OFFCURVE",
"333 502 CURVE SMOOTH",
"451 502 OFFCURVE",
"504 419 OFFCURVE",
"491 290 CURVE",
"102 290 LINE"
);
}
);
width = 577;
}
);
leftKerningGroup = o;
rightKerningGroup = e;
unicode = 0065;
},
{
glyphname = f;
lastChange = "2016-11-06 13:28:36 +0000";
layers = (
{
background = {
paths = (
{
closed = 1;
nodes = (
"351 530 LINE SMOOTH",
"343 530 OFFCURVE",
"336 533 OFFCURVE",
"337 543 CURVE SMOOTH",
"340 565 LINE SMOOTH",
"344 593 OFFCURVE",
"374 612 OFFCURVE",
"397 612 CURVE SMOOTH",
"437 612 LINE SMOOTH",
"449 612 OFFCURVE",
"455 615 OFFCURVE",
"456 626 CURVE SMOOTH",
"467 718 LINE SMOOTH",
"469 734 OFFCURVE",
"457 742 OFFCURVE",
"438 742 CURVE SMOOTH",
"325 742 LINE SMOOTH",
"228 742 OFFCURVE",
"164 694 OFFCURVE",
"152 607 CURVE SMOOTH",
"145 554 LINE SMOOTH",
"143 541 OFFCURVE",
"134 530 OFFCURVE",
"123 530 CURVE SMOOTH",
"75 530 LINE SMOOTH",
"58 530 OFFCURVE",
"55 526 OFFCURVE",
"53 514 CURVE SMOOTH",
"40 420 LINE SMOOTH",
"38 406 OFFCURVE",
"39 395 OFFCURVE",
"53 395 CURVE SMOOTH",
"114 395 LINE SMOOTH",
"120 395 OFFCURVE",
"122 391 OFFCURVE",
"121 387 CURVE SMOOTH",
"70 26 LINE SMOOTH",
"68 13 OFFCURVE",
"78 0 OFFCURVE",
"89 0 CURVE SMOOTH",
"252 0 LINE SMOOTH",
"264 0 OFFCURVE",
"267 1 OFFCURVE",
"269 16 CURVE SMOOTH",
"320 377 LINE SMOOTH",
"322 390 OFFCURVE",
"324 395 OFFCURVE",
"331 395 CURVE SMOOTH",
"400 395 LINE SMOOTH",
"413 395 OFFCURVE",
"419 399 OFFCURVE",
"421 413 CURVE SMOOTH",
"435 512 LINE SMOOTH",
"437 524 OFFCURVE",
"434 530 OFFCURVE",
"417 530 CURVE SMOOTH"
);
}
);
};
layerId = "258ED206-D907-4350-8EBA-CBDDA1C16BF7";
paths = (
{
closed = 1;
nodes = (
"335 530 LINE",
"340 560 LINE",
"345 589 OFFCURVE",
"361 612 OFFCURVE",
"404 612 CURVE",
"454 612 LINE",
"470 742 LINE",
"325 742 LINE SMOOTH",
"228 742 OFFCURVE",
"164 694 OFFCURVE",
"152 607 CURVE SMOOTH",
"142 530 LINE",
"55 530 LINE",
"37 395 LINE",
"122 395 LINE",
"66 0 LINE",
"267 0 LINE",
"323 395 LINE",
"418 395 LINE",
"438 530 LINE"
);
}
);
width = 418;
},
{
background = {
paths = (
{
closed = 1;
nodes = (
"235 530 LINE SMOOTH",
"230 530 OFFCURVE",
"229 531 OFFCURVE",
"230 536 CURVE SMOOTH",
"243 626 LINE SMOOTH",
"250 677 OFFCURVE",
"268 707 OFFCURVE",
"318 707 CURVE SMOOTH",
"398 707 LINE SMOOTH",
"403 707 OFFCURVE",
"405 708 OFFCURVE",
"406 713 CURVE SMOOTH",
"409 734 LINE SMOOTH",
"410 739 OFFCURVE",
"407 742 OFFCURVE",
"403 742 CURVE SMOOTH",
"331 742 LINE SMOOTH",
"251 742 OFFCURVE",
"214 701 OFFCURVE",
"202 619 CURVE SMOOTH",
"190 538 LINE SMOOTH",
"190 533 OFFCURVE",
"186 530 OFFCURVE",
"181 530 CURVE SMOOTH",
"68 530 LINE SMOOTH",
"64 530 OFFCURVE",
"63 529 OFFCURVE",
"63 525 CURVE SMOOTH",
"59 502 LINE SMOOTH",
"59 498 OFFCURVE",
"61 495 OFFCURVE",
"65 495 CURVE SMOOTH",
"179 495 LINE SMOOTH",
"183 495 OFFCURVE",
"184 493 OFFCURVE",
"183 489 CURVE SMOOTH",
"116 11 LINE SMOOTH",
"115 4 OFFCURVE",
"118 0 OFFCURVE",
"124 0 CURVE SMOOTH",
"147 0 LINE SMOOTH",
"153 0 OFFCURVE",
"155 2 OFFCURVE",
"156 10 CURVE SMOOTH",
"223 487 LINE SMOOTH",
"224 492 OFFCURVE",
"227 495 OFFCURVE",
"232 495 CURVE SMOOTH",
"365 495 LINE SMOOTH",
"369 495 OFFCURVE",
"370 496 OFFCURVE",
"371 500 CURVE SMOOTH",
"374 523 LINE SMOOTH",
"375 527 OFFCURVE",
"372 530 OFFCURVE",
"369 530 CURVE SMOOTH"
);
}
);
};
layerId = "91AB5BCA-6A50-42DA-B2F7-8181BF189245";
paths = (
{
closed = 1;
nodes = (
"229 530 LINE",
"243 626 LINE SMOOTH",
"250 677 OFFCURVE",
"268 707 OFFCURVE",
"318 707 CURVE SMOOTH",
"405 707 LINE",
"410 742 LINE",
"331 742 LINE SMOOTH",
"251 742 OFFCURVE",
"214 701 OFFCURVE",
"202 619 CURVE SMOOTH",
"189 530 LINE",
"64 530 LINE",
"58 495 LINE",
"184 495 LINE",
"114 0 LINE",
"155 0 LINE",
"224 495 LINE",
"370 495 LINE",
"375 530 LINE"
);
}
);
width = 364;
}
);
leftKerningGroup = f;
rightKerningGroup = f;
unicode = 0066;
},
{
glyphname = g;
lastChange = "2016-11-06 13:45:06 +0000";
layers = (
{
anchors = (
{
name = top;
position = "{343, 530}";
}
);
background = {
anchors = (
{
name = top;
position = "{343, 530}";
}
);
paths = (
{
closed = 1;
nodes = (
"371 -174 OFFCURVE",
"573 -144 OFFCURVE",
"573 7 CURVE SMOOTH",
"573 90 OFFCURVE",
"513 144 OFFCURVE",
"376 152 CURVE SMOOTH",
"225 161 LINE SMOOTH",
"200 163 OFFCURVE",
"188 165 OFFCURVE",
"188 174 CURVE SMOOTH",
"188 205 OFFCURVE",
"275 209 OFFCURVE",
"293 209 CURVE SMOOTH",
"404 209 OFFCURVE",
"564 252 OFFCURVE",
"564 377 CURVE SMOOTH",
"564 388 OFFCURVE",
"563 398 OFFCURVE",
"561 403 CURVE SMOOTH",
"554 419 OFFCURVE",
"563 428 OFFCURVE",
"586 428 CURVE SMOOTH",
"594 428 OFFCURVE",
"622 427 OFFCURVE",
"639 426 CURVE SMOOTH",
"651 425 OFFCURVE",
"657 428 OFFCURVE",
"660 451 CURVE SMOOTH",
"672 541 LINE SMOOTH",
"674 559 OFFCURVE",
"664 562 OFFCURVE",
"649 562 CURVE SMOOTH",
"624 562 OFFCURVE",
"564 543 OFFCURVE",
"533 506 CURVE SMOOTH",
"522 493 OFFCURVE",
"506 476 OFFCURVE",
"496 486 CURVE SMOOTH",
"468 512 OFFCURVE",
"415 538 OFFCURVE",
"312 538 CURVE SMOOTH",
"185 538 OFFCURVE",
"50 489 OFFCURVE",
"50 361 CURVE SMOOTH",
"50 306 OFFCURVE",
"82 265 OFFCURVE",
"131 248 CURVE SMOOTH",
"145 243 OFFCURVE",
"141 236 OFFCURVE",
"124 230 CURVE SMOOTH",
"73 213 OFFCURVE",
"7 178 OFFCURVE",
"7 121 CURVE SMOOTH",
"7 82 OFFCURVE",
"26 62 OFFCURVE",
"59 50 CURVE SMOOTH",
"74 44 OFFCURVE",
"71 36 OFFCURVE",
"55 31 CURVE SMOOTH",
"2 16 OFFCURVE",
"-50 -10 OFFCURVE",
"-50 -61 CURVE SMOOTH",
"-50 -135 OFFCURVE",
"57 -174 OFFCURVE",
"224 -174 CURVE SMOOTH"
);
},
{
closed = 1;
nodes = (
"147 -86 OFFCURVE",
"114 -68 OFFCURVE",
"114 -40 CURVE SMOOTH",
"114 -4 OFFCURVE",
"170 8 OFFCURVE",
"194 9 CURVE",
"338 2 LINE SMOOTH",
"381 0 OFFCURVE",
"396 -8 OFFCURVE",
"396 -26 CURVE SMOOTH",
"396 -58 OFFCURVE",
"348 -86 OFFCURVE",
"236 -86 CURVE SMOOTH"
);
},
{
closed = 1;
nodes = (
"254 300 OFFCURVE",
"225 324 OFFCURVE",
"225 352 CURVE SMOOTH",
"225 402 OFFCURVE",
"264 445 OFFCURVE",
"313 445 CURVE SMOOTH",
"361 445 OFFCURVE",
"386 422 OFFCURVE",
"386 390 CURVE SMOOTH",
"386 338 OFFCURVE",
"347 300 OFFCURVE",
"297 300 CURVE SMOOTH"
);
}
);
};
layerId = "258ED206-D907-4350-8EBA-CBDDA1C16BF7";
paths = (
{
closed = 1;
nodes = (
"371 -174 OFFCURVE",
"573 -144 OFFCURVE",
"573 7 CURVE SMOOTH",
"573 90 OFFCURVE",
"513 144 OFFCURVE",
"376 152 CURVE",
"230 161 LINE SMOOTH",
"202 163 OFFCURVE",
"187 169 OFFCURVE",
"193 181 CURVE SMOOTH",
"199 193 OFFCURVE",
"265 201 OFFCURVE",
"308 206 CURVE SMOOTH",
"411 218 OFFCURVE",
"564 252 OFFCURVE",
"564 368 CURVE SMOOTH",
"564 392 OFFCURVE",
"559 410 OFFCURVE",
"549 425 CURVE",
"657 425 LINE",
"675 562 LINE",
"496 486 LINE",
"468 512 OFFCURVE",
"415 538 OFFCURVE",
"312 538 CURVE SMOOTH",
"185 538 OFFCURVE",
"50 489 OFFCURVE",
"50 361 CURVE SMOOTH",
"50 306 OFFCURVE",
"82 265 OFFCURVE",
"131 248 CURVE SMOOTH",
"145 243 OFFCURVE",
"141 236 OFFCURVE",
"124 230 CURVE SMOOTH",
"73 213 OFFCURVE",
"7 178 OFFCURVE",
"7 121 CURVE SMOOTH",
"7 82 OFFCURVE",
"26 62 OFFCURVE",
"59 50 CURVE SMOOTH",
"74 44 OFFCURVE",
"71 36 OFFCURVE",
"55 31 CURVE SMOOTH",
"2 16 OFFCURVE",
"-50 -10 OFFCURVE",
"-50 -61 CURVE SMOOTH",
"-50 -135 OFFCURVE",
"57 -174 OFFCURVE",
"224 -174 CURVE SMOOTH"
);
},
{
closed = 1;
nodes = (
"147 -86 OFFCURVE",
"114 -68 OFFCURVE",
"114 -40 CURVE SMOOTH",
"114 -4 OFFCURVE",
"170 8 OFFCURVE",
"194 9 CURVE",
"357 1 LINE",
"370 0 OFFCURVE",
"396 -5 OFFCURVE",
"396 -24 CURVE SMOOTH",
"396 -59 OFFCURVE",
"348 -86 OFFCURVE",
"236 -86 CURVE SMOOTH"
);
},
{
closed = 1;
nodes = (
"254 300 OFFCURVE",
"225 324 OFFCURVE",
"225 352 CURVE SMOOTH",
"225 402 OFFCURVE",
"264 445 OFFCURVE",
"313 445 CURVE SMOOTH",
"361 445 OFFCURVE",
"386 422 OFFCURVE",
"386 390 CURVE SMOOTH",
"386 338 OFFCURVE",
"347 300 OFFCURVE",
"297 300 CURVE SMOOTH"
);
}
);
width = 653;
},
{
anchors = (
{
name = top;
position = "{320, 530}";
}
);
background = {
anchors = (
{
name = top;
position = "{320, 530}";
}
);
guideLines = (
{
angle = 90;
position = "{279, 374}";
showMeasurement = 1;
}
);
paths = (
{
closed = 1;
nodes = (
"348 -175 OFFCURVE",
"476 -129 OFFCURVE",
"476 -3 CURVE SMOOTH",
"476 71 OFFCURVE",
"432 111 OFFCURVE",
"338 116 CURVE SMOOTH",
"219 123 LINE SMOOTH",
"146 127 OFFCURVE",
"116 136 OFFCURVE",
"116 157 CURVE SMOOTH",
"116 206 OFFCURVE",
"245 209 OFFCURVE",
"273 209 CURVE SMOOTH",
"392 209 OFFCURVE",
"497 267 OFFCURVE",
"497 392 CURVE SMOOTH",
"497 419 OFFCURVE",
"490 435 OFFCURVE",
"485 449 CURVE SMOOTH",
"482 457 OFFCURVE",
"491 463 OFFCURVE",
"511 473 CURVE SMOOTH",
"528 481 OFFCURVE",
"541 487 OFFCURVE",
"568 488 CURVE SMOOTH",
"581 489 OFFCURVE",
"583 493 OFFCURVE",
"585 503 CURVE SMOOTH",
"587 516 LINE SMOOTH",
"588 525 OFFCURVE",
"584 530 OFFCURVE",
"568 530 CURVE SMOOTH",
"533 530 OFFCURVE",
"500 508 OFFCURVE",
"477 493 CURVE SMOOTH",
"470 488 OFFCURVE",
"464 487 OFFCURVE",
"459 492 CURVE SMOOTH",
"434 516 OFFCURVE",
"393 538 OFFCURVE",
"313 538 CURVE SMOOTH",
"192 538 OFFCURVE",
"89 468 OFFCURVE",
"89 343 CURVE SMOOTH",
"89 296 OFFCURVE",
"109 262 OFFCURVE",
"153 236 CURVE SMOOTH",
"159 233 OFFCURVE",
"156 227 OFFCURVE",
"148 224 CURVE SMOOTH",
"113 211 OFFCURVE",
"73 188 OFFCURVE",
"73 152 CURVE SMOOTH",
"73 134 OFFCURVE",
"82 121 OFFCURVE",
"102 107 CURVE SMOOTH",
"108 103 OFFCURVE",
"105 100 OFFCURVE",
"97 96 CURVE SMOOTH",
"31 65 OFFCURVE",
"-8 15 OFFCURVE",
"-8 -43 CURVE SMOOTH",
"-8 -122 OFFCURVE",
"65 -175 OFFCURVE",
"212 -175 CURVE SMOOTH"
);
},
{
closed = 1;
nodes = (
"106 -137 OFFCURVE",
"35 -110 OFFCURVE",
"35 -37 CURVE SMOOTH",
"35 26 OFFCURVE",
"89 68 OFFCURVE",
"162 86 CURVE",
"333 75 LINE SMOOTH",
"407 71 OFFCURVE",
"433 47 OFFCURVE",
"433 -3 CURVE SMOOTH",
"433 -113 OFFCURVE",
"310 -137 OFFCURVE",
"211 -137 CURVE SMOOTH"
);
},
{
closed = 1;
nodes = (
"181 247 OFFCURVE",
"129 281 OFFCURVE",
"129 347 CURVE SMOOTH",
"129 452 OFFCURVE",
"219 500 OFFCURVE",
"315 500 CURVE SMOOTH",
"409 500 OFFCURVE",
"458 464 OFFCURVE",
"458 397 CURVE SMOOTH",
"458 286 OFFCURVE",
"370 247 OFFCURVE",
"275 247 CURVE SMOOTH"
);
}
);
};
guideLines = (
{
angle = 90;
position = "{279, 374}";
showMeasurement = 1;
}
);
layerId = "91AB5BCA-6A50-42DA-B2F7-8181BF189245";
paths = (
{
closed = 1;
nodes = (
"348 -175 OFFCURVE",
"476 -129 OFFCURVE",
"476 -3 CURVE SMOOTH",
"476 71 OFFCURVE",
"432 111 OFFCURVE",
"338 116 CURVE SMOOTH",
"219 123 LINE SMOOTH",
"146 127 OFFCURVE",
"116 136 OFFCURVE",
"116 157 CURVE SMOOTH",
"116 206 OFFCURVE",
"245 209 OFFCURVE",
"273 209 CURVE SMOOTH",
"392 209 OFFCURVE",
"497 267 OFFCURVE",
"497 392 CURVE SMOOTH",
"497 419 OFFCURVE",
"490 443 OFFCURVE",
"485 457 CURVE",
"583 483 LINE",
"589 530 LINE",
"459 492 LINE",
"434 516 OFFCURVE",
"393 538 OFFCURVE",
"313 538 CURVE SMOOTH",
"192 538 OFFCURVE",
"89 468 OFFCURVE",
"89 343 CURVE SMOOTH",
"89 296 OFFCURVE",
"109 262 OFFCURVE",
"153 236 CURVE SMOOTH",
"159 233 OFFCURVE",
"156 227 OFFCURVE",
"148 224 CURVE SMOOTH",
"113 211 OFFCURVE",
"73 188 OFFCURVE",
"73 152 CURVE SMOOTH",
"73 134 OFFCURVE",
"82 121 OFFCURVE",
"102 107 CURVE SMOOTH",
"108 103 OFFCURVE",
"105 100 OFFCURVE",
"97 96 CURVE SMOOTH",
"31 65 OFFCURVE",
"-8 15 OFFCURVE",
"-8 -43 CURVE SMOOTH",
"-8 -122 OFFCURVE",
"65 -175 OFFCURVE",
"212 -175 CURVE SMOOTH"
);
},
{
closed = 1;
nodes = (
"106 -137 OFFCURVE",
"35 -110 OFFCURVE",
"35 -37 CURVE SMOOTH",
"35 26 OFFCURVE",
"89 68 OFFCURVE",
"162 86 CURVE",
"333 75 LINE SMOOTH",
"407 71 OFFCURVE",
"433 47 OFFCURVE",
"433 -3 CURVE SMOOTH",
"433 -113 OFFCURVE",
"310 -137 OFFCURVE",
"211 -137 CURVE SMOOTH"
);
},
{
closed = 1;
nodes = (
"181 247 OFFCURVE",
"129 281 OFFCURVE",
"129 347 CURVE SMOOTH",
"129 452 OFFCURVE",
"219 500 OFFCURVE",
"315 500 CURVE SMOOTH",
"409 500 OFFCURVE",
"458 464 OFFCURVE",
"458 397 CURVE SMOOTH",
"458 286 OFFCURVE",
"370 247 OFFCURVE",
"275 247 CURVE SMOOTH"
);
}
);
width = 582;
}
);
leftKerningGroup = g;
rightKerningGroup = g;
unicode = 0067;
},
{
glyphname = gcommaaccent;
lastChange = "2016-11-06 13:02:13 +0000";
layers = (
{
anchors = (
{
name = _top;
position = "{380, 550}";
}
);
background = {
anchors = (
{
name = _top;
position = "{380, 550}";
}
);
components = (
{
name = g;
}
);
paths = (
{
closed = 1;
nodes = (
"437 599 LINE SMOOTH",
"447 599 OFFCURVE",
"453 604 OFFCURVE",
"455 618 CURVE SMOOTH",
"465 682 LINE SMOOTH",
"468 698 OFFCURVE",
"465 702 OFFCURVE",
"454 702 CURVE SMOOTH",
"424 702 LINE SMOOTH",
"413 702 OFFCURVE",
"411 714 OFFCURVE",
"423 728 CURVE SMOOTH",
"468 780 LINE SMOOTH",
"475 788 OFFCURVE",
"474 796 OFFCURVE",
"467 796 CURVE SMOOTH",
"439 796 LINE SMOOTH",
"425 796 OFFCURVE",
"419 787 OFFCURVE",
"409 777 CURVE SMOOTH",
"349 718 LINE SMOOTH",
"343 712 OFFCURVE",
"338 702 OFFCURVE",
"337 695 CURVE SMOOTH",
"325 613 LINE SMOOTH",
"324 603 OFFCURVE",
"330 599 OFFCURVE",
"341 599 CURVE SMOOTH"
);
}
);
};
components = (
{
name = g;
}
);
layerId = "258ED206-D907-4350-8EBA-CBDDA1C16BF7";
paths = (
{
closed = 1;
nodes = (
"452 599 LINE",
"468 702 LINE",
"401 702 LINE",
"482 796 LINE",
"428 796 LINE",
"339 708 LINE",
"323 599 LINE"
);
}
);
width = 653;
},
{
anchors = (
{
name = _top;
position = "{360, 550}";
}
);
background = {
anchors = (
{
name = _top;
position = "{360, 550}";
}
);
components = (
{
name = g;
}
);
paths = (
{
closed = 1;
nodes = (
"392 632 LINE SMOOTH",
"396 632 OFFCURVE",
"398 634 OFFCURVE",
"399 641 CURVE SMOOTH",
"408 707 LINE SMOOTH",
"409 712 OFFCURVE",
"408 715 OFFCURVE",
"402 715 CURVE SMOOTH",
"391 715 LINE SMOOTH",
"386 715 OFFCURVE",
"385 717 OFFCURVE",
"390 725 CURVE SMOOTH",
"423 779 LINE SMOOTH",
"426 783 OFFCURVE",
"425 786 OFFCURVE",
"421 786 CURVE SMOOTH",
"405 786 LINE SMOOTH",
"401 786 OFFCURVE",
"397 785 OFFCURVE",
"393 779 CURVE SMOOTH",
"357 726 LINE SMOOTH",
"354 722 OFFCURVE",
"352 717 OFFCURVE",
"351 713 CURVE SMOOTH",
"341 638 LINE SMOOTH",
"340 633 OFFCURVE",
"341 632 OFFCURVE",
"345 632 CURVE SMOOTH"
);
}
);
};
components = (
{
name = g;
}
);
layerId = "91AB5BCA-6A50-42DA-B2F7-8181BF189245";
paths = (
{
closed = 1;
nodes = (
"398 632 LINE",
"409 715 LINE",
"384 715 LINE",
"427 786 LINE",
"398 786 LINE",
"352 718 LINE",
"340 632 LINE"
);
}
);
width = 582;
}
);
leftKerningGroup = g;
rightKerningGroup = g;
unicode = 0123;
},
{
glyphname = h;
lastChange = "2016-11-06 13:02:13 +0000";
layers = (
{
anchors = (
{
name = bottom;
position = "{269, 0}";
},
{
name = top;
position = "{482, 530}";
}
);
background = {
anchors = (
{
name = bottom;
position = "{269, 0}";
},
{
name = top;
position = "{482, 530}";
}
);
paths = (
{
closed = 1;
nodes = (
"200 0 OFFCURVE",
"205 2 OFFCURVE",
"208 23 CURVE SMOOTH",
"255 344 LINE",
"279 378 OFFCURVE",
"308 399 OFFCURVE",
"343 399 CURVE SMOOTH",
"368 399 OFFCURVE",
"382 390 OFFCURVE",
"382 367 CURVE SMOOTH",
"382 364 OFFCURVE",
"382 361 OFFCURVE",
"381 357 CURVE SMOOTH",
"335 31 LINE SMOOTH",
"332 12 OFFCURVE",
"341 0 OFFCURVE",
"358 0 CURVE SMOOTH",
"505 0 LINE SMOOTH",
"526 0 OFFCURVE",
"531 4 OFFCURVE",
"534 24 CURVE SMOOTH",
"583 369 LINE SMOOTH",
"585 381 OFFCURVE",
"586 392 OFFCURVE",
"586 403 CURVE SMOOTH",
"586 488 OFFCURVE",
"534 540 OFFCURVE",
"443 540 CURVE SMOOTH",
"394 540 OFFCURVE",
"344 527 OFFCURVE",
"278 477 CURVE SMOOTH",
"271 472 OFFCURVE",
"268 473 OFFCURVE",
"270 485 CURVE SMOOTH",
"303 720 LINE SMOOTH",
"305 736 OFFCURVE",
"301 742 OFFCURVE",
"289 742 CURVE SMOOTH",
"129 742 LINE SMOOTH",
"117 742 OFFCURVE",
"109 739 OFFCURVE",
"107 725 CURVE SMOOTH",
"9 31 LINE SMOOTH",
"7 13 OFFCURVE",
"16 0 OFFCURVE",
"35 0 CURVE SMOOTH",
"176 0 LINE SMOOTH"
);
}
);
};
layerId = "258ED206-D907-4350-8EBA-CBDDA1C16BF7";
paths = (
{
closed = 1;
nodes = (
"255 344 LINE",
"279 378 OFFCURVE",
"308 399 OFFCURVE",
"343 399 CURVE SMOOTH",
"368 399 OFFCURVE",
"382 389 OFFCURVE",
"382 364 CURVE",
"331 0 LINE",
"531 0 LINE",
"583 369 LINE SMOOTH",
"585 381 OFFCURVE",
"586 392 OFFCURVE",
"586 403 CURVE SMOOTH",
"586 488 OFFCURVE",
"534 540 OFFCURVE",
"443 540 CURVE SMOOTH",
"391 540 OFFCURVE",
"338 525 OFFCURVE",
"268 469 CURVE",
"306 742 LINE",
"109 742 LINE",
"5 0 LINE",
"205 0 LINE"
);
}
);
width = 605;
},
{
anchors = (
{
name = bottom;
position = "{266, 0}";
},
{
name = top;
position = "{362, 530}";
}
);
background = {
anchors = (
{
name = bottom;
position = "{266, 0}";
},
{
name = top;
position = "{362, 530}";
}
);
paths = (
{
closed = 1;
nodes = (
"92 0 OFFCURVE",
"94 2 OFFCURVE",
"95 8 CURVE SMOOTH",
"152 409 LINE",
"241 470 OFFCURVE",
"292 502 OFFCURVE",
"364 502 CURVE SMOOTH",
"439 502 OFFCURVE",
"470 468 OFFCURVE",
"470 408 CURVE SMOOTH",
"470 399 OFFCURVE",
"469 388 OFFCURVE",
"468 378 CURVE SMOOTH",
"416 10 LINE SMOOTH",
"415 4 OFFCURVE",
"419 0 OFFCURVE",
"425 0 CURVE SMOOTH",
"447 0 LINE SMOOTH",
"453 0 OFFCURVE",
"455 2 OFFCURVE",
"456 9 CURVE SMOOTH",
"510 392 LINE SMOOTH",
"511 401 OFFCURVE",
"512 410 OFFCURVE",
"512 418 CURVE SMOOTH",
"512 491 OFFCURVE",
"464 540 OFFCURVE",
"367 540 CURVE SMOOTH",
"295 540 OFFCURVE",
"248 512 OFFCURVE",
"162 459 CURVE SMOOTH",
"157 456 OFFCURVE",
"155 458 OFFCURVE",
"156 466 CURVE SMOOTH",
"194 733 LINE SMOOTH",
"195 739 OFFCURVE",
"192 742 OFFCURVE",
"186 742 CURVE SMOOTH",
"165 742 LINE SMOOTH",
"159 742 OFFCURVE",
"158 740 OFFCURVE",
"157 734 CURVE SMOOTH",
"55 10 LINE SMOOTH",
"54 4 OFFCURVE",
"58 0 OFFCURVE",
"64 0 CURVE SMOOTH",
"86 0 LINE SMOOTH"
);
}
);
};
layerId = "91AB5BCA-6A50-42DA-B2F7-8181BF189245";
paths = (
{
closed = 1;
nodes = (
"152 409 LINE",
"241 470 OFFCURVE",
"292 502 OFFCURVE",
"364 502 CURVE SMOOTH",
"439 502 OFFCURVE",
"470 462 OFFCURVE",
"470 392 CURVE",
"415 0 LINE",
"455 0 LINE",
"510 392 LINE SMOOTH",
"511 401 OFFCURVE",
"512 410 OFFCURVE",
"512 418 CURVE SMOOTH",
"512 491 OFFCURVE",
"464 540 OFFCURVE",
"367 540 CURVE SMOOTH",
"292 540 OFFCURVE",
"244 510 OFFCURVE",
"154 454 CURVE",
"195 742 LINE",
"158 742 LINE",
"54 0 LINE",
"94 0 LINE"
);
}
);
width = 576;
}
);
rightKerningGroup = n;
unicode = 0068;
},
{
glyphname = hbar;
lastChange = "2016-11-06 13:02:13 +0000";
layers = (
{
background = {
components = (
{
name = h;
transform = "{1, 0, 0, 1, -34, 0}";
}
);
paths = (
{
closed = 1;
nodes = (
"402 674 OFFCURVE",
"393 687 OFFCURVE",
"383 687 CURVE SMOOTH",
"44 687 LINE SMOOTH",
"34 687 OFFCURVE",
"32 686 OFFCURVE",
"30 673 CURVE SMOOTH",
"21 608 LINE SMOOTH",
"19 593 OFFCURVE",
"26 580 OFFCURVE",
"43 580 CURVE SMOOTH",
"363 580 LINE SMOOTH",
"383 580 OFFCURVE",
"389 581 OFFCURVE",
"391 598 CURVE SMOOTH",
"400 663 LINE SMOOTH"
);
}
);
};
components = (
{
name = h;
transform = "{1, 0, 0, 1, -34, 0}";
}
);
layerId = "258ED206-D907-4350-8EBA-CBDDA1C16BF7";
paths = (
{
closed = 1;
nodes = (
"32 687 LINE",
"17 580 LINE",
"389 580 LINE",
"403 687 LINE"
);
}
);
width = 571;
},
{
background = {
components = (
{
name = h;
transform = "{1, 0, 0, 1, -37, 0}";
}
);
paths = (
{
closed = 1;
nodes = (
"364 659 OFFCURVE",
"362 662 OFFCURVE",
"359 662 CURVE SMOOTH",
"80 662 LINE SMOOTH",
"77 662 OFFCURVE",
"76 661 OFFCURVE",
"75 656 CURVE SMOOTH",
"72 636 LINE SMOOTH",
"71 630 OFFCURVE",
"73 627 OFFCURVE",
"79 627 CURVE SMOOTH",
"351 627 LINE SMOOTH",
"358 627 OFFCURVE",
"360 628 OFFCURVE",
"361 634 CURVE SMOOTH",
"364 655 LINE SMOOTH"
);
}
);
};
components = (
{
name = h;
transform = "{1, 0, 0, 1, -37, 0}";
}
);
layerId = "91AB5BCA-6A50-42DA-B2F7-8181BF189245";
paths = (
{
closed = 1;
nodes = (
"76 662 LINE",
"71 627 LINE",
"360 627 LINE",
"365 662 LINE"
);
}
);
width = 539;
}
);
rightKerningGroup = n;
rightMetricsKey = h;
unicode = 0127;
},
{
glyphname = i;
lastChange = "2016-11-06 13:02:13 +0000";
layers = (
{
background = {
paths = (
{
closed = 1;
nodes = (
"276 516 OFFCURVE",
"274 530 OFFCURVE",
"263 530 CURVE SMOOTH",
"94 530 LINE SMOOTH",
"82 530 OFFCURVE",
"78 528 OFFCURVE",
"76 513 CURVE SMOOTH",
"8 31 LINE SMOOTH",
"6 14 OFFCURVE",
"14 0 OFFCURVE",
"34 0 CURVE SMOOTH",
"175 0 LINE SMOOTH",
"198 0 OFFCURVE",
"204 2 OFFCURVE",
"207 23 CURVE SMOOTH",
"275 504 LINE SMOOTH"
);
},
{
closed = 1;
nodes = (
"306 728 OFFCURVE",
"305 742 OFFCURVE",
"294 742 CURVE SMOOTH",
"126 742 LINE SMOOTH",
"114 742 OFFCURVE",
"108 734 OFFCURVE",
"106 719 CURVE SMOOTH",
"89 606 LINE SMOOTH",
"86 589 OFFCURVE",
"89 574 OFFCURVE",
"104 574 CURVE SMOOTH",
"255 574 LINE SMOOTH",
"278 574 OFFCURVE",
"285 577 OFFCURVE",
"288 597 CURVE SMOOTH",
"304 715 LINE SMOOTH"
);
}
);
};
layerId = "258ED206-D907-4350-8EBA-CBDDA1C16BF7";
paths = (
{
closed = 1;
nodes = (
"78 530 LINE",
"4 0 LINE",
"204 0 LINE",
"279 530 LINE"
);
},
{
closed = 1;
nodes = (
"109 742 LINE",
"84 574 LINE",
"285 574 LINE",
"308 742 LINE"
);
}
);
width = 282;
},
{
background = {
paths = (
{
closed = 1;
nodes = (
"168 527 OFFCURVE",
"165 530 OFFCURVE",
"158 530 CURVE SMOOTH",
"136 530 LINE SMOOTH",
"129 530 OFFCURVE",
"128 529 OFFCURVE",
"127 521 CURVE SMOOTH",
"55 11 LINE SMOOTH",
"54 3 OFFCURVE",
"57 0 OFFCURVE",
"66 0 CURVE SMOOTH",
"83 0 LINE SMOOTH",
"93 0 OFFCURVE",
"94 1 OFFCURVE",
"95 11 CURVE SMOOTH",
"167 519 LINE SMOOTH"
);
},
{
closed = 1;
nodes = (
"202 736 OFFCURVE",
"197 742 OFFCURVE",
"190 742 CURVE SMOOTH",
"164 742 LINE SMOOTH",
"157 742 OFFCURVE",
"152 738 OFFCURVE",
"151 730 CURVE SMOOTH",
"141 659 LINE SMOOTH",
"140 651 OFFCURVE",
"142 644 OFFCURVE",
"151 644 CURVE SMOOTH",
"178 644 LINE SMOOTH",
"188 644 OFFCURVE",
"190 649 OFFCURVE",
"191 659 CURVE SMOOTH",
"201 728 LINE SMOOTH"
);
}
);
};
layerId = "91AB5BCA-6A50-42DA-B2F7-8181BF189245";
paths = (
{
closed = 1;
nodes = (
"128 530 LINE",
"53 0 LINE",
"93 0 LINE",
"169 530 LINE"
);
},
{
closed = 1;
nodes = (
"153 742 LINE",
"139 644 LINE",
"189 644 LINE",
"203 742 LINE"
);
}
);
width = 222;
}
);
unicode = 0069;
},
{
glyphname = idotless;
lastChange = "2016-11-06 13:02:13 +0000";
layers = (
{
anchors = (
{
name = ogonek;
position = "{173, 9}";
},
{
name = top;
position = "{178, 530}";
}
);
background = {
anchors = (
{
name = ogonek;
position = "{173, 9}";
},
{
name = top;
position = "{178, 530}";
}
);
paths = (
{
closed = 1;
nodes = (
"276 516 OFFCURVE",
"267 530 OFFCURVE",
"256 530 CURVE SMOOTH",
"93 530 LINE SMOOTH",
"81 530 OFFCURVE",
"78 528 OFFCURVE",
"76 513 CURVE SMOOTH",
"8 31 LINE SMOOTH",
"6 14 OFFCURVE",
"14 0 OFFCURVE",
"34 0 CURVE SMOOTH",
"175 0 LINE SMOOTH",
"198 0 OFFCURVE",
"204 2 OFFCURVE",
"207 23 CURVE SMOOTH",
"275 504 LINE SMOOTH"
);
}
);
};
layerId = "258ED206-D907-4350-8EBA-CBDDA1C16BF7";
paths = (
{
closed = 1;
nodes = (
"78 530 LINE",
"4 0 LINE",
"204 0 LINE",
"279 530 LINE"
);
}
);
width = 282;
},
{
anchors = (
{
name = ogonek;
position = "{88, 13}";
},
{
name = top;
position = "{148, 530}";
}
);
background = {
anchors = (
{
name = ogonek;
position = "{88, 13}";
},
{
name = top;
position = "{148, 530}";
}
);
paths = (
{
closed = 1;
nodes = (
"168 527 OFFCURVE",
"165 530 OFFCURVE",
"158 530 CURVE SMOOTH",
"136 530 LINE SMOOTH",
"129 530 OFFCURVE",
"128 529 OFFCURVE",
"127 521 CURVE SMOOTH",
"55 11 LINE SMOOTH",
"54 3 OFFCURVE",
"57 0 OFFCURVE",
"66 0 CURVE SMOOTH",
"83 0 LINE SMOOTH",
"93 0 OFFCURVE",
"94 1 OFFCURVE",
"95 11 CURVE SMOOTH",
"167 519 LINE SMOOTH"
);
}
);
};
layerId = "91AB5BCA-6A50-42DA-B2F7-8181BF189245";
paths = (
{
closed = 1;
nodes = (
"128 530 LINE",
"53 0 LINE",
"93 0 LINE",
"169 530 LINE"
);
}
);
width = 222;
}
);
unicode = 0131;
},
{
glyphname = j;
lastChange = "2016-11-06 13:31:42 +0000";
layers = (
{
background = {
paths = (
{
closed = 1;
nodes = (
"276 504 LINE SMOOTH",
"277 516 OFFCURVE",
"269 530 OFFCURVE",
"257 530 CURVE SMOOTH",
"95 530 LINE SMOOTH",
"83 530 OFFCURVE",
"79 528 OFFCURVE",
"77 513 CURVE SMOOTH",
"11 42 LINE SMOOTH",
"6 8 OFFCURVE",
"-11 -4 OFFCURVE",
"-24 -8 CURVE SMOOTH",
"-60 -15 LINE SMOOTH",
"-74 -18 OFFCURVE",
"-78 -26 OFFCURVE",
"-79 -37 CURVE SMOOTH",
"-93 -139 LINE SMOOTH",
"-96 -160 OFFCURVE",
"-81 -170 OFFCURVE",
"-21 -170 CURVE SMOOTH",
"117 -170 OFFCURVE",
"189 -109 OFFCURVE",
"208 23 CURVE SMOOTH"
);
},
{
closed = 1;
nodes = (
"306 728 OFFCURVE",
"305 742 OFFCURVE",
"294 742 CURVE SMOOTH",
"126 742 LINE SMOOTH",
"114 742 OFFCURVE",
"108 734 OFFCURVE",
"106 719 CURVE SMOOTH",
"89 606 LINE SMOOTH",
"86 589 OFFCURVE",
"89 574 OFFCURVE",
"104 574 CURVE SMOOTH",
"255 574 LINE SMOOTH",
"278 574 OFFCURVE",
"285 577 OFFCURVE",
"288 597 CURVE SMOOTH",
"304 715 LINE SMOOTH"
);
}
);
};
layerId = "258ED206-D907-4350-8EBA-CBDDA1C16BF7";
paths = (
{
closed = 1;
nodes = (
"280 530 LINE",
"79 530 LINE",
"11 42 LINE",
"9 28 OFFCURVE",
"6 -3 OFFCURVE",
"-38 -11 CURVE",
"-76 -18 LINE",
"-94 -149 LINE SMOOTH",
"-94 -149 OFFCURVE",
"-81 -170 OFFCURVE",
"-21 -170 CURVE SMOOTH",
"117 -170 OFFCURVE",
"189 -109 OFFCURVE",
"208 23 CURVE SMOOTH"
);
},
{
closed = 1;
nodes = (
"109 742 LINE",
"84 574 LINE",
"285 574 LINE",
"308 742 LINE"
);
}
);
width = 283;
},
{
background = {
paths = (
{
closed = 1;
nodes = (
"167 519 LINE SMOOTH",
"168 526 OFFCURVE",
"165 530 OFFCURVE",
"159 530 CURVE SMOOTH",
"137 530 LINE SMOOTH",
"130 530 OFFCURVE",
"128 528 OFFCURVE",
"127 521 CURVE SMOOTH",
"47 -45 LINE SMOOTH",
"38 -109 OFFCURVE",
"13 -132 OFFCURVE",
"-40 -133 CURVE SMOOTH",
"-98 -134 LINE SMOOTH",
"-102 -134 OFFCURVE",
"-103 -135 OFFCURVE",
"-104 -139 CURVE SMOOTH",
"-107 -160 LINE SMOOTH",
"-108 -168 OFFCURVE",
"-101 -170 OFFCURVE",
"-41 -170 CURVE SMOOTH",
"49 -170 OFFCURVE",
"75 -134 OFFCURVE",
"86 -52 CURVE SMOOTH"
);
},
{
closed = 1;
nodes = (
"202 736 OFFCURVE",
"197 742 OFFCURVE",
"190 742 CURVE SMOOTH",
"164 742 LINE SMOOTH",
"157 742 OFFCURVE",
"152 738 OFFCURVE",
"151 730 CURVE SMOOTH",
"141 659 LINE SMOOTH",
"140 651 OFFCURVE",
"142 644 OFFCURVE",
"151 644 CURVE SMOOTH",
"178 644 LINE SMOOTH",
"188 644 OFFCURVE",
"190 649 OFFCURVE",
"191 659 CURVE SMOOTH",
"201 728 LINE SMOOTH"
);
}
);
};
layerId = "91AB5BCA-6A50-42DA-B2F7-8181BF189245";
paths = (
{
closed = 1;
nodes = (
"169 530 LINE",
"128 530 LINE",
"47 -45 LINE SMOOTH",
"38 -109 OFFCURVE",
"13 -132 OFFCURVE",
"-40 -133 CURVE SMOOTH",
"-103 -134 LINE",
"-107 -162 LINE SMOOTH",
"-107 -162 OFFCURVE",
"-99 -170 OFFCURVE",
"-41 -170 CURVE SMOOTH",
"49 -170 OFFCURVE",
"75 -134 OFFCURVE",
"86 -52 CURVE SMOOTH"
);
},
{
closed = 1;
nodes = (
"153 742 LINE",
"139 644 LINE",
"189 644 LINE",
"203 742 LINE"
);
}
);
width = 222;
}
);
leftKerningGroup = j;
rightKerningGroup = j;
unicode = 006A;
},
{
glyphname = jdotless;
lastChange = "2016-11-06 13:46:14 +0000";
layers = (
{
anchors = (
{
name = top;
position = "{166, 530}";
}
);
background = {
anchors = (
{
name = top;
position = "{166, 530}";
}
);
paths = (
{
closed = 1;
nodes = (
"266 504 LINE SMOOTH",
"267 516 OFFCURVE",
"259 530 OFFCURVE",
"247 530 CURVE SMOOTH",
"85 530 LINE SMOOTH",
"73 530 OFFCURVE",
"69 528 OFFCURVE",
"67 513 CURVE SMOOTH",
"1 42 LINE SMOOTH",
"-4 8 OFFCURVE",
"-21 -4 OFFCURVE",
"-34 -8 CURVE SMOOTH",
"-60 -15 LINE SMOOTH",
"-74 -18 OFFCURVE",
"-78 -26 OFFCURVE",
"-79 -37 CURVE SMOOTH",
"-93 -139 LINE SMOOTH",
"-96 -160 OFFCURVE",
"-81 -170 OFFCURVE",
"-31 -170 CURVE SMOOTH",
"82 -170 OFFCURVE",
"179 -109 OFFCURVE",
"198 23 CURVE SMOOTH"
);
}
);
};
layerId = "258ED206-D907-4350-8EBA-CBDDA1C16BF7";
paths = (
{
closed = 1;
nodes = (
"280 530 LINE",
"79 530 LINE",
"11 42 LINE",
"9 28 OFFCURVE",
"6 -3 OFFCURVE",
"-38 -11 CURVE",
"-76 -18 LINE",
"-94 -149 LINE SMOOTH",
"-94 -149 OFFCURVE",
"-81 -170 OFFCURVE",
"-21 -170 CURVE SMOOTH",
"117 -170 OFFCURVE",
"189 -109 OFFCURVE",
"208 23 CURVE SMOOTH"
);
}
);
width = 273;
},
{
anchors = (
{
name = top;
position = "{148, 530}";
}
);
background = {
anchors = (
{
name = top;
position = "{148, 530}";
}
);
paths = (
{
closed = 1;
nodes = (
"167 519 LINE SMOOTH",
"168 526 OFFCURVE",
"165 530 OFFCURVE",
"159 530 CURVE SMOOTH",
"137 530 LINE SMOOTH",
"130 530 OFFCURVE",
"128 528 OFFCURVE",
"127 521 CURVE SMOOTH",
"47 -45 LINE SMOOTH",
"38 -109 OFFCURVE",
"13 -132 OFFCURVE",
"-40 -133 CURVE SMOOTH",
"-98 -134 LINE SMOOTH",
"-102 -134 OFFCURVE",
"-103 -135 OFFCURVE",
"-104 -139 CURVE SMOOTH",
"-107 -160 LINE SMOOTH",
"-108 -168 OFFCURVE",
"-101 -170 OFFCURVE",
"-41 -170 CURVE SMOOTH",
"49 -170 OFFCURVE",
"75 -134 OFFCURVE",
"86 -52 CURVE SMOOTH"
);
}
);
};
layerId = "91AB5BCA-6A50-42DA-B2F7-8181BF189245";
paths = (
{
closed = 1;
nodes = (
"169 530 LINE",
"128 530 LINE",
"47 -45 LINE SMOOTH",
"38 -109 OFFCURVE",
"13 -132 OFFCURVE",
"-40 -133 CURVE SMOOTH",
"-103 -134 LINE",
"-107 -162 LINE SMOOTH",
"-107 -162 OFFCURVE",
"-99 -170 OFFCURVE",
"-41 -170 CURVE SMOOTH",
"49 -170 OFFCURVE",
"75 -134 OFFCURVE",
"86 -52 CURVE SMOOTH"
);
}
);
width = 222;
}
);
leftKerningGroup = j;
rightKerningGroup = j;
unicode = 0237;
},
{
glyphname = k;
lastChange = "2016-11-06 13:02:13 +0000";
layers = (
{
anchors = (
{
name = bottom;
position = "{265, 0}";
}
);
background = {
anchors = (
{
name = bottom;
position = "{265, 0}";
}
);
paths = (
{
closed = 1;
nodes = (
"461 332 LINE SMOOTH",
"456 350 OFFCURVE",
"463 357 OFFCURVE",
"473 368 CURVE SMOOTH",
"623 497 LINE SMOOTH",
"637 511 OFFCURVE",
"628 530 OFFCURVE",
"605 530 CURVE SMOOTH",
"468 530 LINE SMOOTH",
"458 530 OFFCURVE",
"448 527 OFFCURVE",
"436 517 CURVE SMOOTH",
"262 348 LINE SMOOTH",
"254 339 OFFCURVE",
"252 334 OFFCURVE",
"253 340 CURVE SMOOTH",
"305 715 LINE SMOOTH",
"307 728 OFFCURVE",
"306 742 OFFCURVE",
"294 742 CURVE SMOOTH",
"124 742 LINE SMOOTH",
"113 742 OFFCURVE",
"109 740 OFFCURVE",
"107 725 CURVE SMOOTH",
"9 31 LINE SMOOTH",
"7 14 OFFCURVE",
"15 0 OFFCURVE",
"36 0 CURVE SMOOTH",
"177 0 LINE SMOOTH",
"200 0 OFFCURVE",
"205 2 OFFCURVE",
"208 23 CURVE SMOOTH",
"222 124 LINE SMOOTH",
"224 140 OFFCURVE",
"232 149 OFFCURVE",
"238 154 CURVE SMOOTH",
"292 203 LINE SMOOTH",
"303 213 OFFCURVE",
"310 212 OFFCURVE",
"314 199 CURVE SMOOTH",
"362 31 LINE SMOOTH",
"367 15 OFFCURVE",
"375 0 OFFCURVE",
"392 0 CURVE SMOOTH",
"563 0 LINE SMOOTH",
"581 0 OFFCURVE",
"583 12 OFFCURVE",
"579 23 CURVE SMOOTH"
);
}
);
};
layerId = "258ED206-D907-4350-8EBA-CBDDA1C16BF7";
paths = (
{
closed = 1;
nodes = (
"454 351 LINE",
"661 530 LINE",
"449 530 LINE",
"253 339 LINE",
"309 742 LINE",
"109 742 LINE",
"5 0 LINE",
"205 0 LINE",
"224 142 LINE",
"309 218 LINE",
"371 0 LINE",
"588 0 LINE"
);
}
);
width = 631;
},
{
anchors = (
{
name = bottom;
position = "{236, 0}";
}
);
background = {
anchors = (
{
name = bottom;
position = "{236, 0}";
}
);
paths = (
{
closed = 1;
nodes = (
"314 330 LINE SMOOTH",
"312 335 OFFCURVE",
"315 338 OFFCURVE",
"319 341 CURVE SMOOTH",
"512 514 LINE SMOOTH",
"522 523 OFFCURVE",
"520 530 OFFCURVE",
"510 530 CURVE SMOOTH",
"478 530 LINE SMOOTH",
"471 530 OFFCURVE",
"468 529 OFFCURVE",
"460 521 CURVE SMOOTH",
"135 230 LINE SMOOTH",
"126 222 OFFCURVE",
"125 221 OFFCURVE",
"127 233 CURVE SMOOTH",
"196 731 LINE SMOOTH",
"198 739 OFFCURVE",
"195 742 OFFCURVE",
"188 742 CURVE SMOOTH",
"166 742 LINE SMOOTH",
"159 742 OFFCURVE",
"158 741 OFFCURVE",
"157 733 CURVE SMOOTH",
"55 11 LINE SMOOTH",
"54 3 OFFCURVE",
"57 0 OFFCURVE",
"66 0 CURVE SMOOTH",
"83 0 LINE SMOOTH",
"93 0 OFFCURVE",
"94 1 OFFCURVE",
"95 11 CURVE SMOOTH",
"115 151 LINE SMOOTH",
"116 158 OFFCURVE",
"120 163 OFFCURVE",
"125 168 CURVE SMOOTH",
"272 298 LINE SMOOTH",
"277 303 OFFCURVE",
"278 303 OFFCURVE",
"280 300 CURVE SMOOTH",
"421 8 LINE SMOOTH",
"423 3 OFFCURVE",
"426 0 OFFCURVE",
"432 0 CURVE SMOOTH",
"463 0 LINE SMOOTH",
"472 0 OFFCURVE",
"471 3 OFFCURVE",
"467 11 CURVE SMOOTH"
);
}
);
};
layerId = "91AB5BCA-6A50-42DA-B2F7-8181BF189245";
paths = (
{
closed = 1;
nodes = (
"312 335 LINE",
"530 530 LINE",
"470 530 LINE",
"125 221 LINE",
"198 742 LINE",
"158 742 LINE",
"53 0 LINE",
"93 0 LINE",
"116 160 LINE",
"278 304 LINE",
"425 0 LINE",
"472 0 LINE"
);
}
);
width = 538;
}
);
rightKerningGroup = k;
unicode = 006B;
},
{
glyphname = kgreenlandic;
lastChange = "2016-11-06 13:02:13 +0000";
layers = (
{
background = {
paths = (
{
closed = 1;
nodes = (
"461 332 LINE SMOOTH",
"456 350 OFFCURVE",
"463 357 OFFCURVE",
"473 368 CURVE SMOOTH",
"623 497 LINE SMOOTH",
"637 511 OFFCURVE",
"628 530 OFFCURVE",
"605 530 CURVE SMOOTH",
"468 530 LINE SMOOTH",
"458 530 OFFCURVE",
"448 527 OFFCURVE",
"436 517 CURVE SMOOTH",
"262 348 LINE SMOOTH",
"254 339 OFFCURVE",
"252 334 OFFCURVE",
"253 340 CURVE SMOOTH",
"275 503 LINE SMOOTH",
"277 516 OFFCURVE",
"269 530 OFFCURVE",
"257 530 CURVE SMOOTH",
"94 530 LINE SMOOTH",
"83 530 OFFCURVE",
"79 528 OFFCURVE",
"77 513 CURVE SMOOTH",
"9 31 LINE SMOOTH",
"7 14 OFFCURVE",
"15 0 OFFCURVE",
"36 0 CURVE SMOOTH",
"177 0 LINE SMOOTH",
"200 0 OFFCURVE",
"205 2 OFFCURVE",
"208 23 CURVE SMOOTH",
"222 124 LINE SMOOTH",
"224 140 OFFCURVE",
"232 149 OFFCURVE",
"238 154 CURVE SMOOTH",
"294 199 LINE SMOOTH",
"304 209 OFFCURVE",
"309 216 OFFCURVE",
"313 203 CURVE SMOOTH",
"362 31 LINE SMOOTH",
"365 15 OFFCURVE",
"375 0 OFFCURVE",
"392 0 CURVE SMOOTH",
"563 0 LINE SMOOTH",
"581 0 OFFCURVE",
"583 12 OFFCURVE",
"579 23 CURVE SMOOTH"
);
}
);
};
layerId = "258ED206-D907-4350-8EBA-CBDDA1C16BF7";
paths = (
{
closed = 1;
nodes = (
"454 351 LINE",
"661 530 LINE",
"449 530 LINE",
"253 339 LINE",
"279 530 LINE",
"79 530 LINE",
"5 0 LINE",
"205 0 LINE",
"225 143 LINE",
"310 212 LINE",
"371 0 LINE",
"588 0 LINE"
);
}
);
width = 631;
},
{
background = {
paths = (
{
closed = 1;
nodes = (
"314 330 LINE SMOOTH",
"312 335 OFFCURVE",
"315 338 OFFCURVE",
"319 341 CURVE SMOOTH",
"512 514 LINE SMOOTH",
"522 523 OFFCURVE",
"520 530 OFFCURVE",
"510 530 CURVE SMOOTH",
"478 530 LINE SMOOTH",
"471 530 OFFCURVE",
"468 529 OFFCURVE",
"460 521 CURVE",
"135 230 LINE SMOOTH",
"126 222 OFFCURVE",
"125 221 OFFCURVE",
"127 233 CURVE SMOOTH",
"167 519 LINE SMOOTH",
"168 527 OFFCURVE",
"165 530 OFFCURVE",
"158 530 CURVE SMOOTH",
"136 530 LINE SMOOTH",
"129 530 OFFCURVE",
"128 529 OFFCURVE",
"127 521 CURVE SMOOTH",
"55 11 LINE SMOOTH",
"54 3 OFFCURVE",
"57 0 OFFCURVE",
"66 0 CURVE SMOOTH",
"83 0 LINE SMOOTH",
"93 0 OFFCURVE",
"94 1 OFFCURVE",
"95 11 CURVE SMOOTH",
"115 151 LINE SMOOTH",
"116 158 OFFCURVE",
"120 163 OFFCURVE",
"125 168 CURVE SMOOTH",
"272 298 LINE SMOOTH",
"277 303 OFFCURVE",
"278 303 OFFCURVE",
"280 300 CURVE SMOOTH",
"421 8 LINE SMOOTH",
"423 3 OFFCURVE",
"426 0 OFFCURVE",
"432 0 CURVE SMOOTH",
"463 0 LINE SMOOTH",
"472 0 OFFCURVE",
"471 3 OFFCURVE",
"467 11 CURVE SMOOTH"
);
}
);
};
layerId = "91AB5BCA-6A50-42DA-B2F7-8181BF189245";
paths = (
{
closed = 1;
nodes = (
"312 335 LINE",
"530 530 LINE",
"470 530 LINE",
"125 221 LINE",
"169 530 LINE",
"128 530 LINE",
"53 0 LINE",
"93 0 LINE",
"116 160 LINE",
"278 304 LINE",
"425 0 LINE",
"472 0 LINE"
);
}
);
width = 538;
}
);
leftMetricsKey = k;
rightKerningGroup = k;
rightMetricsKey = k;
unicode = 0138;
},
{
glyphname = l;
lastChange = "2016-11-07 00:29:50 +0000";
layers = (
{
anchors = (
{
name = bottom;
position = "{173, 0}";
},
{
name = top;
position = "{213, 742}";
},
{
name = topright;
position = "{370, 530}";
}
);
background = {
anchors = (
{
name = bottom;
position = "{109, 0}";
},
{
name = top;
position = "{213, 742}";
},
{
name = topright;
position = "{370, 530}";
}
);
paths = (
{
closed = 1;
nodes = (
"308 733 OFFCURVE",
"305 742 OFFCURVE",
"294 742 CURVE SMOOTH",
"127 742 LINE SMOOTH",
"115 742 OFFCURVE",
"112 740 OFFCURVE",
"110 725 CURVE SMOOTH",
"7 31 LINE SMOOTH",
"5 14 OFFCURVE",
"14 0 OFFCURVE",
"34 0 CURVE SMOOTH",
"176 0 LINE SMOOTH",
"199 0 OFFCURVE",
"205 2 OFFCURVE",
"208 23 CURVE SMOOTH",
"306 720 LINE SMOOTH"
);
}
);
};
layerId = "258ED206-D907-4350-8EBA-CBDDA1C16BF7";
paths = (
{
closed = 1;
nodes = (
"259 -12 OFFCURVE",
"285 -5 OFFCURVE",
"308 4 CURVE",
"308 124 LINE",
"287 126 LINE",
"233 133 OFFCURVE",
"223 159 OFFCURVE",
"227 185 CURVE SMOOTH",
"307 740 LINE",
"110 740 LINE",
"27 159 LINE",
"20 81 OFFCURVE",
"38 -12 OFFCURVE",
"233 -12 CURVE SMOOTH"
);
}
);
width = 357;
},
{
anchors = (
{
name = bottom;
position = "{145, 0}";
},
{
name = top;
position = "{178, 742}";
},
{
name = topright;
position = "{323, 742}";
}
);
background = {
anchors = (
{
name = bottom;
position = "{74, 0}";
},
{
name = top;
position = "{178, 742}";
},
{
name = topright;
position = "{323, 742}";
}
);
paths = (
{
closed = 1;
nodes = (
"198 739 OFFCURVE",
"195 742 OFFCURVE",
"188 742 CURVE SMOOTH",
"166 742 LINE SMOOTH",
"159 742 OFFCURVE",
"158 741 OFFCURVE",
"157 733 CURVE SMOOTH",
"55 11 LINE SMOOTH",
"54 3 OFFCURVE",
"57 0 OFFCURVE",
"66 0 CURVE SMOOTH",
"83 0 LINE SMOOTH",
"93 0 OFFCURVE",
"94 1 OFFCURVE",
"95 11 CURVE SMOOTH",
"196 731 LINE SMOOTH"
);
}
);
};
layerId = "91AB5BCA-6A50-42DA-B2F7-8181BF189245";
paths = (
{
closed = 1;
nodes = (
"197 1 OFFCURVE",
"211 2 OFFCURVE",
"224 5 CURVE",
"224 35 LINE",
"191 35 LINE",
"127 35 OFFCURVE",
"110 77 OFFCURVE",
"114 129 CURVE",
"200 742 LINE",
"160 742 LINE",
"74 129 LINE",
"66 56 OFFCURVE",
"102 1 OFFCURVE",
"173 1 CURVE SMOOTH"
);
}
);
width = 311;
}
);
unicode = 006C;
},
{
glyphname = lslash;
lastChange = "2016-11-06 13:02:13 +0000";
layers = (
{
background = {
components = (
{
name = l;
transform = "{1, 0, 0, 1, 43, 0}";
}
);
paths = (
{
closed = 1;
nodes = (
"377 501 OFFCURVE",
"369 514 OFFCURVE",
"350 503 CURVE SMOOTH",
"44 327 LINE SMOOTH",
"32 319 OFFCURVE",
"26 311 OFFCURVE",
"24 296 CURVE SMOOTH",
"7 176 LINE SMOOTH",
"5 159 OFFCURVE",
"12 147 OFFCURVE",
"34 160 CURVE SMOOTH",
"339 342 LINE SMOOTH",
"352 351 OFFCURVE",
"357 360 OFFCURVE",
"359 372 CURVE SMOOTH",
"375 485 LINE SMOOTH"
);
}
);
};
components = (
{
name = l;
transform = "{1, 0, 0, 1, 43, 0}";
}
);
layerId = "258ED206-D907-4350-8EBA-CBDDA1C16BF7";
paths = (
{
closed = 1;
nodes = (
"27 317 LINE",
"2 141 LINE",
"356 352 LINE",
"380 520 LINE"
);
}
);
width = 364;
},
{
background = {
components = (
{
name = l;
transform = "{1, 0, 0, 1, -7, 0}";
}
);
paths = (
{
closed = 1;
nodes = (
"264 436 OFFCURVE",
"262 440 OFFCURVE",
"256 436 CURVE SMOOTH",
"2 226 LINE SMOOTH",
"-2 223 OFFCURVE",
"-3 220 OFFCURVE",
"-4 216 CURVE SMOOTH",
"-8 187 LINE SMOOTH",
"-9 182 OFFCURVE",
"-7 176 OFFCURVE",
"-1 180 CURVE SMOOTH",
"253 391 LINE SMOOTH",
"257 395 OFFCURVE",
"259 398 OFFCURVE",
"259 402 CURVE SMOOTH",
"263 432 LINE SMOOTH"
);
}
);
};
components = (
{
name = l;
transform = "{1, 0, 0, 1, -7, 0}";
}
);
layerId = "91AB5BCA-6A50-42DA-B2F7-8181BF189245";
paths = (
{
closed = 1;
nodes = (
"-3 222 LINE",
"-10 172 LINE",
"258 395 LINE",
"264 443 LINE"
);
}
);
width = 242;
}
);
unicode = 0142;
},
